<?xml version="1.0" standalone="no"?>
<!DOCTYPE svg PUBLIC "-//W3C//DTD SVG 1.1//EN" "http://www.w3.org/Graphics/SVG/1.1/DTD/svg11.dtd" >
<svg xmlns="http://www.w3.org/2000/svg">
<metadata>
This is a custom SVG webfont generated by Font Squirrel.
Copyright   : Copyright c 2003 by This Font is designed by Ralph Oliver du Carrois All rights reserved
Foundry     : This Font is designed by Ralph Oliver du Carrois
</metadata>
<defs>
<font id="ColaborateThinRegular" horiz-adv-x="1062" >
<font-face units-per-em="2048" ascent="1638" descent="-410" />
<missing-glyph horiz-adv-x="530" />
<glyph unicode=" "  horiz-adv-x="530" />
<glyph unicode="&#x09;" horiz-adv-x="530" />
<glyph unicode="&#xa0;" horiz-adv-x="530" />
<glyph unicode="!" horiz-adv-x="530" d="M199 0v164h137v-164h-137zM217 379v1118h98v-1118h-98z" />
<glyph unicode="&#x22;" horiz-adv-x="786" d="M184 1497h115l-18 -502h-78zM487 1497h115l-18 -502h-78z" />
<glyph unicode="#" d="M25 465v90h217l63 369h-190v90h207l86 483h102l-86 -483h291l86 483h102l-86 -483h221v-90h-237l-66 -369h213v-90h-229l-80 -465h-102l81 465h-292l-80 -465h-103l82 465h-200zM342 555h293l63 369h-290z" />
<glyph unicode="$" d="M109 29l41 96q78 -31 114.5 -42t94 -22.5t120.5 -11.5v688q-88 33 -139 58.5t-112.5 71.5t-90 114t-28.5 158q0 176 99 268t271 109v210h103v-206q154 -4 313 -58l-41 -96q-6 2 -26.5 11t-26.5 11.5t-23.5 9.5t-27 10t-27.5 8t-31.5 7t-32 5.5t-38 5.5t-39.5 2v-615 q84 -33 139 -60.5t114.5 -76.5t90 -123t30.5 -172q0 -190 -103 -291.5t-271 -128.5v-196h-103v190q-137 0 -370 66zM219 1139q0 -106 66.5 -168t193.5 -111v570q-260 -37 -260 -291zM582 63q113 25 187.5 104t74.5 218q0 125 -67.5 193.5t-194.5 119.5v-635z" />
<glyph unicode="%" horiz-adv-x="1595" d="M137 1124q0 395 271 396q90 0 149 -33t83 -98.5t32 -122t8 -142.5q0 -68 -3 -114.5t-19.5 -107t-44 -97.5t-81 -63.5t-126.5 -26.5q-90 0 -148.5 35.5t-83 104.5t-31 126t-6.5 143zM215 1124q0 -74 6 -126t23.5 -108t57.5 -85t104 -29q68 0 109.5 27.5t59 84t23.5 108 t6 130t-5 124.5t-22.5 101.5t-59.5 82t-109 26.5q-193 0 -193 -336zM322 0l837 1456h107l-838 -1456h-106zM915 387q0 395 273 395q90 0 148.5 -33.5t83 -98t32.5 -121t8 -142.5q0 -68 -3 -115t-19.5 -107.5t-44 -97t-80.5 -63.5t-127 -27q-92 0 -149.5 36t-82 103.5 t-32 126t-7.5 144.5zM995 387q0 -74 6.5 -126t22.5 -109.5t57 -86t105 -28.5q66 0 108.5 27.5t60 85t23.5 107.5t6 129t-5 125t-22.5 102.5t-60.5 83t-108 26.5q-193 0 -193 -336z" />
<glyph unicode="&#x26;" d="M106 391q0 301 287 434q-8 8 -55 40t-68.5 52.5t-54.5 56.5t-47 78t-14 93q0 383 340 383t340 -354q0 -137 -72 -220.5t-250 -158.5q-152 -66 -227.5 -149t-75.5 -251q0 -135 86 -241.5t262 -106.5q82 0 163 56.5t124 138.5v331h-256v78h352v-327q0 -55 18 -324h-75 l-29 135q-109 -166 -297 -166q-203 0 -327 111.5t-124 310.5zM256 1147q0 -33 13.5 -68t26.5 -58.5t43 -51t45 -38.5t49 -36t42 -29q113 45 184.5 116t71.5 194q0 137 -55 206.5t-191 69.5q-229 0 -229 -305z" />
<glyph unicode="'" horiz-adv-x="530" d="M211 1497h113l-19 -502h-76z" />
<glyph unicode="(" horiz-adv-x="589" d="M137 588q0 301 52.5 488.5t181.5 420.5h88q-123 -223 -167 -417.5t-44 -491.5q0 -260 44 -450.5t177 -434.5h-88q-145 254 -194.5 437.5t-49.5 447.5z" />
<glyph unicode=")" horiz-adv-x="589" d="M121 -297q133 244 177 434.5t44 450.5q0 297 -44 491.5t-167 417.5h88q131 -233 182.5 -420.5t51.5 -488.5q0 -264 -49.5 -447.5t-194.5 -437.5h-88z" />
<glyph unicode="*" horiz-adv-x="856" d="M35 1171l37 109l307 -119l12 10l-16 326h110l-18 -330l12 -8l305 119l37 -109l-321 -79l-2 -11l209 -266l-89 -63l-180 278h-14l-182 -278l-92 65l210 264l-4 11z" />
<glyph unicode="+" d="M63 442v93h416v440h107v-440h415v-93h-415v-442h-107v442h-416z" />
<glyph unicode="," horiz-adv-x="530" d="M66 -238l137 412h129l-189 -412h-77z" />
<glyph unicode="-" horiz-adv-x="727" d="M70 537v92h589v-92h-589z" />
<glyph unicode="." horiz-adv-x="530" d="M201 0v160h131v-160h-131z" />
<glyph unicode="/" horiz-adv-x="530" d="M-33 -23l496 1547h102l-495 -1547h-103z" />
<glyph unicode="0" d="M86 713q0 109 8 196.5t36 189t74 170t129 115t197 46.5q123 0 209 -45.5t131 -108t71 -167.5t32 -189t6 -207q0 -102 -5 -174t-17.5 -168.5t-42 -160t-79 -122.5t-127 -90t-180.5 -31q-88 0 -157.5 25.5t-115.5 63.5t-79 101.5t-50 122t-26.5 142.5t-11.5 144.5t-2 146.5 zM197 713q0 -94 3 -163t14 -152t33.5 -140t57.5 -106.5t91.5 -75t131.5 -25.5q80 0 141.5 25.5t97.5 80t58.5 106.5t29.5 143.5t10 147.5t3 159q0 117 -5 192.5t-23.5 166.5t-53 146.5t-99 92.5t-157.5 37q-333 0 -333 -635z" />
<glyph unicode="1" d="M256 1126l319 279h99v-1407h-107v1268l-268 -236z" />
<glyph unicode="2" d="M76 92q43 45 152.5 148.5t193.5 191.5t177 195.5t145.5 212t52.5 190.5q0 164 -79 242t-241 78q-20 0 -40.5 -1t-41 -6.5t-36 -7.5t-38 -10t-31.5 -11t-36 -15.5t-35 -15.5t-38.5 -18.5t-37.5 -17.5l-41 99q186 86 379 86q199 0 312.5 -96.5t113.5 -297.5 q0 -98 -48 -205.5t-139 -217t-169 -190.5t-190.5 -187.5t-153.5 -147.5h733v-90h-821z" />
<glyph unicode="3" d="M76 20l43 99q18 -8 57 -21.5t56.5 -19.5t51 -14.5t68.5 -10.5t78 -2q92 0 166 24.5t128 96.5t54 182q0 197 -116.5 270.5t-327.5 73.5v80q193 0 301 64.5t108 232.5q0 156 -77.5 215.5t-212.5 59.5q-104 0 -310 -101l-41 99q170 84 351 84q186 0 293.5 -86t107.5 -265 q0 -158 -86 -240.5t-219 -99.5q143 -25 241.5 -115.5t98.5 -273.5q0 -203 -131 -294t-334 -91q-121 0 -184.5 9t-163.5 44z" />
<glyph unicode="4" d="M88 494l621 911h88v-924h221v-86h-221v-395h-107v395h-561zM176 481h514v760z" />
<glyph unicode="5" d="M131 16l43 97q154 -61 313 -62q170 0 263.5 100.5t93.5 288.5q0 172 -80 269.5t-217 97.5q-115 0 -291 -88l-96 43v643h733v-84h-627v-487q23 4 72 20t98 26.5t109 10.5q203 0 304 -123t101 -334q0 -221 -120.5 -344t-344.5 -123q-204 0 -354 49z" />
<glyph unicode="6" d="M104 655q0 195 54.5 367t178.5 291t294 119q131 0 270 -37l-43 -97q-141 51 -215 52q-197 0 -319.5 -191.5t-122.5 -507.5q53 115 142 188.5t208 73.5q197 0 304.5 -125.5t107.5 -334.5q0 -199 -111 -342.5t-301 -143.5q-135 0 -227.5 57.5t-138.5 161t-63.5 215 t-17.5 254.5zM221 569q0 -283 80 -400.5t252 -117.5q137 0 218 110.5t81 291.5q0 379 -297 378q-72 0 -133.5 -27.5t-100 -73.5t-61.5 -84t-39 -77z" />
<glyph unicode="7" d="M90 1317v88h793l41 -98l-543 -1307h-125l573 1317h-739z" />
<glyph unicode="8" d="M84 336q0 289 340 405q-2 0 -28.5 13.5t-43 20.5t-47.5 26.5t-51.5 37t-46 44t-39.5 54.5t-25.5 64.5t-11.5 77.5q0 174 110.5 263.5t295.5 89.5q410 0 409 -351q0 -78 -36 -142.5t-89 -104t-100 -63t-84 -34.5q344 -117 344 -401q0 -115 -44 -191.5t-118 -112.5 t-143.5 -50.5t-149.5 -14.5q-78 0 -147.5 15.5t-140 53.5t-112.5 114.5t-42 185.5zM190 336q0 -143 92.5 -215t243.5 -72q152 0 250 69.5t98 217.5q0 256 -342 360q-342 -96 -342 -360zM236 1079q0 -111 94 -191.5t198 -109.5q109 20 211.5 105.5t102.5 197.5 q0 270 -305 271q-301 -1 -301 -273z" />
<glyph unicode="9" d="M102 946q0 199 111 342.5t301 143.5q133 0 226.5 -56.5t139.5 -161t63.5 -215t17.5 -254.5q0 -195 -54.5 -366.5t-178.5 -291.5t-296 -120q-129 0 -268 37l43 98q141 -51 215 -51q197 0 318.5 190.5t121.5 508.5q-51 -115 -141 -190t-207 -75q-197 0 -304.5 126 t-107.5 335zM213 946q0 -377 297 -377q72 0 133.5 28t100 73t60 83t38.5 78q0 283 -80 401t-250 118q-137 0 -218 -112t-81 -292z" />
<glyph unicode=":" horiz-adv-x="530" d="M201 0v160h131v-160h-131zM201 887v160h131v-160h-131z" />
<glyph unicode=";" horiz-adv-x="530" d="M66 -238l127 412h139l-189 -412h-77zM193 887v160h129v-160h-129z" />
<glyph unicode="&#x3c;" d="M70 442v133l925 416v-114l-827 -371l827 -365v-112z" />
<glyph unicode="=" d="M70 260v98h925v-98h-925zM70 657v103h925v-103h-925z" />
<glyph unicode="&#x3e;" d="M70 29v112l825 371l-825 365v114l925 -416v-133z" />
<glyph unicode="?" horiz-adv-x="890" d="M119 1452q199 68 313 68q387 0 387 -340q0 -76 -38 -140.5t-92 -110.5t-108.5 -94.5t-93 -109.5t-38.5 -133v-225h-107v237q0 88 39 157.5t93 116t108.5 89.5t92.5 96t38 117q0 137 -69 196.5t-212 59.5q-111 0 -272 -82zM328 0v164h137v-164h-137z" />
<glyph unicode="@" horiz-adv-x="1873" d="M193 740.5q0 361.5 226 570.5t585 209q178 0 329.5 -69t250.5 -217.5t99 -348.5q0 -293 -180 -444.5t-475 -151.5q-199 0 -332 118.5t-133 329.5q0 186 122 317.5t310 131.5q84 0 172 -35v-496l97 17l34 -84l-217 -35v545q-35 10 -84 10q-154 0 -243.5 -98.5 t-89.5 -264.5q0 -186 98 -282t270 -96q254 0 401.5 128t147.5 388q0 274 -165 417.5t-412 143.5q-319 0 -514 -182.5t-195 -520.5q0 -342 191.5 -522t508.5 -180q145 0 249 18.5t241 69.5l35 -84q-213 -80 -531 -80q-371 0 -583.5 208t-212.5 569.5z" />
<glyph unicode="A" horiz-adv-x="1406" d="M82 0l608 1497h72l563 -1497h-119l-174 469h-657l-185 -469h-108zM408 551h596l-285 788z" />
<glyph unicode="B" horiz-adv-x="1288" d="M231 0v1497h344q123 0 208 -15.5t157 -54t106.5 -116.5t34.5 -195q0 -115 -65.5 -201t-173.5 -131q309 -74 309 -364q0 -125 -38 -210t-109.5 -129t-154.5 -62.5t-196 -18.5h-422zM338 86h301q201 0 299 65.5t98 268.5q0 182 -110.5 245.5t-313.5 63.5h-274v-643z M338 813h270q160 0 260.5 72.5t100.5 228.5q0 184 -89 240.5t-305 56.5h-237v-598z" />
<glyph unicode="C" horiz-adv-x="1218" d="M150 748q0 129 19 240.5t61 210.5t111 170t174.5 111t242.5 40q186 0 348 -54l-41 -96q-152 66 -307 66q-496 0 -496 -686q0 -145 22.5 -266.5t76 -221.5t150.5 -156.5t232 -56.5q147 0 338 76l41 -96q-184 -66 -379 -66q-211 0 -346 105.5t-191 276t-56 403.5z" />
<glyph unicode="D" horiz-adv-x="1398" d="M231 0v1497h304q397 0 555.5 -168t158.5 -575q0 -403 -164.5 -578.5t-549.5 -175.5h-304zM338 86h217q303 0 443.5 168t140.5 498q0 358 -130 508.5t-474 150.5h-197v-1325z" />
<glyph unicode="E" horiz-adv-x="1185" d="M231 0v1497h797v-86h-690v-594h641v-86h-641v-645h711v-86h-818z" />
<glyph unicode="F" horiz-adv-x="1161" d="M231 0v1497h797v-88h-690v-602h661v-82h-661v-725h-107z" />
<glyph unicode="G" horiz-adv-x="1331" d="M150 750q0 770 618 770q127 0 332 -54l-43 -96q-147 66 -287 66q-266 0 -387 -174.5t-121 -511.5q0 -700 492 -701q129 0 331 109v465h-331v86h428v-619q-96 -47 -148.5 -68.5t-130.5 -40t-155 -18.5q-598 1 -598 787z" />
<glyph unicode="H" horiz-adv-x="1443" d="M231 0v1497h107v-680h768v680h106v-1497h-106v729h-768v-729h-107z" />
<glyph unicode="I" horiz-adv-x="512" d="M203 0v1497h106v-1497h-106z" />
<glyph unicode="J" horiz-adv-x="866" d="M47 0q16 2 63.5 11t68 14.5t63.5 16.5t64.5 21.5t57 29t56 41t44 53t36 67.5t21.5 87t9 108v1048h107v-1024q0 -96 -19.5 -174t-44 -131t-74.5 -96t-86 -66.5t-102.5 -47.5t-99.5 -32t-102 -20q-20 -6 -33 -8z" />
<glyph unicode="K" horiz-adv-x="1277" d="M231 0v1497h107v-706l719 706h114l-731 -713l801 -784h-143l-760 743v-743h-107z" />
<glyph unicode="L" horiz-adv-x="1073" d="M231 0v1497h107v-1405h715v-92h-822z" />
<glyph unicode="M" horiz-adv-x="1835" d="M231 0v1497h146l547 -1339l546 1339h134v-1497h-103v1382l-555 -1382h-57l-565 1382v-1382h-93z" />
<glyph unicode="N" horiz-adv-x="1497" d="M231 0v1497h144l788 -1372v1372h103v-1497h-148l-794 1372v-1372h-93z" />
<glyph unicode="O" horiz-adv-x="1519" d="M150 743q0 358 146 567.5t470 209.5q172 0 292 -57.5t187.5 -166t96 -242.5t28.5 -311q0 -362 -143.5 -571t-462.5 -209q-334 0 -474 206.5t-140 573.5zM262 743q0 -324 111.5 -509t390.5 -185q143 0 243.5 52.5t153.5 150.5t76 217t23 274q0 330 -110 511.5t-386 181.5 q-145 0 -246.5 -51.5t-156 -148.5t-77 -216t-22.5 -277z" />
<glyph unicode="P" horiz-adv-x="1230" d="M231 0v1497h387q238 0 361 -98.5t123 -315.5q0 -428 -459 -428h-305v-655h-107zM338 741h287q193 0 279.5 74t86.5 268q0 184 -93 256t-286 72h-274v-670z" />
<glyph unicode="Q" horiz-adv-x="1519" d="M150 743q0 358 146 567.5t470 209.5q172 0 292 -57.5t187.5 -166t96 -242.5t28.5 -311q0 -362 -143.5 -571t-462.5 -209q-334 0 -474 206.5t-140 573.5zM262 743q0 -324 111.5 -509t390.5 -185q143 0 243.5 52.5t153.5 150.5t76 217t23 274q0 330 -110 511.5t-386 181.5 q-145 0 -246.5 -51.5t-156 -148.5t-77 -216t-22.5 -277zM727 -156l41 70l477 -39l-41 -100z" />
<glyph unicode="R" horiz-adv-x="1290" d="M231 0v1497h422q201 0 331 -91t130 -296q0 -416 -450 -416l522 -694h-131l-514 692h-203v-692h-107zM338 778h328q336 0 335 332q0 301 -337 301h-326v-633z" />
<glyph unicode="S" horiz-adv-x="1216" d="M162 29l41 96q205 -76 342 -76q160 0 276.5 75t116.5 253q0 63 -22.5 115.5t-52 85t-87 65.5t-99.5 49.5t-114 40.5q-76 27 -122 46.5t-104 54t-92 73.5t-58.5 100.5t-24.5 135.5q0 195 135 286t358 91q158 0 346 -64l-40 -98q-176 78 -320 78q-369 0 -369 -293 q0 -63 26 -112.5t78 -85.5t101 -56.5t127 -48.5q104 -37 162.5 -63.5t134.5 -79t112 -131.5t36 -185q0 -418 -508 -418q-141 0 -379 66z" />
<glyph unicode="T" horiz-adv-x="1150" d="M66 1409v88h1021v-88h-458v-1409h-107v1409h-456z" />
<glyph unicode="U" horiz-adv-x="1515" d="M231 553v944h107v-922q0 -301 96 -413.5t338 -112.5q223 0 314.5 119t91.5 407v922h106v-948q0 -301 -123 -443.5t-389 -142.5q-291 0 -416 141.5t-125 448.5z" />
<glyph unicode="V" horiz-adv-x="1341" d="M72 1497h118l498 -1335l471 1335h111l-543 -1497h-88z" />
<glyph unicode="W" horiz-adv-x="1929" d="M86 1497h111l354 -1339l364 1278h113l361 -1282l356 1343h100l-407 -1497h-113l-360 1264l-365 -1264h-117z" />
<glyph unicode="X" horiz-adv-x="1273" d="M76 0l499 772l-436 725h125l379 -631l395 631h117l-461 -709l492 -788h-135l-416 696l-442 -696h-117z" />
<glyph unicode="Y" horiz-adv-x="1230" d="M39 1497h121l475 -729l450 729h107l-510 -823v-674h-107v664z" />
<glyph unicode="Z" horiz-adv-x="1218" d="M106 96l891 1313h-804v88h878l43 -96l-895 -1313h875v-88h-947z" />
<glyph unicode="[" horiz-adv-x="589" d="M195 -295v1860h288v-80h-182v-1694h182v-86h-288z" />
<glyph unicode="\" horiz-adv-x="530" d="M-33 1524h103l495 -1547h-102z" />
<glyph unicode="]" horiz-adv-x="589" d="M106 -203h183v1694h-183v78h289v-1858h-289v86z" />
<glyph unicode="^" d="M86 623l418 874h53l428 -874h-117l-336 698l-337 -698h-109z" />
<glyph unicode="_" horiz-adv-x="1157" d="M-2 -143h1161v-76h-1161v76z" />
<glyph unicode="`" horiz-adv-x="434" d="M43 1497h125l223 -270h-90z" />
<glyph unicode="a" horiz-adv-x="1056" d="M113 279q0 174 121.5 263t439.5 89h108v98q0 274 -243 275q-160 0 -344 -91l-35 84q215 84 377 84q160 0 250 -86t90 -254v-417q0 -55 28 -324h-76q0 12 -17 63.5t-21 71.5q-41 -70 -122 -114t-186 -44q-152 0 -261 76t-109 226zM215 281q0 -104 69.5 -166t198.5 -62 q102 0 182 46t119 122v332h-77q-276 0 -384 -62.5t-108 -209.5z" />
<glyph unicode="b" horiz-adv-x="1089" d="M147 0q18 178 19 324v1196h96v-629q39 72 125 131t191 59q205 0 302 -152.5t97 -393.5q0 -248 -98.5 -403t-311.5 -155q-92 0 -179 46.5t-134 111.5l-29 -135h-78zM256 229q111 -176 289 -176q330 0 329 477q0 240 -80.5 357t-222.5 117q-72 0 -131 -28t-96 -73 t-56.5 -75.5t-31.5 -61.5v-537z" />
<glyph unicode="c" horiz-adv-x="958" d="M113 520q0 561 446 561q133 0 303 -67l-33 -84q-150 74 -272 74q-342 0 -342 -484q0 -467 340 -467q135 0 279 74l34 -84q-57 -27 -153.5 -46.5t-161.5 -19.5q-225 0 -332.5 144.5t-107.5 398.5z" />
<glyph unicode="d" horiz-adv-x="1089" d="M113 535q0 236 106.5 391t298.5 155q111 0 189.5 -58t121.5 -132v629h95v-1196q0 -145 18 -324h-76l-30 135q-47 -66 -131 -112t-177 -46h-6q-213 2 -311 156t-98 402zM215 530q0 -477 332 -477q178 0 287 176v537q-12 33 -32 64.5t-54.5 75.5t-92 71t-127.5 27 q-147 0 -230 -119t-83 -355z" />
<glyph unicode="e" horiz-adv-x="1064" d="M113 518q0 100 21.5 192.5t66.5 179.5t129 139t200 52q125 0 209 -44t128 -128t61.5 -179t17.5 -224h-729q0 -453 336 -453q147 0 326 94l28 -84q-178 -86 -372 -86q-217 0 -319.5 150.5t-102.5 390.5zM215 584h639q0 213 -77 316.5t-247 103.5q-150 0 -226.5 -110.5 t-88.5 -309.5z" />
<glyph unicode="f" horiz-adv-x="542" d="M35 981v76h176v149q0 158 90 247t266 101l23 -81q-168 -16 -226.5 -80t-58.5 -181v-155h217v-76h-217v-981h-94v981h-176z" />
<glyph unicode="g" horiz-adv-x="1089" d="M90 -166q0 90 73 151.5t159 80.5q-147 59 -148 165q0 35 16.5 69t29.5 48t46 47q-2 2 -13 15.5t-16.5 18.5t-17.5 20.5t-18 29t-16.5 31.5t-16.5 36.5t-13.5 41t-9.5 50.5t-2 56q0 53 17.5 113.5t58.5 125t124 106.5t196 42q117 0 176 -30q283 23 289 22l-35 -82h-162 q53 -37 94 -116.5t41 -174.5q0 -170 -96 -285.5t-301 -115.5q-51 0 -121 17.5t-98 35.5q-59 -66 -60 -114q0 -53 61.5 -82t254.5 -50q242 -25 338 -93t96 -171q0 -143 -129 -221t-330 -78q-467 0 -467 291zM193 -166q0 -213 364 -213q178 0 267 59.5t89 161.5q0 66 -56 104 t-155.5 56t-289.5 35q-104 -20 -161.5 -80t-57.5 -123zM246 690q0 -139 73.5 -227t226 -88t223.5 89t71 232q0 147 -78 227.5t-217 80.5q-158 0 -228.5 -92.5t-70.5 -221.5z" />
<glyph unicode="h" horiz-adv-x="1083" d="M166 0v1520h96v-629q39 76 126 133t185 57q188 0 267.5 -111.5t79.5 -285.5v-684h-97v635q0 182 -55 275.5t-211 93.5q-111 0 -193.5 -81t-103.5 -157v-766h-94z" />
<glyph unicode="i" horiz-adv-x="434" d="M162 1339v158h110v-158h-110zM172 0v1057h94v-1057h-94z" />
<glyph unicode="j" horiz-adv-x="421" d="M-55 -238q121 25 168 76t47 156v1063h94v-1043q0 -139 -64.5 -219t-218.5 -119zM150 1339v158h112v-158h-112z" />
<glyph unicode="k" horiz-adv-x="966" d="M166 0v1520h96v-908l500 445h108l-528 -457l584 -600h-121l-543 565v-565h-96z" />
<glyph unicode="l" horiz-adv-x="428" d="M166 0v1520h96v-1520h-96z" />
<glyph unicode="m" horiz-adv-x="1734" d="M147 1057h78l31 -166q131 190 309 190q246 0 318 -233q39 63 73.5 106t103 85t150.5 42q358 0 359 -405v-676h-94v672q0 70 -9.5 120t-36 102t-85 81t-144.5 29q-96 0 -176 -77t-115 -169v-758h-94v672q0 154 -67.5 243t-196.5 89q-98 0 -179 -73t-110 -163v-768h-96v815 q-1 33 -19 242z" />
<glyph unicode="n" horiz-adv-x="1083" d="M147 1057h78l29 -166l16 20q16 25 23.5 32t27 29.5t35 33t41 28t49 25.5t56.5 15t67 7q350 0 351 -415v-666h-97v647q0 82 -10 139.5t-36.5 109.5t-82 80t-139.5 28q-104 0 -184 -75t-109 -161v-768h-96v834q0 49 -8.5 118.5t-10.5 104.5z" />
<glyph unicode="o" horiz-adv-x="1103" d="M113 535q0 158 37.5 273.5t139 194t263.5 78.5q438 0 438 -546q0 -557 -438 -558q-440 1 -440 558zM215 535q0 -481 338 -482q193 0 264.5 128t71.5 354q0 104 -15.5 184t-51.5 146.5t-103.5 102.5t-165.5 36q-178 0 -258 -128t-80 -341z" />
<glyph unicode="p" horiz-adv-x="1089" d="M147 1057h78l35 -168q115 193 311 192q215 0 310.5 -154.5t95.5 -404.5q0 -236 -103.5 -390.5t-295.5 -154.5q-205 0 -316 152v-545h-96v1161q-1 167 -19 312zM260 225q4 -6 25.5 -33.5t34 -39t41 -35t54 -34.5t65.5 -20.5t85 -9.5q143 0 226 119t83 356q0 475 -321 476 q-102 0 -184 -74t-109 -164v-541z" />
<glyph unicode="q" horiz-adv-x="1089" d="M113 522q0 244 102 401.5t307 157.5q96 0 179 -58t130 -134l35 168h76q-18 -145 -18 -312v-1161h-95v545q-113 -152 -317 -152q-195 0 -297 154.5t-102 390.5zM215 528q0 -238 83 -356.5t228 -118.5q55 0 100.5 10.5t80 35t50 38t44 49t30.5 39.5v541q-29 88 -111.5 163 t-184.5 75q-160 0 -240 -130.5t-80 -345.5z" />
<glyph unicode="r" horiz-adv-x="739" d="M147 1057h78l29 -199q25 45 43 72.5t51 67.5t77 61.5t95 21.5q102 0 191 -51l-35 -84q-78 57 -172 58q-31 0 -62.5 -15.5t-52 -36t-44 -56.5t-35 -55.5t-29 -57.5t-19.5 -42v-741h-96v821q-1 23 -19 236z" />
<glyph unicode="s" horiz-adv-x="915" d="M102 795q0 147 105.5 216.5t277.5 69.5q98 0 299 -69l-34 -84q-12 4 -41 17t-39.5 17.5t-34 13.5t-37.5 13t-37.5 8t-45 5.5t-50.5 1.5q-115 0 -188.5 -48.5t-73.5 -154.5q0 -41 17.5 -73t58 -54.5t73.5 -35.5t94 -32q57 -18 74 -23t69 -23.5t70.5 -32t54.5 -39t50 -53 t26.5 -67.5t12.5 -85q0 -145 -100.5 -225.5t-258.5 -80.5q-211 0 -340 64l35 84q104 -43 160.5 -57.5t153.5 -14.5q115 0 181 59.5t66 168.5q0 53 -19 91t-66.5 64.5t-82 38.5t-106.5 37q-74 23 -120 41t-99 51t-79 80.5t-26 110.5z" />
<glyph unicode="t" horiz-adv-x="608" d="M35 981v76h160v264h94v-264h241v-76h-241v-727q0 -113 67.5 -176.5t216.5 -89.5l-24 -88q-178 33 -266 119.5t-88 234.5v727h-160z" />
<glyph unicode="u" horiz-adv-x="1069" d="M166 391v666h96v-647q0 -168 53.5 -262.5t206.5 -94.5q104 0 180 74t105 162v768h96v-832q0 -49 8.5 -119.5t10.5 -105.5h-78l-29 166q-2 -2 -23.5 -31t-32.5 -41t-40 -38.5t-56.5 -41t-71.5 -26t-93 -11.5q-332 0 -332 414z" />
<glyph unicode="v" horiz-adv-x="1075" d="M96 1057h103l348 -916l340 916h92l-406 -1057h-67z" />
<glyph unicode="w" horiz-adv-x="1544" d="M96 1057h101l278 -932l256 825h80l236 -819l311 926h90l-365 -1057h-88l-233 795l-248 -795h-92z" />
<glyph unicode="x" horiz-adv-x="989" d="M59 0l381 535l-354 522h123l295 -441l303 441h104l-358 -506l377 -551h-127l-307 469l-330 -469h-107z" />
<glyph unicode="y" horiz-adv-x="1073" d="M96 1057l103 4l370 -907l316 903h92l-442 -1225q-43 -119 -99.5 -172t-183.5 -100l-27 88q164 45 203 151l92 244z" />
<glyph unicode="z" horiz-adv-x="905" d="M96 84l613 897h-566v76h633l35 -82l-610 -899h585v-76h-655z" />
<glyph unicode="{" horiz-adv-x="786" d="M111 571v86q82 2 121.5 64.5t44 154t17.5 198t38.5 199.5t115 156.5t236.5 67.5v-86q-145 0 -218 -67.5t-86 -173t-15.5 -214t-35 -207t-118.5 -139.5q88 -33 123 -127t38 -205.5t15 -218t83 -177t214 -70.5v-84q-145 4 -231 66.5t-112 153.5t-40 197.5t-18 199.5 t-46 156.5t-126 69.5z" />
<glyph unicode="|" horiz-adv-x="530" d="M219 -385v2009h94v-2009h-94z" />
<glyph unicode="}" horiz-adv-x="786" d="M102 -188q143 0 214 70.5t83.5 177t16.5 218t37.5 206t121.5 126.5q-84 41 -117.5 139.5t-34.5 207t-15.5 214t-87 173t-218.5 67.5v86q147 -4 236.5 -67.5t115 -156.5t39 -199.5t17.5 -198t44 -154t122 -64.5v-86q-84 -6 -125 -69.5t-46 -156.5t-18.5 -199.5t-39 -197.5 t-112.5 -153.5t-233 -66.5v84z" />
<glyph unicode="~" d="M55 406q0 109 71 164t175 55q80 0 230.5 -83t225 -83t119 44t44.5 115l90 -43q0 -106 -76 -162.5t-174 -56.5q-94 0 -243.5 85t-215.5 85q-156 0 -156 -164z" />
<glyph unicode="&#xa1;" horiz-adv-x="530" d="M199 1333v164h137v-164h-137zM219 0v1118h98v-1118h-98z" />
<glyph unicode="&#xa2;" horiz-adv-x="935" d="M113 520q0 518 383 559v209h90v-207q98 -6 254 -67l-35 -84q-125 63 -219 71v-946q102 12 225 72l33 -84q-106 -49 -258 -63v-209h-90v209q-383 36 -383 540zM215 520q0 -424 281 -463v942q-281 -41 -281 -479z" />
<glyph unicode="&#xa3;" d="M113 0v90h161v713h-161v90h161v84q0 94 20.5 172t44 131t74 97t86.5 66.5t103.5 46t99 32t101.5 22.5q20 4 33 6l30 -102q-16 -2 -64 -11.5t-68.5 -13.5t-63.5 -16t-64.5 -22.5t-57.5 -29t-55.5 -40t-44 -53t-37 -68.5t-21.5 -87t-9 -108v-106h432v-90h-432v-711h627v-92 h-895z" />
<glyph unicode="&#xa4;" d="M0 573l23 86h188q-2 29 -2 89q0 72 2 106h-211l23 86h196q35 266 168 423t385 157q168 0 350 -62l-28 -104q-166 82 -322 82q-209 0 -310.5 -133.5t-129.5 -362.5h657l-24 -86h-643q-2 -35 -3 -104q0 -59 3 -91h591l-22 -86h-563q27 -246 124 -385t306 -139q115 0 315 80 v-113q-178 -53 -315 -53q-473 0 -541 610h-217z" />
<glyph unicode="&#xa5;" d="M20 1497h121l410 -717l387 717h106l-434 -801h351v-90h-361v-186h361v-92h-361v-328h-106v328h-357v92h357v186h-357v90h340z" />
<glyph unicode="&#xa6;" horiz-adv-x="530" d="M213 -180v540h106v-540h-106zM213 831v541h106v-541h-106z" />
<glyph unicode="&#xa7;" d="M166 764q0 190 170 256q-133 68 -133 209q0 145 104.5 218t257.5 73q131 0 287 -74l-35 -90q-74 45 -125 63.5t-125 18.5q-258 0 -258 -203q0 -66 60.5 -108t147.5 -65.5t174 -53t146.5 -98t59.5 -175.5q0 -82 -48 -144.5t-124 -88.5q135 -74 135 -234 q0 -143 -102.5 -224t-255.5 -81q-182 0 -322 66l35 90q72 -31 103.5 -42t79.5 -20.5t108 -9.5q115 0 181.5 55.5t66.5 163.5q0 86 -59.5 139.5t-146.5 79t-174 52t-147.5 82t-60.5 145.5zM272 770q0 -47 36 -85t75 -52.5t121 -40t114 -37.5q172 47 173 178q0 51 -15.5 86 t-55.5 58.5t-71 35t-96.5 28.5t-93.5 28q-187 -23 -187 -199z" />
<glyph unicode="&#xa8;" horiz-adv-x="434" d="M-6 1352v145h108v-145h-108zM334 1352v145h108v-145h-108z" />
<glyph unicode="&#xa9;" horiz-adv-x="1665" d="M57 749.5q0 325.5 224.5 550t552.5 224.5q330 0 552 -222.5t222 -551.5q0 -326 -224.5 -549.5t-551 -223.5t-551 223.5t-224.5 549zM147 750q0 -285 201 -491t485.5 -206t484.5 206t200 491q0 289 -199 492.5t-485 203.5q-289 0 -488 -203.5t-199 -492.5zM432 745 q0 205 94.5 334t298.5 129q111 0 228 -37l-27 -73q-115 45 -201 45q-309 0 -309 -395q0 -408 301 -408q80 0 219 53l27 -74q-137 -45 -246 -45q-195 0 -290 129t-95 342z" />
<glyph unicode="&#xaa;" d="M289 1057q0 98 74.5 150.5t263.5 52.5h65v38q0 74 -33.5 109t-111.5 35q-102 0 -209 -49l-21 61q127 43 228 43q96 0 155.5 -46t59.5 -138v-230q0 -31 18 -178h-59q0 4 -10.5 32t-12.5 40q-57 -86 -184 -86q-92 0 -157.5 42t-65.5 124zM367 1057q0 -111 145 -111 q57 0 107.5 27.5t72.5 73.5v153h-47q-154 0 -216 -30.5t-62 -112.5z" />
<glyph unicode="&#xab;" horiz-adv-x="786" d="M88 625l215 422h103l-226 -418l223 -416h-100zM389 625l215 422h103l-226 -418l224 -416h-101z" />
<glyph unicode="&#xac;" d="M35 692v90h983v-510h-107v420h-876z" />
<glyph unicode="&#xad;" horiz-adv-x="727" d="M70 537v92h589v-92h-589z" />
<glyph unicode="&#xae;" horiz-adv-x="1665" d="M57 749.5q0 325.5 224.5 550t552.5 224.5q330 0 552 -222.5t222 -551.5q0 -326 -224.5 -549.5t-551 -223.5t-551 223.5t-224.5 549zM147 750q0 -285 201 -491t485.5 -206t484.5 206t200 491q0 289 -199 492.5t-485 203.5q-289 0 -488 -203.5t-199 -492.5zM565 299v899 h273q129 0 214 -56.5t85 -176.5q0 -111 -69 -182.5t-224 -71.5l338 -412h-97l-333 412h-109v-412h-78zM643 776h205q115 0 160 50.5t45 138.5t-49.5 128t-159.5 40h-201v-357z" />
<glyph unicode="&#xaf;" horiz-adv-x="434" d="M-35 1337v107h504v-107h-504z" />
<glyph unicode="&#xb0;" horiz-adv-x="856" d="M115 1109q0 132 92 221t221 89t221 -89t92 -221t-93 -218t-222 -86t-220 86t-91 218zM219 1108q0 -82 61.5 -143.5t145.5 -61.5t146.5 61.5t62.5 143.5q0 92 -58.5 152.5t-148.5 60.5t-149.5 -60.5t-59.5 -152.5z" />
<glyph unicode="&#xb1;" d="M63 582v92h416v301h107v-301h415v-92h-415v-303h-107v303h-416zM70 4v100h925v-100h-925z" />
<glyph unicode="&#xb2;" horiz-adv-x="727" d="M106 784q23 23 117 104t150.5 137t111 136t54.5 137q0 90 -46.5 126t-144.5 36q-86 0 -203 -55l-22 68q115 47 227 47q119 0 192.5 -57.5t73.5 -166.5q0 -68 -50 -145.5t-102 -126.5t-142.5 -127t-114.5 -100h418v-64h-494z" />
<glyph unicode="&#xb3;" horiz-adv-x="727" d="M115 743l26 68q115 -39 187 -39q209 0 209 154q0 106 -70 144t-197 38v59q119 0 182.5 32t63.5 124q0 84 -44 110.5t-130 26.5q-59 0 -184 -55l-27 68q104 47 211 47q111 0 181.5 -48.5t70.5 -146.5q0 -166 -182 -186q205 -31 204 -213q0 -109 -83.5 -160t-208.5 -51 q-121 -1 -209 28z" />
<glyph unicode="&#xb4;" horiz-adv-x="434" d="M43 1227l223 270h125l-256 -270h-92z" />
<glyph unicode="&#xb5;" d="M164 -416v1473h96v-647q0 -168 53.5 -262.5t206.5 -94.5q102 0 177 83t108 177v744h96v-832q0 -49 7 -119.5t12 -105.5h-78l-29 166l-22 -29q-23 -31 -34.5 -43t-40 -40.5t-53 -41t-64.5 -24t-81 -11.5q-174 0 -258 97v-490h-96z" />
<glyph unicode="&#x3bc;" d="M164 -416v1473h96v-647q0 -168 53.5 -262.5t206.5 -94.5q102 0 177 83t108 177v744h96v-832q0 -49 7 -119.5t12 -105.5h-78l-29 166l-22 -29q-23 -31 -34.5 -43t-40 -40.5t-53 -41t-64.5 -24t-81 -11.5q-174 0 -258 97v-490h-96z" />
<glyph unicode="&#xb6;" horiz-adv-x="1249" d="M233 1133q0 365 420 364h428v-1931h-106v1841h-234q-113 0 -181 -65.5t-68 -198.5q0 -96 66.5 -157.5t158.5 -88.5v-1331h-107v1216q-106 4 -182 38t-117 85t-59.5 108t-18.5 120z" />
<glyph unicode="&#xb7;" horiz-adv-x="530" d="M184 584v174h164v-174h-164z" />
<glyph unicode="&#xb8;" horiz-adv-x="434" d="M12 -369l31 88q131 -16 152 -16q47 0 78.5 18.5t31.5 56.5t-36 56.5t-148 18.5l47 182h92l-24 -109q80 0 125 -43t45 -100q0 -170 -199 -170q-62 0 -195 18z" />
<glyph unicode="&#xb9;" horiz-adv-x="727" d="M184 1346l191 151h71v-772h-75v682l-162 -129z" />
<glyph unicode="&#xba;" d="M270 1221q0 299 265 299q262 0 262 -299q0 -307 -262 -308q-265 1 -265 308zM342 1221q0 -119 43 -185.5t150 -66.5q190 0 190 252q0 117 -42 180t-148 63q-193 1 -193 -243z" />
<glyph unicode="&#xbb;" horiz-adv-x="786" d="M82 1047h100l215 -422l-215 -412h-98l221 416zM381 1047h102l215 -422l-215 -412h-98l221 416z" />
<glyph unicode="&#xbc;" horiz-adv-x="1595" d="M150 1346l190 151h72v-772h-76v682l-162 -129zM233 0l842 1456h103l-850 -1456h-95zM791 270l372 502h66v-502h123v-59h-123v-211h-76v211h-334zM858 270h295v400z" />
<glyph unicode="&#xbd;" horiz-adv-x="1595" d="M150 1346l190 151h72v-772h-76v682l-162 -129zM233 0l838 1456h107l-838 -1456h-107zM909 66q10 8 153.5 129.5t213.5 209t70 162.5q0 90 -47.5 126t-145.5 36q-82 0 -203 -57l-22 69q111 45 227 45q121 0 193.5 -56t72.5 -165q0 -68 -50 -145.5t-102 -127.5t-142.5 -128 t-114.5 -101h418v-63h-492z" />
<glyph unicode="&#xbe;" horiz-adv-x="1595" d="M104 743l25 68q117 -39 188 -39q209 0 209 154q0 106 -69.5 144t-196.5 38v59q117 0 180.5 32t63.5 124q0 84 -44 110.5t-128 26.5q-61 0 -187 -55l-24 68q106 47 211 47q111 0 181.5 -48.5t70.5 -146.5q0 -166 -185 -186q205 -31 205 -213q0 -109 -83 -160t-208 -51 q-121 -1 -209 28zM291 0l837 1456h107l-840 -1456h-104zM850 270l373 502h63v-502h123v-59h-123v-211h-76v211h-333zM915 270h295v400z" />
<glyph unicode="&#xbf;" horiz-adv-x="890" d="M119 317q0 76 38 140.5t92 111.5l108 95q54 47 92 108.5t38 132.5v228h107v-240q0 -88 -38 -157.5t-92 -116t-108.5 -89.5t-92.5 -96t-38 -117q0 -137 67.5 -195.5t211.5 -58.5q113 0 274 80l41 -96q-199 -70 -315 -70q-385 0 -385 340zM473 1333v164h135v-164h-135z" />
<glyph unicode="&#xc0;" horiz-adv-x="1406" d="M82 0l608 1497h72l563 -1497h-119l-174 469h-657l-185 -469h-108zM408 551h596l-285 788zM573 1847h125l224 -270h-91z" />
<glyph unicode="&#xc1;" horiz-adv-x="1406" d="M82 0l608 1497h72l563 -1497h-119l-174 469h-657l-185 -469h-108zM408 551h596l-285 788zM545 1567l221 270h125l-256 -270h-90z" />
<glyph unicode="&#xc2;" horiz-adv-x="1406" d="M82 0l608 1497h72l563 -1497h-119l-174 469h-657l-185 -469h-108zM408 551h596l-285 788zM473 1624l193 248h112l189 -248h-93l-151 172l-158 -172h-92z" />
<glyph unicode="&#xc3;" horiz-adv-x="1406" d="M82 0l608 1497h72l563 -1497h-119l-174 469h-657l-185 -469h-108zM408 551h596l-285 788zM442 1624q37 84 75 113.5t110 29.5q35 0 106.5 -37.5t102.5 -37.5q66 0 94 90l82 -35q-49 -137 -172 -137q-33 0 -105.5 42t-109.5 42q-74 0 -103 -105z" />
<glyph unicode="&#xc4;" horiz-adv-x="1406" d="M82 0l608 1497h72l563 -1497h-119l-174 469h-657l-185 -469h-108zM408 551h596l-285 788zM500 1610v147h108v-147h-108zM840 1610v147h108v-147h-108z" />
<glyph unicode="&#xc5;" horiz-adv-x="1406" d="M82 0l608 1497h72l563 -1497h-119l-174 469h-657l-185 -469h-108zM408 551h596l-285 788zM530 1742q0 79 55.5 135t136.5 56t136 -55t55 -135t-55 -135.5t-135 -55.5t-136.5 55.5t-56.5 134.5zM602 1745q0 -43 35 -82t86 -39q57 0 87 35t30 86t-32 86t-85 35 q-51 0 -86 -37t-35 -84z" />
<glyph unicode="&#xc6;" horiz-adv-x="1978" d="M82 0l848 1497h889v-86h-793l113 -594h630v-86h-612l119 -645h563v-86h-663l-86 469h-629l-264 -469h-115zM502 551h571l-141 780z" />
<glyph unicode="&#xc7;" horiz-adv-x="1218" d="M150 748q0 129 19 240.5t61 210.5t111 170t174.5 111t242.5 40q186 0 348 -54l-41 -96q-152 66 -307 66q-496 0 -496 -686q0 -145 22.5 -266.5t76 -221.5t150.5 -156.5t232 -56.5q147 0 338 76l41 -96q-160 -59 -334 -66l-6 -37q78 0 123 -43t45 -100q0 -170 -198 -170 q-59 0 -195 18l33 88q129 -16 151 -16q45 0 78 18.5t33 56.5t-36 56.5t-150 18.5l30 112q-285 16 -415.5 225.5t-130.5 557.5z" />
<glyph unicode="&#xc8;" horiz-adv-x="1185" d="M231 0v1497h797v-86h-690v-594h641v-86h-641v-645h711v-86h-818zM426 1849h125l221 -270h-90z" />
<glyph unicode="&#xc9;" horiz-adv-x="1185" d="M231 0v1497h797v-86h-690v-594h641v-86h-641v-645h711v-86h-818zM532 1567l222 270h125l-256 -270h-91z" />
<glyph unicode="&#xca;" horiz-adv-x="1185" d="M231 0v1497h797v-86h-690v-594h641v-86h-641v-645h711v-86h-818zM393 1589l195 248h110l191 -248h-92l-154 172l-158 -172h-92z" />
<glyph unicode="&#xcb;" horiz-adv-x="1185" d="M231 0v1497h797v-86h-690v-594h641v-86h-641v-645h711v-86h-818zM408 1610v147h108v-147h-108zM748 1610v147h108v-147h-108z" />
<glyph unicode="&#xcc;" horiz-adv-x="512" d="M86 1872h123l223 -270h-90zM209 0v1497h106v-1497h-106z" />
<glyph unicode="&#xcd;" horiz-adv-x="512" d="M88 1602l221 270h125l-256 -270h-90zM203 0v1497h106v-1497h-106z" />
<glyph unicode="&#xce;" horiz-adv-x="512" d="M10 1624l193 248h112l189 -248h-92l-152 172l-158 -172h-92zM203 0v1497h106v-1497h-106z" />
<glyph unicode="&#xcf;" horiz-adv-x="512" d="M33 1610v147h108v-147h-108zM207 0v1497h106v-1497h-106zM373 1610v147h108v-147h-108z" />
<glyph unicode="&#xd0;" horiz-adv-x="1398" d="M68 807v86h163v604h304q397 0 555.5 -168t158.5 -575q0 -403 -164.5 -578.5t-549.5 -175.5h-304v807h-163zM338 86h217q303 0 443.5 168t140.5 498q0 358 -130 508.5t-474 150.5h-197v-518h405v-86h-405v-721z" />
<glyph unicode="&#xd1;" horiz-adv-x="1497" d="M231 0v1497h144l788 -1372v1372h103v-1497h-148l-794 1372v-1372h-93zM424 1618q37 84 75 113.5t109 29.5q35 0 106.5 -37.5t102.5 -37.5q66 0 94 90l82 -35q-49 -137 -172 -137q-33 0 -105.5 42t-109.5 42q-74 0 -102 -105z" />
<glyph unicode="&#xd2;" horiz-adv-x="1519" d="M150 743q0 358 146 567.5t470 209.5q172 0 292 -57.5t187.5 -166t96 -242.5t28.5 -311q0 -362 -143.5 -571t-462.5 -209q-334 0 -474 206.5t-140 573.5zM262 743q0 -324 111.5 -509t390.5 -185q143 0 243.5 52.5t153.5 150.5t76 217t23 274q0 330 -110 511.5t-386 181.5 q-145 0 -246.5 -51.5t-156 -148.5t-77 -216t-22.5 -277zM541 1849h125l223 -270h-90z" />
<glyph unicode="&#xd3;" horiz-adv-x="1519" d="M150 743q0 358 146 567.5t470 209.5q172 0 292 -57.5t187.5 -166t96 -242.5t28.5 -311q0 -362 -143.5 -571t-462.5 -209q-334 0 -474 206.5t-140 573.5zM262 743q0 -324 111.5 -509t390.5 -185q143 0 243.5 52.5t153.5 150.5t76 217t23 274q0 330 -110 511.5t-386 181.5 q-145 0 -246.5 -51.5t-156 -148.5t-77 -216t-22.5 -277zM672 1567l221 270h125l-256 -270h-90z" />
<glyph unicode="&#xd4;" horiz-adv-x="1519" d="M150 743q0 358 146 567.5t470 209.5q172 0 292 -57.5t187.5 -166t96 -242.5t28.5 -311q0 -362 -143.5 -571t-462.5 -209q-334 0 -474 206.5t-140 573.5zM262 743q0 -324 111.5 -509t390.5 -185q143 0 243.5 52.5t153.5 150.5t76 217t23 274q0 330 -110 511.5t-386 181.5 q-145 0 -246.5 -51.5t-156 -148.5t-77 -216t-22.5 -277zM520 1589l195 248h110l191 -248h-92l-154 172l-158 -172h-92z" />
<glyph unicode="&#xd5;" horiz-adv-x="1519" d="M150 743q0 358 146 567.5t470 209.5q172 0 292 -57.5t187.5 -166t96 -242.5t28.5 -311q0 -362 -143.5 -571t-462.5 -209q-334 0 -474 206.5t-140 573.5zM262 743q0 -324 111.5 -509t390.5 -185q143 0 243.5 52.5t153.5 150.5t76 217t23 274q0 330 -110 511.5t-386 181.5 q-145 0 -246.5 -51.5t-156 -148.5t-77 -216t-22.5 -277zM469 1618q37 84 76 113.5t110 29.5q35 0 107 -37.5t100 -37.5q66 0 96 90l80 -35q-47 -137 -170 -137q-33 0 -105.5 42t-109.5 42q-76 0 -102 -105z" />
<glyph unicode="&#xd6;" horiz-adv-x="1519" d="M150 743q0 358 146 567.5t470 209.5q172 0 292 -57.5t187.5 -166t96 -242.5t28.5 -311q0 -362 -143.5 -571t-462.5 -209q-334 0 -474 206.5t-140 573.5zM262 743q0 -324 111.5 -509t390.5 -185q143 0 243.5 52.5t153.5 150.5t76 217t23 274q0 330 -110 511.5t-386 181.5 q-145 0 -246.5 -51.5t-156 -148.5t-77 -216t-22.5 -277zM539 1610v147h108v-147h-108zM879 1610v147h110v-147h-110z" />
<glyph unicode="&#xd7;" d="M119 147l344 345l-344 342l74 73l342 -344l342 344l73 -73l-344 -342l344 -345l-73 -73l-342 346l-342 -346z" />
<glyph unicode="&#xd8;" horiz-adv-x="1519" d="M37 -2l209 246q-96 182 -96 499q0 358 146 567.5t470 209.5q274 0 428 -160l188 223l72 -67l-201 -234q117 -190 117 -539q0 -362 -143.5 -571t-462.5 -209q-313 0 -463 195l-192 -228zM262 743q0 -256 60 -409l806 950q-119 152 -364 152q-145 0 -246.5 -51.5 t-156 -148.5t-77 -216t-22.5 -277zM371 238q123 -188 393 -189q143 0 243.5 52.5t153.5 150.5t76 217t23 274q0 293 -78 453z" />
<glyph unicode="&#xd9;" horiz-adv-x="1515" d="M231 553v944h107v-922q0 -301 96 -413.5t338 -112.5q223 0 314.5 119t91.5 407v922h106v-948q0 -301 -123 -443.5t-389 -142.5q-291 0 -416 141.5t-125 448.5zM565 1849h125l221 -270h-90z" />
<glyph unicode="&#xda;" horiz-adv-x="1515" d="M231 553v944h107v-922q0 -301 96 -413.5t338 -112.5q223 0 314.5 119t91.5 407v922h106v-948q0 -301 -123 -443.5t-389 -142.5q-291 0 -416 141.5t-125 448.5zM610 1573l224 272h124l-258 -272h-90z" />
<glyph unicode="&#xdb;" horiz-adv-x="1515" d="M231 553v944h107v-922q0 -301 96 -413.5t338 -112.5q223 0 314.5 119t91.5 407v922h106v-948q0 -301 -123 -443.5t-389 -142.5q-291 0 -416 141.5t-125 448.5zM502 1589l194 248h111l190 -248h-92l-153 172l-158 -172h-92z" />
<glyph unicode="&#xdc;" horiz-adv-x="1515" d="M231 553v944h107v-922q0 -301 96 -413.5t338 -112.5q223 0 314.5 119t91.5 407v922h106v-948q0 -301 -123 -443.5t-389 -142.5q-291 0 -416 141.5t-125 448.5zM547 1610v147h108v-147h-108zM887 1610v147h108v-147h-108z" />
<glyph unicode="&#xdd;" horiz-adv-x="1230" d="M39 1497h121l475 -729l450 729h107l-510 -823v-674h-107v664zM516 1602l221 270h125l-256 -270h-90z" />
<glyph unicode="&#xde;" d="M166 0v1501h106v-289h181q236 0 370.5 -100t134.5 -315q0 -229 -146 -334t-382 -105h-158v-358h-106zM272 457h144q88 0 156.5 12t137 46t105.5 105.5t37 176.5q0 326 -385 325h-195v-665z" />
<glyph unicode="&#xdf;" horiz-adv-x="1091" d="M166 0v1090q0 227 71.5 328.5t260.5 101.5q147 0 241.5 -84t94.5 -232q0 -53 -28 -109.5t-55.5 -92t-84 -82t-69.5 -55.5t-56 -36q59 -27 95 -43t108.5 -62t115.5 -93t79 -126t36 -169q0 -106 -30 -184t-76 -123t-115.5 -72t-136 -35t-150.5 -8l27 84q82 0 144 12.5 t122.5 47t92.5 105t32 177.5q0 90 -48.5 170t-121 133t-138 87t-124.5 50v80q285 184 284 350q0 123 -73.5 178.5t-165.5 55.5q-135 0 -185.5 -70.5t-50.5 -257.5v-1116h-96z" />
<glyph unicode="&#xe0;" horiz-adv-x="1056" d="M113 279q0 174 121.5 263t439.5 89h108v98q0 274 -243 275q-160 0 -344 -91l-35 84q215 84 377 84q160 0 250 -86t90 -254v-417q0 -55 28 -324h-76q0 12 -17 63.5t-21 71.5q-41 -70 -122 -114t-186 -44q-152 0 -261 76t-109 226zM215 281q0 -104 69.5 -166t198.5 -62 q102 0 182 46t119 122v332h-77q-276 0 -384 -62.5t-108 -209.5zM246 1497h125l221 -270h-90z" />
<glyph unicode="&#xe1;" horiz-adv-x="1056" d="M113 279q0 174 121.5 263t439.5 89h108v98q0 274 -243 275q-160 0 -344 -91l-35 84q215 84 377 84q160 0 250 -86t90 -254v-417q0 -55 28 -324h-76q0 12 -17 63.5t-21 71.5q-41 -70 -122 -114t-186 -44q-152 0 -261 76t-109 226zM215 281q0 -104 69.5 -166t198.5 -62 q102 0 182 46t119 122v332h-77q-276 0 -384 -62.5t-108 -209.5zM406 1227l221 270h125l-256 -270h-90z" />
<glyph unicode="&#xe2;" horiz-adv-x="1056" d="M113 279q0 174 121.5 263t439.5 89h108v98q0 274 -243 275q-160 0 -344 -91l-35 84q215 84 377 84q160 0 250 -86t90 -254v-417q0 -55 28 -324h-76q0 12 -17 63.5t-21 71.5q-41 -70 -122 -114t-186 -44q-152 0 -261 76t-109 226zM215 281q0 -104 69.5 -166t198.5 -62 q102 0 182 46t119 122v332h-77q-276 0 -384 -62.5t-108 -209.5zM252 1249l194 248h111l191 -248h-93l-153 172l-158 -172h-92z" />
<glyph unicode="&#xe3;" horiz-adv-x="1056" d="M113 279q0 174 121.5 263t439.5 89h108v98q0 274 -243 275q-160 0 -344 -91l-35 84q215 84 377 84q160 0 250 -86t90 -254v-417q0 -55 28 -324h-76q0 12 -17 63.5t-21 71.5q-41 -70 -122 -114t-186 -44q-152 0 -261 76t-109 226zM211 1292q37 82 75 113t109 31 q35 0 106.5 -39t102.5 -39q66 0 94 90l82 -35q-49 -135 -172 -135q-33 0 -105.5 41t-109.5 41q-74 0 -102 -103zM215 281q0 -104 69.5 -166t198.5 -62q102 0 182 46t119 122v332h-77q-276 0 -384 -62.5t-108 -209.5z" />
<glyph unicode="&#xe4;" horiz-adv-x="1056" d="M113 279q0 174 121.5 263t439.5 89h108v98q0 274 -243 275q-160 0 -344 -91l-35 84q215 84 377 84q160 0 250 -86t90 -254v-417q0 -55 28 -324h-76q0 12 -17 63.5t-21 71.5q-41 -70 -122 -114t-186 -44q-152 0 -261 76t-109 226zM215 281q0 -104 69.5 -166t198.5 -62 q102 0 182 46t119 122v332h-77q-276 0 -384 -62.5t-108 -209.5zM299 1274v153h111v-153h-111zM643 1274v153h109v-153h-109z" />
<glyph unicode="&#xe5;" horiz-adv-x="1056" d="M113 279q0 174 121.5 263t439.5 89h108v98q0 274 -243 275q-160 0 -344 -91l-35 84q215 84 377 84q160 0 250 -86t90 -254v-417q0 -55 28 -324h-76q0 12 -17 63.5t-21 71.5q-41 -70 -122 -114t-186 -44q-152 0 -261 76t-109 226zM215 281q0 -104 69.5 -166t198.5 -62 q102 0 182 46t119 122v332h-77q-276 0 -384 -62.5t-108 -209.5zM317 1363q0 79 55.5 134t136.5 55t136 -54t55 -134t-55 -135t-135 -55t-136.5 55t-56.5 134zM389 1366q0 -45 35 -83t86 -38q57 0 87 35t30 86t-32 85t-85 34q-51 0 -86 -37t-35 -82z" />
<glyph unicode="&#xe6;" horiz-adv-x="1732" d="M113 279q0 174 121.5 263t439.5 89h117v98q0 274 -252 275q-160 0 -344 -91l-35 84q215 84 377 84q260 0 321 -209q100 209 336 209q238 0 330 -152.5t92 -422.5h-731q0 -453 336 -453q145 0 313 90l29 -86q-170 -80 -363 -80q-250 0 -348 218q-70 -111 -156 -164.5 t-213 -53.5q-156 0 -263 74t-107 228zM215 281q0 -104 68.5 -166t199.5 -62q98 0 183.5 53.5t124.5 131.5v315h-84q-276 0 -384 -62.5t-108 -209.5zM883 584h637q0 213 -76 316.5t-248 103.5q-147 0 -225 -110.5t-88 -309.5z" />
<glyph unicode="&#xe7;" horiz-adv-x="935" d="M113 520q0 262 112.5 407.5t331.5 145.5q125 0 246 -47v-102q-104 78 -246 77q-182 0 -264 -130t-82 -351q0 -201 85 -333t259 -132q127 0 256 82v-108q-106 -39 -217 -49l-10 -54q78 0 123 -45t45 -98q0 -70 -48.5 -117t-150.5 -47q-94 0 -195 12v86q129 -16 183 -16 q47 0 81.5 21.5t34.5 56.5q0 37 -37.5 56.5t-152.5 19.5l35 125q-188 18 -288.5 162.5t-100.5 377.5z" />
<glyph unicode="&#xe8;" horiz-adv-x="1064" d="M113 518q0 100 21.5 192.5t66.5 179.5t129 139t200 52q125 0 209 -44t128 -128t61.5 -179t17.5 -224h-729q0 -453 336 -453q147 0 326 94l28 -84q-178 -86 -372 -86q-217 0 -319.5 150.5t-102.5 390.5zM215 584h639q0 213 -77 316.5t-247 103.5q-150 0 -226.5 -110.5 t-88.5 -309.5zM285 1497h125l221 -270h-90z" />
<glyph unicode="&#xe9;" horiz-adv-x="1064" d="M113 518q0 100 21.5 192.5t66.5 179.5t129 139t200 52q125 0 209 -44t128 -128t61.5 -179t17.5 -224h-729q0 -453 336 -453q147 0 326 94l28 -84q-178 -86 -372 -86q-217 0 -319.5 150.5t-102.5 390.5zM215 584h639q0 213 -77 316.5t-247 103.5q-150 0 -226.5 -110.5 t-88.5 -309.5zM369 1227l221 270h125l-256 -270h-90z" />
<glyph unicode="&#xea;" horiz-adv-x="1064" d="M113 518q0 100 21.5 192.5t66.5 179.5t129 139t200 52q125 0 209 -44t128 -128t61.5 -179t17.5 -224h-729q0 -453 336 -453q147 0 326 94l28 -84q-178 -86 -372 -86q-217 0 -319.5 150.5t-102.5 390.5zM215 584h639q0 213 -77 316.5t-247 103.5q-150 0 -226.5 -110.5 t-88.5 -309.5zM270 1249l195 248h110l191 -248h-92l-154 172l-158 -172h-92z" />
<glyph unicode="&#xeb;" horiz-adv-x="1064" d="M113 518q0 100 21.5 192.5t66.5 179.5t129 139t200 52q125 0 209 -44t128 -128t61.5 -179t17.5 -224h-729q0 -453 336 -453q147 0 326 94l28 -84q-178 -86 -372 -86q-217 0 -319.5 150.5t-102.5 390.5zM215 584h639q0 213 -77 316.5t-247 103.5q-150 0 -226.5 -110.5 t-88.5 -309.5zM317 1305v147h109v-147h-109zM657 1305v147h109v-147h-109z" />
<glyph unicode="&#xec;" horiz-adv-x="434" d="M41 1497h125l223 -270h-90zM172 0v1057h94v-1057h-94z" />
<glyph unicode="&#xed;" horiz-adv-x="434" d="M47 1227l221 270h125l-256 -270h-90zM172 0v1057h94v-1057h-94z" />
<glyph unicode="&#xee;" horiz-adv-x="434" d="M-31 1249l195 248h110l191 -248h-92l-154 172l-156 -172h-94zM166 0v1057h96v-1057h-96z" />
<glyph unicode="&#xef;" horiz-adv-x="434" d="M-6 1329v146h108v-146h-108zM174 0v1057h94v-1057h-94zM334 1329v146h108v-146h-108z" />
<glyph unicode="&#xf0;" d="M102 453q0 209 107.5 334.5t304.5 125.5q117 0 207 -73.5t141 -188.5q0 473 -262 660l-211 -142l-90 54l211 141q-102 47 -238 76l-45 106q225 -45 367 -125l192 129l91 -53l-197 -131q281 -213 281 -711q0 -143 -17.5 -254.5t-63.5 -215t-139.5 -161t-226.5 -57.5 q-190 0 -301 143.5t-111 342.5zM213 453q0 -180 81 -291t218 -111q170 0 250 118t80 400q-16 39 -38 77t-60.5 84t-100 73.5t-133.5 27.5q-297 1 -297 -378z" />
<glyph unicode="&#xf1;" horiz-adv-x="1083" d="M147 1057h78l29 -166l16 20q16 25 23.5 32t27 29.5t35 33t41 28t49 25.5t56.5 15t67 7q350 0 351 -415v-666h-97v647q0 82 -10 139.5t-36.5 109.5t-82 80t-139.5 28q-104 0 -184 -75t-109 -161v-768h-96v834q0 49 -8.5 118.5t-10.5 104.5zM274 1292q39 82 77 113t110 31 q35 0 106.5 -39t102.5 -39q63 0 94 90l80 -35q-47 -135 -170 -135q-33 0 -105.5 41t-109.5 41q-74 0 -103 -103z" />
<glyph unicode="&#xf2;" horiz-adv-x="1103" d="M113 535q0 158 37.5 273.5t139 194t263.5 78.5q438 0 438 -546q0 -557 -438 -558q-440 1 -440 558zM215 535q0 -481 338 -482q193 0 264.5 128t71.5 354q0 104 -15.5 184t-51.5 146.5t-103.5 102.5t-165.5 36q-178 0 -258 -128t-80 -341zM336 1497h125l221 -270h-90z" />
<glyph unicode="&#xf3;" horiz-adv-x="1103" d="M113 535q0 158 37.5 273.5t139 194t263.5 78.5q438 0 438 -546q0 -557 -438 -558q-440 1 -440 558zM215 535q0 -481 338 -482q193 0 264.5 128t71.5 354q0 104 -15.5 184t-51.5 146.5t-103.5 102.5t-165.5 36q-178 0 -258 -128t-80 -341zM395 1227l223 270h125l-258 -270 h-90z" />
<glyph unicode="&#xf4;" horiz-adv-x="1103" d="M113 535q0 158 37.5 273.5t139 194t263.5 78.5q438 0 438 -546q0 -557 -438 -558q-440 1 -440 558zM215 535q0 -481 338 -482q193 0 264.5 128t71.5 354q0 104 -15.5 184t-51.5 146.5t-103.5 102.5t-165.5 36q-178 0 -258 -128t-80 -341zM307 1249l195 248h110l191 -248 h-92l-154 172l-158 -172h-92z" />
<glyph unicode="&#xf5;" horiz-adv-x="1103" d="M113 535q0 158 37.5 273.5t139 194t263.5 78.5q438 0 438 -546q0 -557 -438 -558q-440 1 -440 558zM215 535q0 -481 338 -482q193 0 264.5 128t71.5 354q0 104 -15.5 184t-51.5 146.5t-103.5 102.5t-165.5 36q-178 0 -258 -128t-80 -341zM238 1292q37 82 75.5 113 t110.5 31q35 0 106.5 -39t100.5 -39q66 0 96 90l80 -35q-47 -135 -170 -135q-33 0 -105.5 41t-109.5 41q-74 0 -103 -103z" />
<glyph unicode="&#xf6;" horiz-adv-x="1103" d="M113 535q0 158 37.5 273.5t139 194t263.5 78.5q438 0 438 -546q0 -557 -438 -558q-440 1 -440 558zM215 535q0 -481 338 -482q193 0 264.5 128t71.5 354q0 104 -15.5 184t-51.5 146.5t-103.5 102.5t-165.5 36q-178 0 -258 -128t-80 -341zM315 1305v147h109v-147h-109z M655 1305v147h109v-147h-109z" />
<glyph unicode="&#xf7;" d="M70 453v100h925v-100h-925zM469 47v160h131v-160h-131zM469 840v159h131v-159h-131z" />
<glyph unicode="&#xf8;" horiz-adv-x="1103" d="M29 20l153 162q-70 139 -69 353q0 158 37.5 273.5t139 194t263.5 78.5q223 0 332 -141l137 150l76 -70l-160 -170q53 -127 53 -315q0 -557 -438 -558q-199 0 -311 119l-140 -145zM215 535q0 -164 39 -275l565 610q-82 133 -266 134q-178 0 -258 -128t-80 -341zM303 164 q82 -111 250 -111q193 0 264.5 128t71.5 354q0 139 -27 233z" />
<glyph unicode="&#xf9;" horiz-adv-x="1069" d="M166 391v666h96v-647q0 -168 53.5 -262.5t206.5 -94.5q104 0 180 74t105 162v768h96v-832q0 -49 8.5 -119.5t10.5 -105.5h-78l-29 166q-2 -2 -23.5 -31t-32.5 -41t-40 -38.5t-56.5 -41t-71.5 -26t-93 -11.5q-332 0 -332 414zM322 1497h124l224 -270h-92z" />
<glyph unicode="&#xfa;" horiz-adv-x="1069" d="M166 391v666h96v-647q0 -168 53.5 -262.5t206.5 -94.5q104 0 180 74t105 162v768h96v-832q0 -49 8.5 -119.5t10.5 -105.5h-78l-29 166q-2 -2 -23.5 -31t-32.5 -41t-40 -38.5t-56.5 -41t-71.5 -26t-93 -11.5q-332 0 -332 414zM377 1227l223 270h125l-258 -270h-90z" />
<glyph unicode="&#xfb;" horiz-adv-x="1069" d="M166 391v666h96v-647q0 -168 53.5 -262.5t206.5 -94.5q104 0 180 74t105 162v768h96v-832q0 -49 8.5 -119.5t10.5 -105.5h-78l-29 166q-2 -2 -23.5 -31t-32.5 -41t-40 -38.5t-56.5 -41t-71.5 -26t-93 -11.5q-332 0 -332 414zM295 1249l192 248h113l188 -248h-92l-151 172 l-158 -172h-92z" />
<glyph unicode="&#xfc;" horiz-adv-x="1069" d="M166 391v666h96v-647q0 -168 53.5 -262.5t206.5 -94.5q104 0 180 74t105 162v768h96v-832q0 -49 8.5 -119.5t10.5 -105.5h-78l-29 166q-2 -2 -23.5 -31t-32.5 -41t-40 -38.5t-56.5 -41t-71.5 -26t-93 -11.5q-332 0 -332 414zM309 1305v147h111v-147h-111zM651 1305v147 h109v-147h-109z" />
<glyph unicode="&#xfd;" horiz-adv-x="1073" d="M96 1057l103 4l370 -907l316 903h92l-442 -1225q-43 -119 -99.5 -172t-183.5 -100l-27 88q164 45 203 151l92 244zM406 1227l221 270h125l-256 -270h-90z" />
<glyph unicode="&#xfe;" horiz-adv-x="1089" d="M147 -416q18 178 19 740v1196h96v-629q39 72 125 131t191 59q205 0 302 -152.5t97 -393.5q0 -248 -98.5 -403t-311.5 -155q-92 0 -179 46.5t-134 111.5l-29 -551h-78zM256 229q111 -176 289 -176q330 0 329 477q0 240 -80.5 357t-222.5 117q-72 0 -131 -28t-96 -73 t-56.5 -75.5t-31.5 -61.5v-537z" />
<glyph unicode="&#xff;" horiz-adv-x="1073" d="M96 1057l103 4l370 -907l316 903h92l-442 -1225q-43 -119 -99.5 -172t-183.5 -100l-27 88q164 45 203 151l92 244zM324 1307v145h106v-145h-106zM659 1307v145h107v-145h-107z" />
<glyph unicode="&#x152;" horiz-adv-x="2074" d="M150 743q0 358 146 567.5t470 209.5q104 0 188 -23h963v-86h-793q201 -154 217 -594h527v-86h-522q0 -467 -213 -645h804v-86h-948q-106 -37 -225 -37q-334 0 -474 206.5t-140 573.5zM262 743q0 -324 111.5 -509t390.5 -185q141 0 235.5 52.5t145.5 151.5t70.5 216 t19.5 274q0 127 -11.5 225.5t-42 188.5t-82.5 149.5t-137 94.5t-198 35q-145 0 -246.5 -51.5t-156 -148.5t-77 -216t-22.5 -277z" />
<glyph unicode="&#x153;" horiz-adv-x="1837" d="M113 535q0 158 37.5 273.5t139 194t263.5 78.5q307 0 389 -278q88 279 356 278q238 0 330 -152.5t92 -422.5h-731q0 -453 334 -453q147 0 315 90l29 -86q-170 -80 -362 -80q-283 0 -367 273q-82 -272 -385 -273q-440 1 -440 558zM215 535q0 -481 338 -482 q193 0 264.5 128t71.5 354q0 104 -15.5 184t-51.5 146.5t-103.5 102.5t-165.5 36q-178 0 -258 -128t-80 -341zM985 584h639q0 213 -75.5 316.5t-248.5 103.5q-147 0 -225 -110.5t-90 -309.5z" />
<glyph unicode="&#x178;" horiz-adv-x="1230" d="M39 1497h121l475 -729l450 729h107l-510 -823v-674h-107v664zM414 1657v145h108v-145h-108zM754 1657v145h108v-145h-108z" />
<glyph unicode="&#x2c6;" horiz-adv-x="434" d="M-31 1249l195 248h110l191 -248h-92l-154 172l-156 -172h-94z" />
<glyph unicode="&#x2dc;" horiz-adv-x="434" d="M-68 1292q37 82 76 113t111 31q35 0 106.5 -39t100.5 -39q66 0 96 90l80 -35q-49 -135 -170 -135q-33 0 -105.5 41t-111.5 41q-74 0 -101 -103z" />
<glyph unicode="&#x2000;" horiz-adv-x="966" />
<glyph unicode="&#x2001;" horiz-adv-x="1933" />
<glyph unicode="&#x2002;" horiz-adv-x="966" />
<glyph unicode="&#x2003;" horiz-adv-x="1933" />
<glyph unicode="&#x2004;" horiz-adv-x="643" />
<glyph unicode="&#x2005;" horiz-adv-x="483" />
<glyph unicode="&#x2006;" horiz-adv-x="321" />
<glyph unicode="&#x2007;" horiz-adv-x="321" />
<glyph unicode="&#x2008;" horiz-adv-x="241" />
<glyph unicode="&#x2009;" horiz-adv-x="385" />
<glyph unicode="&#x200a;" horiz-adv-x="106" />
<glyph unicode="&#x2010;" horiz-adv-x="727" d="M70 537v92h589v-92h-589z" />
<glyph unicode="&#x2011;" horiz-adv-x="727" d="M70 537v92h589v-92h-589z" />
<glyph unicode="&#x2012;" horiz-adv-x="727" d="M70 537v92h589v-92h-589z" />
<glyph unicode="&#x2013;" horiz-adv-x="1157" d="M-2 504v102h1161v-102h-1161z" />
<glyph unicode="&#x2014;" horiz-adv-x="2314" d="M-2 504v102h2318v-102h-2318z" />
<glyph unicode="&#x2018;" horiz-adv-x="530" d="M104 1065l230 434h82l-197 -434h-115z" />
<glyph unicode="&#x2019;" horiz-adv-x="530" d="M115 1063l192 434h121l-225 -434h-88z" />
<glyph unicode="&#x201a;" horiz-adv-x="530" d="M115 -203l192 434h121l-225 -434h-88z" />
<glyph unicode="&#x201c;" horiz-adv-x="786" d="M92 1065l230 434h84l-197 -434h-117zM381 1065l227 434h86l-196 -434h-117z" />
<glyph unicode="&#x201d;" horiz-adv-x="786" d="M92 1063l197 434h117l-228 -434h-86zM377 1063l196 434h121l-229 -434h-88z" />
<glyph unicode="&#x201e;" horiz-adv-x="786" d="M92 -203l197 434h117l-228 -434h-86zM377 -203l196 434h121l-229 -434h-88z" />
<glyph unicode="&#x2022;" d="M256 750.5q0 115.5 80 195.5t195.5 80t195.5 -80t80 -195.5t-80 -196.5t-195.5 -81t-195.5 81t-80 196.5z" />
<glyph unicode="&#x2026;" horiz-adv-x="1595" d="M201 0v160h131v-160h-131zM733 0v160h129v-160h-129zM1266 0v160h129v-160h-129z" />
<glyph unicode="&#x202f;" horiz-adv-x="385" />
<glyph unicode="&#x2039;" horiz-adv-x="530" d="M96 625l217 422h101l-224 -418l222 -416h-99z" />
<glyph unicode="&#x203a;" horiz-adv-x="530" d="M119 1047h100l215 -422l-215 -412h-98l221 416z" />
<glyph unicode="&#x205f;" horiz-adv-x="483" />
<glyph unicode="&#x2122;" horiz-adv-x="2058" d="M209 1436v61h612v-61h-270v-762h-74v762h-268zM942 676v821h94l330 -721l328 721h88v-821h-70v745l-334 -745h-32l-338 745v-745h-66z" />
<glyph unicode="&#xe000;" horiz-adv-x="1055" d="M0 1055h1055v-1055h-1055v1055z" />
<glyph unicode="&#xfb01;" horiz-adv-x="923" d="M39 981v76h160v157q0 266 286 324l29 -84q-123 -27 -171 -76t-48 -155v-166h192v-76h-192v-981h-96v981h-160zM655 1339v158h109v-158h-109zM662 0v1057h96v-1057h-96z" />
<glyph unicode="&#xfb02;" horiz-adv-x="923" d="M39 981v76h160v157q0 266 286 324l29 -84q-123 -27 -171 -76t-48 -155v-166h192v-76h-192v-981h-96v981h-160zM664 0v1520h96v-1520h-96z" />
<glyph unicode="&#xfb03;" horiz-adv-x="1521" d="M1249 1339v158h110v-158h-110zM1259 0v1057h94v-1057h-94zM580 981v76h176v149q0 158 90 247t266 101l23 -81q-168 -16 -226.5 -80t-58.5 -181v-155h217v-76h-217v-981h-94v981h-176zM35 981v76h176v149q0 158 90 247t266 101l23 -81q-168 -16 -226.5 -80t-58.5 -181 v-155h217v-76h-217v-981h-94v981h-176z" />
<glyph unicode="&#xfb04;" horiz-adv-x="1515" d="M1253 0v1520h96v-1520h-96zM580 981v76h176v149q0 158 90 247t266 101l23 -81q-168 -16 -226.5 -80t-58.5 -181v-155h217v-76h-217v-981h-94v981h-176zM35 981v76h176v149q0 158 90 247t266 101l23 -81q-168 -16 -226.5 -80t-58.5 -181v-155h217v-76h-217v-981h-94v981 h-176z" />
<glyph horiz-adv-x="530" />
</font>
</defs>
</svg>
