<?xml version="1.0" standalone="no"?>
<!DOCTYPE svg PUBLIC "-//W3C//DTD SVG 1.1//EN" "http://www.w3.org/Graphics/SVG/1.1/DTD/svg11.dtd" >
<svg xmlns="http://www.w3.org/2000/svg">
<metadata>
This is a custom SVG webfont generated by Font Squirrel.
Copyright   : Copyright c 2003 by This Font is designed by Ralph Oliver du Carrois All rights reserved
Foundry     : This Font is designed by Ralph Oliver du Carrois
</metadata>
<defs>
<font id="ColaborateBoldRegular" horiz-adv-x="1308" >
<font-face units-per-em="2048" ascent="1638" descent="-410" />
<missing-glyph horiz-adv-x="653" />
<glyph unicode=" "  horiz-adv-x="653" />
<glyph unicode="&#x09;" horiz-adv-x="653" />
<glyph unicode="&#xa0;" horiz-adv-x="653" />
<glyph unicode="!" horiz-adv-x="653" d="M164 0v285h323v-285h-323zM172 434v1063h311v-1063h-311z" />
<glyph unicode="&#x22;" horiz-adv-x="653" d="M168 1497h272l-18 -502h-234zM535 1497h266l-19 -502h-229z" />
<glyph unicode="#" d="M41 373v213h254l49 307h-213v213h256l66 391h256l-68 -391h156l65 391h256l-67 -391h219v-213h-260l-52 -307h222v-213h-260l-66 -373h-254l64 373h-152l-68 -373h-254l64 373h-213zM549 586h151l54 307h-152z" />
<glyph unicode="$" d="M82 1108q0 178 123 282.5t313 133.5v202h240v-198q215 -18 350 -66l-107 -293q-162 70 -243 84v-366q90 -35 152.5 -69t128 -90t100.5 -141t35 -198q0 -205 -108 -300t-308 -122v-194h-240v180q-162 4 -426 76l107 293q18 -6 73.5 -29t86 -33t76.5 -21.5t83 -13.5v410 q-80 31 -127 52.5t-113.5 62.5t-103.5 87t-64.5 115.5t-27.5 155.5zM426 1108q0 -72 100 -127v262q-100 -33 -100 -135zM750 252q80 37 79 133q0 72 -79 137v-270z" />
<glyph unicode="%" horiz-adv-x="2025" d="M88 1133q0 397 354 397q186 0 271.5 -97.5t85.5 -299.5q0 -209 -86 -313.5t-273 -104.5q-186 0 -269 104.5t-83 313.5zM309 1133q0 -150 24.5 -204.5t106.5 -54.5q76 0 104.5 61.5t28.5 197.5q0 135 -27.5 186t-103.5 51q-82 0 -107.5 -55t-25.5 -182zM453 0l839 1456 h264l-839 -1456h-264zM1233 385q0 397 354 397q188 0 270 -97t82 -300q0 -209 -82.5 -313.5t-271.5 -104.5q-184 0 -268 104.5t-84 313.5zM1456 385q0 -150 23.5 -204t105.5 -54q76 0 105.5 61.5t29.5 196.5t-28.5 186.5t-104.5 51.5q-80 0 -105.5 -55.5t-25.5 -182.5z" />
<glyph unicode="&#x26;" d="M106 428q0 301 238 426q-2 2 -27.5 21.5t-36 28.5t-35 33t-36.5 42t-27.5 46t-21.5 58.5t-6 61.5q0 172 111.5 281.5t338.5 109.5q215 0 333 -100.5t118 -288.5q0 -193 -430 -379q-113 -49 -154 -129t-41 -207q0 -233 201 -233q20 0 36.5 4t30 8t29.5 15.5t24.5 17.5 t26 22.5t22.5 23.5t23.5 27.5t24.5 24.5v133h-186v221h499v-372q0 -57 23.5 -183.5t23.5 -140.5h-301l-41 94q-37 -47 -125 -90t-147 -43q-92 0 -172 21.5t-154.5 70.5t-118 145.5t-43.5 229.5zM465 1147q0 -20 6 -41t18.5 -39t21.5 -29.5t26.5 -30t21.5 -24.5 q57 27 89 45.5t62.5 52t30.5 70.5q0 147 -141 147q-70 0 -102.5 -42.5t-32.5 -108.5z" />
<glyph unicode="'" horiz-adv-x="653" d="M193 1497h270l-19 -502h-233z" />
<glyph unicode="(" horiz-adv-x="774" d="M125 588q0 301 52 488.5t181 420.5h289q-121 -223 -165 -417.5t-44 -491.5q0 -260 44 -450.5t177 -434.5h-288q-145 254 -195.5 437.5t-50.5 447.5z" />
<glyph unicode=")" horiz-adv-x="774" d="M127 -297q135 244 179 434.5t44 450.5q0 297 -44 491.5t-167 417.5h287q129 -233 181 -420.5t52 -488.5q0 -264 -50 -447.5t-195 -437.5h-287z" />
<glyph unicode="*" horiz-adv-x="1040" d="M18 1071l60 182l354 -129l25 19l-17 364h178l-14 -370l21 -15l350 127l45 -180l-354 -84l-2 -24l231 -306l-147 -104l-201 315h-29l-211 -319l-147 115l235 299l-8 24z" />
<glyph unicode="+" d="M139 403v234h387v367h258v-367h387v-234h-387v-403h-258v403h-387z" />
<glyph unicode="," horiz-adv-x="653" d="M66 -238l98 412h328l-189 -412h-237z" />
<glyph unicode="-" horiz-adv-x="837" d="M59 371v258h719v-258h-719z" />
<glyph unicode="." horiz-adv-x="653" d="M164 0v287h328v-287h-328z" />
<glyph unicode="/" horiz-adv-x="745" d="M-2 -25l494 1545h258l-486 -1545h-266z" />
<glyph unicode="0" d="M88 713q0 373 135 550t430 177q309 0 439.5 -176.5t130.5 -550.5q0 -381 -131 -567.5t-441 -186.5q-309 0 -436 184.5t-127 569.5zM440 713q0 -113 3 -179.5t14.5 -134t34 -101.5t61.5 -56.5t98 -22.5q129 0 174 120t45 374q0 262 -41 363.5t-176 101.5q-49 0 -86 -13.5 t-59.5 -46.5t-36.5 -68.5t-20.5 -96t-8.5 -109.5t-2 -131z" />
<glyph unicode="1" d="M266 1126l375 279h342v-1407h-352v1083l-260 -202z" />
<glyph unicode="2" d="M123 287q106 68 166.5 106.5t179.5 125.5t188.5 150.5t126 143.5t56.5 141q0 225 -197 226q-145 0 -369 -119l-98 285q201 63 275.5 79.5t195.5 16.5q104 0 193.5 -21.5t171.5 -72t130 -148.5t48 -237q0 -129 -104.5 -277.5t-232.5 -251t-255 -174.5h619v-260h-1000z" />
<glyph unicode="3" d="M96 20l103 285q29 -18 152.5 -52t223.5 -34q113 0 168.5 59.5t55.5 131.5q0 55 -20.5 93t-52.5 59.5t-94.5 31.5t-117.5 12t-154 2v260h43q88 0 133.5 2t98.5 10.5t74.5 26t38 48t16.5 77.5q0 72 -46 110t-132 38q-139 0 -361 -109l-102 285q72 35 224.5 60.5t252.5 25.5 q516 0 516 -406q0 -129 -93 -203.5t-228 -91.5q145 -25 250.5 -105.5t105.5 -227.5q0 -129 -53.5 -222.5t-142.5 -139.5t-184 -66.5t-202 -20.5q-291 0 -473 61z" />
<glyph unicode="4" d="M16 629l629 776h391v-776h224v-262h-224v-367h-346v367h-561zM303 629h387v471z" />
<glyph unicode="5" d="M102 16l99 285q203 -82 389 -82q84 0 138 21.5t77.5 61.5t31 76t7.5 87q0 113 -47 151.5t-133 38.5q-45 0 -82 -5t-70 -18.5t-48 -20.5t-47 -27.5t-40 -26.5l-217 82v766h975v-262h-629v-248q57 27 186 27q223 0 361.5 -114t138.5 -347.5t-177 -367.5t-427 -134 q-310 0 -486 57z" />
<glyph unicode="6" d="M104 655q0 115 20.5 224.5t71 212t123 180.5t185 124t248.5 46q184 0 356 -47l-98 -285q-131 70 -246 70q-94 0 -164 -37t-103.5 -97.5t-48 -120t-14.5 -122.5q43 80 127 110.5t144 30.5q500 0 499 -528q0 -205 -159.5 -331t-372.5 -126q-568 0 -568 696zM457 539 q0 -190 56 -255t161 -65q76 0 127 47t51 150q0 8 1 29.5t1 37.5q0 199 -178 199q-164 0 -219 -143z" />
<glyph unicode="7" d="M135 1145v258h914l106 -215l-483 -1188h-371l539 1145h-705z" />
<glyph unicode="8" d="M90 367q0 309 336 374q-143 49 -201 107q-86 78 -86 201q0 184 130 288.5t395 104.5q285 0 404.5 -95.5t119.5 -295.5q0 -76 -34 -136.5t-85 -95.5t-96 -54.5t-86 -27.5q168 -37 252 -124t84 -246q0 -221 -148.5 -314.5t-421.5 -93.5q-272 0 -417.5 92.5t-145.5 315.5z M432 375q0 -158 221 -158q223 0 224 158q0 98 -55.5 150.5t-162.5 90.5q-119 -45 -173 -92t-54 -149zM479 1034q0 -39 13.5 -68.5t46 -51t52 -31t64.5 -25.5q59 25 93 40t65 51t31 85q0 35 -3 53.5t-19.5 44t-55.5 38t-102 12.5q-115 0 -150 -38t-35 -110z" />
<glyph unicode="9" d="M109 981q0 207 164.5 334t367.5 127q139 0 241.5 -41t164 -105.5t97.5 -160t49 -186.5t13 -204q0 -117 -21.5 -225t-70.5 -210.5t-120.5 -180.5t-184.5 -124t-250 -46q-184 0 -358 45l100 285q129 -70 248 -70q94 0 163.5 38t102.5 97.5t46 120t13 123.5 q-41 -80 -125.5 -110.5t-142.5 -30.5q-497 0 -497 524zM457 920q0 -203 180 -203q92 0 140 37t77 106q0 195 -55.5 257.5t-159.5 62.5q-76 0 -128 -47.5t-52 -151.5q0 -4 -1 -26.5t-1 -34.5z" />
<glyph unicode=":" horiz-adv-x="653" d="M164 0v287h328v-287h-328zM164 760v287h328v-287h-328z" />
<glyph unicode=";" horiz-adv-x="653" d="M66 -238l100 412h326l-189 -412h-237zM166 760v287h328v-287h-328z" />
<glyph unicode="&#x3c;" d="M115 422v323l1079 322v-299l-764 -184l764 -181v-299z" />
<glyph unicode="=" d="M115 127v231h1079v-231h-1079zM115 528v232h1079v-232h-1079z" />
<glyph unicode="&#x3e;" d="M115 104v299l764 185l-764 180v299l1079 -315v-326z" />
<glyph unicode="?" horiz-adv-x="1122" d="M119 1452q74 25 212 46.5t224 21.5q70 0 123 -4.5t129 -28t124 -63.5t84 -118.5t36 -187.5q0 -78 -39 -141.5t-97.5 -108.5t-115 -85t-96 -89t-39.5 -102v-170h-310v182q0 88 37 156.5t89 110.5t105.5 78t90.5 78t37 91q0 70 -33 100.5t-125 30.5q-70 0 -204 -25.5 t-191 -54.5zM348 0v285h324v-285h-324z" />
<glyph unicode="@" horiz-adv-x="2150" d="M182 741q0 205 77 360.5t213 247t306 136.5t375 45q82 0 168 -13.5t181 -41t176 -77.5t147.5 -119t105.5 -172t39 -224q0 -172 -67.5 -294t-185.5 -183.5t-247 -88t-282 -26.5q-567 0 -567 457q0 197 118.5 317.5t384.5 120.5q174 0 279 -33v-309l29 -4l84 -224l-398 -28 v348q-18 10 -20 10h-23q-147 0 -147 -201q0 -227 231 -227h33q96 0 147.5 4t122 22.5t105.5 54.5t61.5 106.5t26.5 173.5q0 408 -502 407q-49 0 -87 -2t-109.5 -12t-128 -29.5t-121 -60.5t-108.5 -97.5t-72.5 -144.5t-28.5 -199q0 -545 657 -544h12q178 0 494 69l108 -260 q-299 -53 -610 -53q-211 0 -385 47t-308 139t-209 244.5t-75 357.5z" />
<glyph unicode="A" horiz-adv-x="1630" d="M63 0l609 1497h332l565 -1497h-389l-119 377h-496l-125 -377h-377zM662 643h307l-148 475z" />
<glyph unicode="B" horiz-adv-x="1497" d="M213 0v1497h590q504 0 504 -422q0 -113 -65.5 -187.5t-172.5 -103.5q143 -14 225 -99t82 -241q0 -238 -138 -341t-359 -103h-666zM565 270h301q59 0 105.5 44t46.5 130q0 96 -48 144.5t-130 48.5h-275v-367zM565 905h271q53 0 83.5 45t30.5 123q0 33 -7 63.5t-44 60.5 t-96 30h-238v-322z" />
<glyph unicode="C" horiz-adv-x="1366" d="M131 748q0 164 38 299t119 246.5t226 174t346 62.5q221 0 414 -64l-107 -292q-201 86 -307 86q-190 0 -277 -123t-87 -387q0 -276 80.5 -400.5t271.5 -124.5q37 0 69.5 4t70.5 15.5t60.5 19.5t67.5 28.5t66 29.5l106 -293q-209 -76 -434 -76q-723 0 -723 795z" />
<glyph unicode="D" horiz-adv-x="1607" d="M213 0v1497h549q362 0 538.5 -171t176.5 -572q0 -410 -171 -582t-544 -172h-549zM565 270h217q59 0 101.5 7.5t88.5 36t74.5 78.5t48 141.5t19.5 218.5q0 100 -13.5 176t-30.5 126t-49 85t-56.5 51t-67.5 25.5t-67.5 10.5t-67.5 1h-197v-957z" />
<glyph unicode="E" horiz-adv-x="1394" d="M213 0v1497h920v-270h-568v-318h518v-270h-518v-369h588v-270h-940z" />
<glyph unicode="F" horiz-adv-x="1247" d="M213 0v1497h920v-272h-568v-324h539v-270h-539v-631h-352z" />
<glyph unicode="G" horiz-adv-x="1509" d="M131 750q0 360 183.5 570t557.5 210q156 0 394 -64l-107 -292q-4 2 -36.5 16t-42 18t-37 14.5t-43 15.5t-39 10t-45 8.5t-42.5 3.5q-86 0 -147 -19.5t-117.5 -71t-85 -157t-28.5 -262.5q0 -276 80.5 -400.5t281.5 -124.5q86 0 124 6.5t85 34.5v293h-332v272h643v-741 q-119 -74 -234.5 -105.5t-291.5 -31.5q-721 0 -721 797z" />
<glyph unicode="H" horiz-adv-x="1650" d="M213 0v1497h352v-588h522v588h353v-1497h-353v637h-522v-637h-352z" />
<glyph unicode="I" horiz-adv-x="720" d="M184 0v1497h353v-1497h-353z" />
<glyph unicode="J" horiz-adv-x="1075" d="M29 0q14 2 62 11t68.5 14.5t63.5 16.5t64.5 21.5t57.5 29t56.5 41t44 53t36 67.5t21.5 87t9 108v1048h350v-1024q0 -111 -23.5 -203t-62.5 -160.5t-101.5 -126t-119.5 -95.5t-140 -73.5t-144.5 -56t-149.5 -45.5z" />
<glyph unicode="K" horiz-adv-x="1605" d="M213 0v1497h352v-606l500 606h397l-569 -700l684 -797h-455l-557 662v-662h-352z" />
<glyph unicode="L" horiz-adv-x="1167" d="M213 0v1497h352v-1218h592v-279h-944z" />
<glyph unicode="M" horiz-adv-x="2236" d="M213 0v1497h590l323 -1030l336 1030h568v-1497h-351v1122l-376 -1122h-377l-375 1122v-1122h-338z" />
<glyph unicode="N" horiz-adv-x="1740" d="M213 0v1497h528l441 -1081v1081h348v-1497h-533l-446 1081v-1081h-338z" />
<glyph unicode="O" horiz-adv-x="1728" d="M131 743q0 170 40 308.5t124 248t230.5 170t344.5 60.5q727 0 727 -787q0 -362 -173 -576t-556 -214q-737 -1 -737 790zM496 743q0 -299 90 -408.5t282 -109.5q188 0 276.5 122t88.5 396q0 285 -91 401t-274 116q-188 0 -280 -117t-92 -400z" />
<glyph unicode="P" horiz-adv-x="1437" d="M213 0v1497h571q545 0 545 -461q0 -473 -518 -473h-246v-563h-352zM565 834h226q76 0 129 47t53 155q0 68 -17.5 110t-52.5 58.5t-58.5 19.5t-64.5 3h-215v-393z" />
<glyph unicode="Q" horiz-adv-x="1728" d="M131 743q0 170 40 308.5t123 248t229.5 170t346.5 60.5q727 0 727 -787q0 -362 -173 -576t-556 -214q-737 -1 -737 790zM496 743q0 -299 90 -408.5t282 -109.5q188 0 276.5 122t88.5 396q0 285 -91 401t-274 116q-188 0 -280 -117t-92 -400zM754 -297l118 193l539 -52 l-117 -221z" />
<glyph unicode="R" horiz-adv-x="1550" d="M213 0v1497h606q520 0 520 -448q0 -160 -80.5 -279t-261.5 -160l457 -610h-434l-434 600h-21v-600h-352zM565 870h269q70 0 109.5 49.5t39.5 129.5q0 178 -152 178h-266v-357z" />
<glyph unicode="S" horiz-adv-x="1425" d="M143 29l107 293q260 -96 368 -97q160 0 234 31t74 129q0 66 -57.5 116t-144.5 79.5t-189.5 73.5t-188.5 93.5t-144.5 142.5t-58.5 218q0 143 95.5 241.5t225.5 139.5t279 41q221 0 418 -68l-106 -293q-14 4 -51 21.5t-57.5 27t-55.5 20.5t-72 16.5t-78 5.5 q-78 0 -131 -16.5t-73.5 -43t-28.5 -49.5t-8 -43q0 -55 58 -97t144 -66.5t188.5 -67.5t189.5 -96.5t144.5 -154t57.5 -237.5q0 -135 -53 -225t-152.5 -134t-207 -60.5t-253.5 -16.5q-203 0 -473 76z" />
<glyph unicode="T" horiz-adv-x="1236" d="M47 1225v272h1145v-272h-395v-1225h-355v1225h-395z" />
<glyph unicode="U" horiz-adv-x="1722" d="M213 553v944h352v-922q0 -111 26.5 -184.5t76 -108t98.5 -46t111 -11.5q123 0 202.5 83t79.5 267v922h352v-948q0 -295 -165.5 -445.5t-468.5 -150.5q-664 0 -664 600z" />
<glyph unicode="V" horiz-adv-x="1562" d="M63 1497h388l348 -1073l325 1073h377l-547 -1497h-327z" />
<glyph unicode="W" horiz-adv-x="2338" d="M76 1497h373l215 -1077l317 1016h444l244 -1014l248 1075h346l-377 -1497h-442l-270 975l-334 -975h-443z" />
<glyph unicode="X" horiz-adv-x="1523" d="M68 0l499 772l-440 725h405l240 -416l260 416h377l-455 -715l490 -782h-414l-276 492l-310 -492h-376z" />
<glyph unicode="Y" horiz-adv-x="1499" d="M31 1497h399l328 -522l327 522h385l-550 -823v-674h-353v664z" />
<glyph unicode="Z" horiz-adv-x="1323" d="M96 283l752 942h-666v272h957l88 -283l-746 -942h727v-272h-1024z" />
<glyph unicode="[" horiz-adv-x="741" d="M193 -295v1860h442v-219h-184v-1414h184v-227h-442z" />
<glyph unicode="\" horiz-adv-x="745" d="M-2 1520h258l494 -1545h-267z" />
<glyph unicode="]" horiz-adv-x="741" d="M141 -68h183v1409h-183v222h443v-1860h-443v229z" />
<glyph unicode="^" d="M70 623l417 874h324l428 -874h-285l-301 669l-305 -669h-278z" />
<glyph unicode="_" horiz-adv-x="1157" d="M-2 -43h1161v-242h-1161v242z" />
<glyph unicode="`" horiz-adv-x="614" d="M43 1497h307l221 -270h-209z" />
<glyph unicode="a" horiz-adv-x="1255" d="M94 279q0 397 588 397h82v35q0 37 -3 60.5t-33 50t-85 26.5q-205 0 -399 -94l-109 260q225 76 529 76q190 0 304.5 -85t114.5 -253v-428q0 -49 20.5 -168t24.5 -156h-303q-2 0 -22 53l-19 43l-22 -18q-25 -18 -30 -21.5t-28.5 -20t-35 -21.5t-34 -17t-37.5 -16.5 t-36.5 -9.5t-40.5 -5q-426 1 -426 312zM424 291q0 -80 162 -80q76 0 180 115v123h-51q-291 0 -291 -158z" />
<glyph unicode="b" horiz-adv-x="1273" d="M119 0q29 227 28 324v1196h318v-592q123 162 270 162q225 0 335 -157t110 -397.5t-129 -404.5t-359 -164q-88 0 -149.5 42t-83.5 87l-47 -96h-293zM461 375q68 -164 176 -164q219 0 219 319q0 184 -51 251t-139 67q-39 0 -78 -35t-60.5 -68.5t-66.5 -113.5v-256z" />
<glyph unicode="c" horiz-adv-x="1103" d="M94 520q0 264 143.5 417t415.5 153q66 0 184.5 -26t180.5 -50l-109 -260q-184 94 -258 94q-121 0 -176 -67.5t-55 -260.5q0 -309 227 -309q94 0 275 92l108 -260q-57 -27 -187 -51.5t-198 -24.5q-260 0 -405.5 151.5t-145.5 401.5z" />
<glyph unicode="d" horiz-adv-x="1273" d="M94 535q0 238 111.5 396.5t329.5 158.5q154 0 276 -162v592h315v-1196q0 -96 31 -324h-295l-45 96q-23 -45 -84 -87t-149 -42q-133 0 -230.5 45t-153 126t-81 179.5t-25.5 217.5zM420 530q0 -195 53 -257t166 -62q109 0 176 164v256q-90 150 -131 184q-37 33 -78 33 q-88 0 -137 -66t-49 -252z" />
<glyph unicode="e" horiz-adv-x="1251" d="M94 518q0 80 15.5 155t52.5 152.5t95 135t151.5 93.5t212.5 36q295 0 413.5 -162t118.5 -535h-727q37 -193 229 -192q145 0 326 90l104 -240q-188 -84 -448 -84q-256 0 -399.5 159t-143.5 392zM428 627h408q-20 221 -213 221q-25 0 -49.5 -6t-60.5 -25.5t-59.5 -68.5 t-25.5 -121z" />
<glyph unicode="f" horiz-adv-x="772" d="M20 815v242h160v26q0 205 127 306.5t383 148.5l111 -256q-158 -18 -230.5 -64.5t-72.5 -146.5v-14h194v-242h-194v-815h-318v815h-160z" />
<glyph unicode="g" horiz-adv-x="1314" d="M88 -166q0 57 29.5 101.5t53.5 57.5t62 32q-125 59 -124 206q0 104 133 193q-100 127 -101 260q0 45 9.5 91t42 105.5t84 103.5t147.5 75t223 31q49 0 178 -19q307 27 435 31l-78 -207h-119q96 -115 96 -215q0 -72 -22.5 -137.5t-74.5 -129t-157.5 -102.5t-251.5 -39 q-152 0 -237 35q-41 -4 -41 -61q0 -43 59.5 -58.5t255.5 -29.5q324 -23 433.5 -92.5t109.5 -225.5q0 -86 -49 -149.5t-134 -97t-179.5 -50t-204.5 -16.5q-313 0 -445.5 80t-132.5 227zM410 -156q0 -41 84 -66.5t172 -25.5q150 0 197.5 17.5t47.5 70.5q0 84 -471 86 q-30 -35 -30 -82zM459 680q0 -168 196 -168q96 0 141.5 55.5t45.5 122.5q0 164 -189 164q-35 0 -60.5 -3t-60 -18.5t-54 -53.5t-19.5 -99z" />
<glyph unicode="h" horiz-adv-x="1259" d="M147 0v1520h318v-592q2 2 23.5 27.5t42 44t50 42t69.5 37t81 13.5q227 0 309 -110t82 -323v-659h-317v705q0 31 -3 51t-13.5 44.5t-40 38t-72.5 13.5q-41 0 -83 -35t-65.5 -70.5t-62.5 -105.5v-641h-318z" />
<glyph unicode="i" horiz-adv-x="614" d="M143 1247v250h330v-250h-330zM150 0v1057h315v-1057h-315z" />
<glyph unicode="j" horiz-adv-x="610" d="M-74 -238q121 25 168 76t47 156v1063h318v-1043q0 -109 -34 -194.5t-97.5 -145t-132 -97.5t-158.5 -73zM131 1247v250h336v-250h-336z" />
<glyph unicode="k" horiz-adv-x="1179" d="M147 0v1520h318v-869l297 406h340l-338 -457l393 -600h-360l-332 518v-518h-318z" />
<glyph unicode="l" horiz-adv-x="612" d="M147 0v1520h318v-1520h-318z" />
<glyph unicode="m" horiz-adv-x="1918" d="M119 1057h293l45 -131q35 51 115.5 108.5t158.5 57.5q137 0 199.5 -28t142.5 -122q94 150 326 150q188 0 281.5 -101.5t93.5 -314.5v-676h-318v672q0 109 -27.5 144.5t-80.5 35.5q-154 0 -234 -223v-629h-317v672q0 117 -26 148.5t-101 31.5q-14 0 -29.5 -5t-28 -11.5 t-27 -19.5t-23.5 -23.5t-21.5 -26.5t-19.5 -26.5t-17 -29t-15.5 -25.5t-14.5 -23.5t-9 -18.5v-643h-318v815q0 51 -13 134t-15 108z" />
<glyph unicode="n" horiz-adv-x="1269" d="M119 1057h293l47 -129q4 4 30.5 32.5t46 45t52.5 40t69.5 35t75.5 11.5q225 0 307 -110t82 -316v-666h-317v688q0 37 -2 57.5t-13.5 49t-39 43t-74.5 14.5q-63 0 -111.5 -55.5t-99.5 -155.5v-641h-318v834q1 43 -28 223z" />
<glyph unicode="o" horiz-adv-x="1288" d="M94 535q0 242 137.5 399.5t413.5 157.5q283 0 416 -154t133 -403q0 -248 -135 -409t-414 -161t-415 160t-136 410zM420 535q0 -328 225 -328t225 328q0 184 -53 250.5t-172 66.5q-113 0 -169 -67.5t-56 -249.5z" />
<glyph unicode="p" horiz-adv-x="1273" d="M119 1057h293l51 -129q35 47 58.5 72.5t79.5 58.5t116 33q238 0 350.5 -160t112.5 -410q0 -238 -113 -397.5t-332 -159.5q-66 0 -145.5 35t-124.5 94v-510h-318v1145q1 88 -28 328zM459 379q41 -82 99 -127t112 -45q84 0 135 66.5t51 254.5q0 197 -54 260.5t-167 63.5 q-27 0 -49.5 -15.5t-49 -57.5t-35.5 -58t-42 -78v-264z" />
<glyph unicode="q" horiz-adv-x="1273" d="M94 522q0 246 119 408t344 162q61 0 117.5 -33t80 -58.5t58.5 -72.5l49 129h295q-31 -240 -31 -328v-1145h-315v510q-45 -59 -126 -94t-148 -35q-162 0 -263.5 81t-140.5 200.5t-39 275.5zM420 528q0 -188 50 -254.5t136 -66.5q53 0 109.5 45t99.5 127v264 q-4 10 -16.5 32.5t-17.5 33t-17 31t-19.5 31.5t-17.5 26.5t-19.5 23.5t-19.5 15.5t-21.5 11.5t-23.5 4q-117 0 -170 -62.5t-53 -261.5z" />
<glyph unicode="r" horiz-adv-x="929" d="M119 1057h293l47 -146q106 180 231 181q113 0 205 -27l-107 -258q-51 45 -131 45q-16 0 -32.5 -5t-28.5 -11.5t-26.5 -20.5t-23.5 -24.5t-19.5 -29t-16.5 -28.5t-15.5 -31.5t-11.5 -28.5t-10 -26l-8 -20v-627h-318v821q0 47 -5 92t-13 88.5t-10 55.5z" />
<glyph unicode="s" horiz-adv-x="1083" d="M84 41l109 260q29 -10 97 -40t118.5 -42t103.5 -12q72 0 108.5 13t44 27.5t7.5 35.5v6q0 31 -58.5 50t-140.5 41.5t-164 59.5t-140 121t-58 209q0 322 473 322q164 0 379 -64l-107 -258q-72 33 -100.5 46t-76.5 24.5t-93 11.5q-152 0 -152 -74q0 -43 58.5 -69.5 t140.5 -50t164 -59.5t140 -113.5t58 -194.5q0 -326 -489 -326q-184 0 -422 76z" />
<glyph unicode="t" horiz-adv-x="735" d="M25 815v246h159v289h316v-289h205v-246h-205v-582q0 -98 47 -146t172 -85l-117 -256q-193 74 -305.5 191.5t-112.5 328.5v549h-159z" />
<glyph unicode="u" horiz-adv-x="1253" d="M147 391v666h318v-686q0 -49 5 -78t33.5 -57.5t84.5 -28.5q35 0 62.5 14.5t55 54t41 62t41.5 78.5v641h318v-832q0 -45 31 -225h-295l-45 129q-2 -2 -40 -41t-60.5 -58.5t-70.5 -42t-96 -22.5q-213 0 -298 111.5t-85 314.5z" />
<glyph unicode="v" horiz-adv-x="1296" d="M78 1057h338l241 -695l230 695h334l-414 -1057h-320z" />
<glyph unicode="w" horiz-adv-x="1943" d="M59 1057h336l221 -672l226 584h315l217 -588l180 676h330l-346 -1057h-334l-211 600l-239 -600h-334z" />
<glyph unicode="x" horiz-adv-x="1193" d="M51 0l381 535l-356 522h350l180 -293l191 293h327l-362 -506l381 -551h-348l-201 313l-213 -313h-330z" />
<glyph unicode="y" horiz-adv-x="1275" d="M78 1057h338l219 -658l231 658h332l-465 -1225q-125 -334 -442 -440l-109 256q166 45 205 151l92 244z" />
<glyph unicode="z" horiz-adv-x="1064" d="M49 260l608 555h-526v242h780l107 -258l-598 -555h557v-244h-819z" />
<glyph unicode="{" horiz-adv-x="937" d="M111 496v237q72 2 110.5 44t51 107.5t19.5 145.5t27.5 160t62.5 147.5t134 111.5t232 48v-237q-78 0 -116 -53.5t-47.5 -135.5t-19.5 -169t-54 -169t-132 -123q88 -33 133 -110.5t54 -166.5t17.5 -173t47.5 -139.5t117 -55.5v-237q-139 4 -230.5 47t-132.5 108.5 t-60.5 145.5t-27.5 159.5t-20.5 147t-53 112t-112.5 48.5z" />
<glyph unicode="|" horiz-adv-x="653" d="M195 -385v2009h266v-2009h-266z" />
<glyph unicode="}" horiz-adv-x="937" d="M195 -35q78 0 115.5 55.5t44.5 139.5t16.5 173t55.5 167t132 110q-86 41 -130 123t-53 169t-18.5 169t-47.5 135.5t-115 53.5v237q139 -4 231 -48t134 -111.5t61.5 -147.5t26.5 -160t19.5 -145.5t51.5 -107.5t110 -44v-237q-84 -8 -125.5 -65.5t-47 -140.5t-25 -180.5 t-50 -181.5t-129 -140t-257.5 -60v237z" />
<glyph unicode="~" d="M72 498q0 127 88 220t250 93q86 0 169 -34t132 -74.5t86 -74.5t43 -34q86 0 120.5 32.5t34.5 143.5l246 -131q0 -127 -87 -220t-257 -93q-74 0 -150.5 34.5t-126 75.5t-92.5 76t-59 35q-82 0 -118 -36t-36 -149z" />
<glyph unicode="&#xa1;" horiz-adv-x="653" d="M164 1212v285h323v-285h-323zM172 0v1063h311v-1063h-311z" />
<glyph unicode="&#xa2;" horiz-adv-x="1103" d="M94 520q0 227 107.5 373.5t314.5 185.5v219h250v-219q166 -31 252 -65l-109 -260q-119 61 -143 69v-592q63 25 156 72l108 -260q-74 -37 -264 -63v-211h-250v211q-203 37 -312.5 181t-109.5 359zM420 520q0 -188 96 -282v585q-96 -70 -96 -303z" />
<glyph unicode="&#xa3;" d="M96 655v238h178l5 53q0 270 188 430t553 185l90 -287q-102 0 -163.5 -5t-131.5 -25.5t-106.5 -60.5t-61 -113t-24.5 -177h327v-238h-323v-376h635v-279h-1131v279h143v376h-178z" />
<glyph unicode="&#xa5;" d="M-6 1497h391l277 -536l284 536h371l-428 -717h203v-235h-269v-96h269v-234h-269v-215h-350v215h-272v234h272v96h-272v235h205z" />
<glyph unicode="&#xa6;" horiz-adv-x="653" d="M197 -180v540h262v-540h-262zM197 831v541h262v-541h-262z" />
<glyph unicode="&#xa7;" horiz-adv-x="1036" d="M53 772q0 166 115 238q-78 82 -78 198q0 322 477 322q143 0 359 -66l-109 -254q-18 6 -56 24.5t-60.5 29t-59.5 17.5t-72 7q-158 0 -157 -74q0 -41 59 -67.5t143 -51t168 -61.5t142.5 -115.5t58.5 -193.5q0 -150 -92 -233q45 -84 45 -203q0 -326 -483 -326 q-152 0 -385 76l108 258q20 -10 62.5 -30.5t68 -31t66.5 -21.5t86 -11q68 0 104.5 13t42.5 25.5t6 30.5v15q0 33 -41 54t-103 35.5t-134 41t-134.5 63.5t-104.5 113t-42 178zM369 772q0 -12 8 -25.5t25.5 -24.5t34 -19.5t46 -18.5t51 -17.5t57.5 -18.5t56 -19q23 23 23 61 v33q0 82 -246 154q-55 -27 -55 -105z" />
<glyph unicode="&#xa8;" horiz-adv-x="614" d="M-18 1260v237h278v-237h-278zM358 1260v237h279v-237h-279z" />
<glyph unicode="&#xa9;" horiz-adv-x="1665" d="M57 749.5q0 325.5 224.5 550t552.5 224.5q330 0 552 -222.5t222 -551.5q0 -326 -224.5 -549.5t-551 -223.5t-551 223.5t-224.5 549zM242 750q0 -248 172 -426.5t419.5 -178.5t419.5 178.5t172 426.5q0 250 -171 427t-420 177q-252 0 -422 -176t-170 -428zM422 745 q0 469 426 469q143 0 242 -34l-64 -172q-117 49 -178 49q-113 0 -163 -74t-50 -235q0 -170 48 -246t159 -76q25 0 43 2t40.5 10t32 11.5t41 17.5t37.5 16l64 -174q-115 -41 -256 -41q-422 0 -422 477z" />
<glyph unicode="&#xaa;" d="M342 1057q0 223 352 223h47v25q0 18 -3 29.5t-20.5 21.5t-47.5 10q-119 0 -240 -53l-63 149q131 45 315 45q117 0 190.5 -48t73.5 -138v-238q0 -20 5 -49.5t13.5 -67.5t10.5 -61h-197l-10 23q-10 33 -14 33q-96 -72 -156 -72q-256 0 -256 168zM541 1067q0 -37 67 -37h27 q57 0 110 53v64h-32q-94 0 -133 -18.5t-39 -61.5z" />
<glyph unicode="&#xab;" horiz-adv-x="1001" d="M41 625l215 422h289l-226 -418l222 -416h-285zM461 625l215 422h285l-226 -418l223 -416h-282z" />
<glyph unicode="&#xac;" d="M82 578v235h1135v-633h-259v398h-876z" />
<glyph unicode="&#xad;" horiz-adv-x="837" d="M59 371v258h719v-258h-719z" />
<glyph unicode="&#xae;" horiz-adv-x="1665" d="M57 749.5q0 325.5 224.5 550t552.5 224.5q330 0 552 -222.5t222 -551.5q0 -326 -224.5 -549.5t-551 -223.5t-551 223.5t-224.5 549zM242 750q0 -248 172 -426.5t419.5 -178.5t419.5 178.5t172 426.5q0 250 -171 427t-420 177q-252 0 -422 -176t-170 -428zM492 299v901 h356q307 0 307 -272q0 -215 -199 -262l265 -367h-254l-254 363h-15v-363h-206zM698 819h158q39 0 63.5 30t24.5 79t-23.5 79.5t-66.5 30.5h-156v-219z" />
<glyph unicode="&#xaf;" horiz-adv-x="614" d="M-6 1233v221h629v-221h-629z" />
<glyph unicode="&#xb0;" horiz-adv-x="1040" d="M100 1014q0 176 124 294.5t297 118.5t296 -118.5t123 -294.5t-123 -292t-299 -116q-174 0 -296 116t-122 292zM291 1014q0 -92 68.5 -161t158.5 -69t160 69t70 161q0 102 -63.5 167.5t-163 65.5t-165 -65.5t-65.5 -167.5z" />
<glyph unicode="&#xb1;" d="M115 -2v233h1079v-233h-1079zM139 541v235h387v228h258v-228h387v-235h-387v-262h-258v262h-387z" />
<glyph unicode="&#xb2;" horiz-adv-x="880" d="M104 907q14 6 65.5 37t83.5 48.5t83 49t82 56t64.5 54.5t50 56.5t16.5 53.5q0 49 -22.5 73.5t-45 29.5t-59.5 5q-86 0 -223 -65l-60 170q121 37 167 46t118 9q63 0 120.5 -11.5t112 -38t87 -80.5t32.5 -132q0 -98 -122 -196.5t-273 -176.5h395v-160h-616z" />
<glyph unicode="&#xb3;" horiz-adv-x="880" d="M113 750l59 170q18 -12 93 -30t134 -18q68 0 107 29t39 62q0 68 -65.5 87t-209.5 19v152q141 0 196.5 14t55.5 70q0 66 -114 65q-90 0 -220 -57l-59 170q43 18 134 32.5t151 14.5q158 0 244.5 -56.5t86.5 -166.5q0 -72 -55 -112t-139 -50q86 -10 150.5 -57.5t64.5 -126.5 q0 -72 -35 -123.5t-94 -76t-117.5 -35.5t-124.5 -11q-169 0 -282 35z" />
<glyph unicode="&#xb4;" horiz-adv-x="614" d="M43 1227l223 270h305l-317 -270h-211z" />
<glyph unicode="&#xb5;" d="M176 -416v1473h318v-686q0 -49 4 -78t32.5 -57.5t85.5 -28.5q35 0 63 14.5t55.5 54t39.5 62t43 78.5v641h318v-832q0 -45 28 -225h-293l-47 129q-2 -2 -38.5 -41t-60.5 -58.5t-71 -42t-96 -22.5h-63v-381h-318z" />
<glyph unicode="&#x3bc;" d="M176 -416v1473h318v-686q0 -49 4 -78t32.5 -57.5t85.5 -28.5q35 0 63 14.5t55.5 54t39.5 62t43 78.5v641h318v-832q0 -45 28 -225h-293l-47 129q-2 -2 -38.5 -41t-60.5 -58.5t-71 -42t-96 -22.5h-63v-381h-318z" />
<glyph unicode="&#xb6;" horiz-adv-x="1249" d="M47 1020q0 55 8 111.5t37 125t75 119.5t132 86t197 35h735v-1931h-258v1694h-232q-113 0 -183.5 -76t-70.5 -207q0 -102 72 -186t156 -109v-1116h-262v971q-137 29 -233.5 109.5t-134.5 175t-38 198.5z" />
<glyph unicode="&#xb7;" horiz-adv-x="653" d="M184 473v285h285v-285h-285z" />
<glyph unicode="&#xb8;" horiz-adv-x="614" d="M-4 -516l63 211q150 -18 183 -19q111 0 110 91q0 51 -33.5 68.5t-152.5 17.5l49 182h244l-25 -88q78 0 119 -56.5t41 -119.5q0 -145 -107.5 -225.5t-234.5 -80.5q-123 1 -256 19z" />
<glyph unicode="&#xb9;" horiz-adv-x="880" d="M178 1346l225 151h203v-772h-225v582l-137 -111z" />
<glyph unicode="&#xba;" d="M317 1223q0 131 87.5 219t252.5 88q172 0 257 -86t85 -221t-88 -225.5t-254 -90.5q-170 0 -255 90.5t-85 225.5zM518 1223q0 -172 139.5 -172t139.5 172q0 96 -36 131t-104 35q-66 0 -102.5 -35t-36.5 -131z" />
<glyph unicode="&#xbb;" horiz-adv-x="1001" d="M43 1047h289l215 -422l-215 -412h-285l221 416zM463 1047h285l215 -422l-215 -412h-283l223 416z" />
<glyph unicode="&#xbc;" horiz-adv-x="2025" d="M147 1346l224 151h202v-772h-221v582l-141 -111zM360 0l836 1456h268l-837 -1456h-267zM1044 354l379 418h246v-418h127v-159h-127v-195h-221v195h-338zM1229 354h219v234z" />
<glyph unicode="&#xbd;" horiz-adv-x="2025" d="M135 1346l223 151h205v-772h-225v582l-139 -111zM344 0l838 1456h266l-840 -1456h-264zM1196 166q10 6 66.5 38t83 48t81 50t85 58.5t63.5 54t49 56.5t16 51q0 70 -34.5 91.5t-92.5 21.5q-88 0 -225 -66l-59 168q121 39 167 48.5t120 9.5q141 0 246.5 -60.5t105.5 -204.5 q0 -172 -395 -372h395v-158h-617z" />
<glyph unicode="&#xbe;" horiz-adv-x="2025" d="M115 750l61 170q18 -12 92 -30t135 -18q66 0 105 29t39 62q0 68 -65.5 87t-207.5 19v152q141 0 196.5 14t55.5 70q0 66 -114 65q-90 0 -219 -57l-62 170q43 18 134 32.5t151 14.5q158 0 246 -56.5t88 -166.5q0 -72 -56.5 -112t-140.5 -50q88 -10 152.5 -57.5t64.5 -126.5 q0 -92 -63.5 -150.5t-141.5 -77t-168 -18.5q-169 0 -282 35zM442 0l838 1456h266l-839 -1456h-265zM1083 354l379 418h246v-418h127v-159h-127v-195h-219v195h-338zM1268 354h221v234z" />
<glyph unicode="&#xbf;" horiz-adv-x="1122" d="M119 379q0 78 39 141.5t95 108.5t114.5 85t97.5 89t39 102v170h309v-182q0 -88 -38 -155.5t-89 -110.5t-103.5 -79t-89 -78t-36.5 -91q0 -70 31.5 -100.5t123.5 -30.5q70 0 204 25.5t194 54.5l41 -281q-74 -27 -213.5 -48.5t-225.5 -21.5q-68 0 -121 4.5t-128.5 28 t-124 63.5t-84 118.5t-35.5 187.5zM498 1212v285h323v-285h-323z" />
<glyph unicode="&#xc0;" horiz-adv-x="1630" d="M63 0l609 1497h332l565 -1497h-389l-119 377h-496l-125 -377h-377zM549 1880h305l221 -272h-207zM662 643h307l-148 475z" />
<glyph unicode="&#xc1;" horiz-adv-x="1630" d="M63 0l609 1497h332l565 -1497h-389l-119 377h-496l-125 -377h-377zM582 1610l221 272h305l-317 -272h-209zM662 643h307l-148 475z" />
<glyph unicode="&#xc2;" horiz-adv-x="1630" d="M63 0l609 1497h332l565 -1497h-389l-119 377h-496l-125 -377h-377zM494 1602l239 278h205l231 -278h-221l-112 139l-121 -139h-221zM662 643h307l-148 475z" />
<glyph unicode="&#xc3;" horiz-adv-x="1630" d="M63 0l609 1497h332l565 -1497h-389l-119 377h-496l-125 -377h-377zM440 1642q45 104 110.5 145.5t174.5 41.5q57 0 128 -57.5t105 -57.5q45 0 79 36t46 73l158 -76q-31 -94 -108.5 -148.5t-169.5 -54.5q-78 0 -145.5 55.5t-94.5 55.5q-94 0 -123 -86zM662 643h307 l-148 475z" />
<glyph unicode="&#xc4;" horiz-adv-x="1630" d="M63 0l609 1497h332l565 -1497h-389l-119 377h-496l-125 -377h-377zM500 1548v238h278v-238h-278zM662 643h307l-148 475zM877 1548v238h278v-238h-278z" />
<glyph unicode="&#xc5;" horiz-adv-x="1630" d="M63 0l609 1497h332l565 -1497h-389l-119 377h-496l-125 -377h-377zM662 643h307l-148 475zM664 1742q0 79 56 135t137 56t136.5 -55t55.5 -135t-55.5 -135.5t-137.5 -55.5q-78 0 -135 55.5t-57 134.5zM766 1745q0 -33 26.5 -61.5t63.5 -28.5q41 0 64.5 26.5t23.5 63.5 t-24.5 63.5t-63.5 26.5t-64.5 -27.5t-25.5 -62.5z" />
<glyph unicode="&#xc6;" horiz-adv-x="2387" d="M63 0l848 1497h1213v-270h-766l45 -318h674v-270h-629l63 -369h635v-270h-934l-51 377h-495l-199 -377h-404zM811 643h311l-59 481z" />
<glyph unicode="&#xc7;" horiz-adv-x="1366" d="M131 748q0 164 38 299t119 247.5t226 175t346 62.5q213 0 414 -66l-107 -292q-10 4 -41.5 18t-44 18t-40 16.5t-45 16.5t-42 10.5t-47 8.5t-47.5 2q-190 0 -277 -125t-87 -389q0 -281 80.5 -406t271.5 -125q45 0 93 11.5t75.5 21.5t85 35.5t80.5 34.5l106 -293 q-217 -78 -434 -78v-4q78 0 123 -57.5t45 -118.5q0 -143 -112.5 -224.5t-239.5 -81.5q-123 0 -258 19l65 215q166 -20 180 -21q111 0 111 89q0 51 -34 68.5t-150 17.5l32 122q-485 126 -485 773z" />
<glyph unicode="&#xc8;" horiz-adv-x="1394" d="M213 0v1497h920v-270h-568v-318h518v-270h-518v-369h588v-270h-940zM381 1880h307l221 -272h-209z" />
<glyph unicode="&#xc9;" horiz-adv-x="1394" d="M213 0v1497h920v-270h-568v-318h518v-270h-518v-369h588v-270h-940zM324 1567l223 270h305l-317 -270h-211z" />
<glyph unicode="&#xca;" horiz-adv-x="1394" d="M213 0v1497h920v-270h-568v-318h518v-270h-518v-369h588v-270h-940zM324 1604l241 278h203l231 -278h-219l-114 139l-119 -139h-223z" />
<glyph unicode="&#xcb;" horiz-adv-x="1394" d="M213 0v1497h920v-270h-568v-318h518v-270h-518v-369h588v-270h-940zM377 1548v238h278v-238h-278zM754 1548v238h278v-238h-278z" />
<glyph unicode="&#xcc;" horiz-adv-x="720" d="M113 1872h307l221 -270h-209zM184 0v1497h353v-1497h-353z" />
<glyph unicode="&#xcd;" horiz-adv-x="720" d="M111 1602l223 270h305l-317 -270h-211zM182 0v1497h353v-1497h-353z" />
<glyph unicode="&#xce;" horiz-adv-x="720" d="M23 1583l241 279h203l231 -279h-219l-112 139l-121 -139h-223zM184 0v1497h353v-1497h-353z" />
<glyph unicode="&#xcf;" horiz-adv-x="720" d="M35 1671v238h278v-238h-278zM176 0v1497h352v-1497h-352zM412 1671v238h278v-238h-278z" />
<glyph unicode="&#xd0;" horiz-adv-x="1607" d="M68 715v241h145v541h549q362 0 538.5 -171t176.5 -572q0 -410 -171 -582t-544 -172h-549v715h-145zM565 270h217q59 0 101.5 7.5t88.5 36t74.5 78.5t48 141.5t19.5 218.5q0 100 -13.5 176t-30.5 126t-49 85t-56.5 51t-67.5 25.5t-67.5 10.5t-67.5 1h-197v-271h178v-241 h-178v-445z" />
<glyph unicode="&#xd1;" horiz-adv-x="1740" d="M213 0v1497h528l441 -1081v1081h348v-1497h-533l-446 1081v-1081h-338zM483 1645q47 104 111.5 145t173.5 41q57 0 128 -57.5t105 -57.5q47 0 81 36t44 75l158 -78q-31 -94 -107.5 -148.5t-168.5 -54.5q-80 0 -146.5 55.5t-95.5 55.5q-92 0 -123 -86z" />
<glyph unicode="&#xd2;" horiz-adv-x="1728" d="M131 743q0 170 40 308.5t124 248t230.5 170t344.5 60.5q727 0 727 -787q0 -362 -173 -576t-556 -214q-737 -1 -737 790zM494 1880h305l221 -272h-207zM496 743q0 -299 90 -408.5t282 -109.5q188 0 276.5 122t88.5 396q0 285 -91 401t-274 116q-188 0 -280 -117t-92 -400z " />
<glyph unicode="&#xd3;" horiz-adv-x="1728" d="M131 743q0 170 40 308.5t124 248t230.5 170t344.5 60.5q727 0 727 -787q0 -362 -173 -576t-556 -214q-737 -1 -737 790zM496 743q0 -299 90 -408.5t282 -109.5q188 0 276.5 122t88.5 396q0 285 -91 401t-274 116q-188 0 -280 -117t-92 -400zM592 1610l223 272h305 l-317 -272h-211z" />
<glyph unicode="&#xd4;" horiz-adv-x="1728" d="M131 743q0 170 40 308.5t124 248t230.5 170t344.5 60.5q727 0 727 -787q0 -362 -173 -576t-556 -214q-737 -1 -737 790zM496 743q0 -299 90 -408.5t282 -109.5q188 0 276.5 122t88.5 396q0 285 -91 401t-274 116q-188 0 -280 -117t-92 -400zM518 1604l242 278h203 l231 -278h-219l-115 139l-119 -139h-223z" />
<glyph unicode="&#xd5;" horiz-adv-x="1728" d="M131 743q0 170 40 308.5t124 248t230.5 170t344.5 60.5q727 0 727 -787q0 -362 -173 -576t-556 -214q-737 -1 -737 790zM485 1645q47 104 112 145t173 41q59 0 129 -57.5t105 -57.5q47 0 80.5 36t43.5 75l158 -78q-29 -94 -106.5 -148.5t-169.5 -54.5q-80 0 -146.5 55.5 t-95.5 55.5q-92 0 -123 -86zM496 743q0 -299 90 -408.5t282 -109.5q188 0 276.5 122t88.5 396q0 285 -91 401t-274 116q-188 0 -280 -117t-92 -400z" />
<glyph unicode="&#xd6;" horiz-adv-x="1728" d="M131 743q0 170 40 308.5t124 248t230.5 170t344.5 60.5q727 0 727 -787q0 -362 -173 -576t-556 -214q-737 -1 -737 790zM496 743q0 -299 90 -408.5t282 -109.5q188 0 276.5 122t88.5 396q0 285 -91 401t-274 116q-188 0 -280 -117t-92 -400zM541 1548v238h278v-238h-278z M920 1548v238h276v-238h-276z" />
<glyph unicode="&#xd7;" d="M100 242l373 370l-373 373l185 186l372 -372l373 372l184 -186l-372 -373l372 -370l-184 -187l-373 373l-372 -373z" />
<glyph unicode="&#xd8;" horiz-adv-x="1728" d="M37 -2l209 246q-115 186 -115 499q0 170 40 308.5t124 248t230.5 170t344.5 60.5q240 0 408 -84l166 194l227 -208l-176 -207q102 -184 102 -482q0 -362 -173 -576t-556 -214q-238 0 -401 72l-201 -236zM496 743q0 -115 6 -196l571 663q-80 49 -205 50q-188 0 -280 -117 t-92 -400zM662 254q70 -29 206 -29q188 0 276.5 122t88.5 396q0 35 -1 92.5t-1 79.5z" />
<glyph unicode="&#xd9;" horiz-adv-x="1722" d="M213 553v944h352v-922q0 -111 26.5 -184.5t76 -108t98.5 -46t111 -11.5q123 0 202.5 83t79.5 267v922h352v-948q0 -295 -165.5 -445.5t-468.5 -150.5q-664 0 -664 600zM485 1880h306l223 -272h-209z" />
<glyph unicode="&#xda;" horiz-adv-x="1722" d="M213 553v944h352v-922q0 -111 26.5 -184.5t76 -108t98.5 -46t111 -11.5q123 0 202.5 83t79.5 267v922h352v-948q0 -295 -165.5 -445.5t-468.5 -150.5q-664 0 -664 600zM666 1565l223 270h305l-317 -270h-211z" />
<glyph unicode="&#xdb;" horiz-adv-x="1722" d="M213 553v944h352v-922q0 -111 26.5 -184.5t76 -108t98.5 -46t111 -11.5q123 0 202.5 83t79.5 267v922h352v-948q0 -295 -165.5 -445.5t-468.5 -150.5q-664 0 -664 600zM530 1604l240 278h205l231 -278h-221l-113 139l-120 -139h-222z" />
<glyph unicode="&#xdc;" horiz-adv-x="1722" d="M213 553v944h352v-922q0 -111 26.5 -184.5t76 -108t98.5 -46t111 -11.5q123 0 202.5 83t79.5 267v922h352v-948q0 -295 -165.5 -445.5t-468.5 -150.5q-664 0 -664 600zM549 1548v238h276v-238h-276zM926 1548v238h278v-238h-278z" />
<glyph unicode="&#xdd;" horiz-adv-x="1499" d="M31 1497h399l328 -522l327 522h385l-550 -823v-674h-353v664zM360 1602l224 270h305l-318 -270h-211z" />
<glyph unicode="&#xde;" horiz-adv-x="1437" d="M213 0v1497h352v-266h219q545 0 545 -461q0 -473 -518 -473h-246v-297h-352zM565 567h226q76 0 129 47.5t53 155.5q0 68 -17.5 110t-52.5 58t-58.5 19.5t-64.5 3.5h-215v-394z" />
<glyph unicode="&#xdf;" horiz-adv-x="1290" d="M147 0v1090q0 211 121 320.5t322 109.5q465 0 465 -379q0 -80 -21.5 -144.5t-61.5 -103.5t-72 -62.5t-74 -44t-50 -24.5q12 -8 70.5 -27.5t93.5 -33t88 -52.5t84 -84t55.5 -120.5t24.5 -172.5q0 -141 -64.5 -248.5t-172 -169t-231.5 -91t-257 -29.5l111 266 q145 0 216.5 89t71.5 190q0 72 -17.5 126t-40 84.5t-65.5 54t-69.5 32t-77.5 20.5l-68 16v248q2 0 22.5 14.5t26 17.5t26 18.5t27.5 22.5l24 24q17 17 25.5 29.5t20 32t15.5 38t9 42t5 48.5q0 59 -39 95t-100 36q-45 0 -85 -35t-40 -127v-1116h-318z" />
<glyph unicode="&#xe0;" horiz-adv-x="1255" d="M94 279q0 397 588 397h82v35q0 37 -3 60.5t-33 50t-85 26.5q-205 0 -399 -94l-109 260q225 76 529 76q190 0 304.5 -85t114.5 -253v-428q0 -49 20.5 -168t24.5 -156h-303q-2 0 -22 53l-19 43l-22 -18q-25 -18 -30 -21.5t-28.5 -20t-35 -21.5t-34 -17t-37.5 -16.5 t-36.5 -9.5t-40.5 -5q-426 1 -426 312zM262 1497h305l221 -270h-206zM424 291q0 -80 162 -80q76 0 180 115v123h-51q-291 0 -291 -158z" />
<glyph unicode="&#xe1;" horiz-adv-x="1255" d="M94 279q0 397 588 397h82v35q0 37 -3 60.5t-33 50t-85 26.5q-205 0 -399 -94l-109 260q225 76 529 76q190 0 304.5 -85t114.5 -253v-428q0 -49 20.5 -168t24.5 -156h-303q-2 0 -22 53l-19 43l-22 -18q-25 -18 -30 -21.5t-28.5 -20t-35 -21.5t-34 -17t-37.5 -16.5 t-36.5 -9.5t-40.5 -5q-426 1 -426 312zM344 1227l223 270h305l-317 -270h-211zM424 291q0 -80 162 -80q76 0 180 115v123h-51q-291 0 -291 -158z" />
<glyph unicode="&#xe2;" horiz-adv-x="1255" d="M94 279q0 397 588 397h82v35q0 37 -3 60.5t-33 50t-85 26.5q-205 0 -399 -94l-109 260q225 76 529 76q190 0 304.5 -85t114.5 -253v-428q0 -49 20.5 -168t24.5 -156h-303q-2 0 -22 53l-19 43l-22 -18q-25 -18 -30 -21.5t-28.5 -20t-35 -21.5t-34 -17t-37.5 -16.5 t-36.5 -9.5t-40.5 -5q-426 1 -426 312zM244 1221l239 276h205l232 -276h-222l-112 137l-121 -137h-221zM424 291q0 -80 162 -80q76 0 180 115v123h-51q-291 0 -291 -158z" />
<glyph unicode="&#xe3;" horiz-adv-x="1255" d="M94 279q0 397 588 397h82v35q0 37 -3 60.5t-33 50t-85 26.5q-205 0 -399 -94l-109 260q225 76 529 76q190 0 304.5 -85t114.5 -253v-428q0 -49 20.5 -168t24.5 -156h-303q-2 0 -22 53l-19 43l-22 -18q-25 -18 -30 -21.5t-28.5 -20t-35 -21.5t-34 -17t-37.5 -16.5 t-36.5 -9.5t-40.5 -5q-426 1 -426 312zM193 1257q45 102 110.5 143.5t173.5 41.5q57 0 128 -56.5t106 -56.5q47 0 79.5 36t45.5 73l157 -78q-31 -94 -108.5 -148.5t-169.5 -54.5q-78 0 -145.5 55.5t-94.5 55.5q-94 0 -123 -86zM424 291q0 -80 162 -80q76 0 180 115v123h-51 q-291 0 -291 -158z" />
<glyph unicode="&#xe4;" horiz-adv-x="1255" d="M94 279q0 397 588 397h82v35q0 37 -3 60.5t-33 50t-85 26.5q-205 0 -399 -94l-109 260q225 76 529 76q190 0 304.5 -85t114.5 -253v-428q0 -49 20.5 -168t24.5 -156h-303q-2 0 -22 53l-19 43l-22 -18q-25 -18 -30 -21.5t-28.5 -20t-35 -21.5t-34 -17t-37.5 -16.5 t-36.5 -9.5t-40.5 -5q-426 1 -426 312zM285 1206v252h280v-252h-280zM424 291q0 -80 162 -80q76 0 180 115v123h-51q-291 0 -291 -158zM664 1206v252h280v-252h-280z" />
<glyph unicode="&#xe5;" horiz-adv-x="1255" d="M94 279q0 397 588 397h82v35q0 37 -3 60.5t-33 50t-85 26.5q-205 0 -399 -94l-109 260q225 76 529 76q190 0 304.5 -85t114.5 -253v-428q0 -49 20.5 -168t24.5 -156h-303q-2 0 -22 53l-19 43l-22 -18q-25 -18 -30 -21.5t-28.5 -20t-35 -21.5t-34 -17t-37.5 -16.5 t-36.5 -9.5t-40.5 -5q-426 1 -426 312zM408 1363q0 79 55 134t136 55t136.5 -54t55.5 -134t-55.5 -135t-135.5 -55t-136 55t-56 134zM424 291q0 -80 162 -80q76 0 180 115v123h-51q-291 0 -291 -158zM510 1366q0 -33 26.5 -61.5t63.5 -28.5q41 0 64.5 26.5t23.5 63.5 t-24.5 63.5t-64.5 26.5t-64.5 -27.5t-24.5 -62.5z" />
<glyph unicode="&#xe6;" horiz-adv-x="1902" d="M94 279q0 397 588 397h80v39q0 37 -5 60.5t-33 48t-81 24.5q-205 0 -399 -94l-109 260q215 76 529 76q160 0 305 -91q145 90 307 91q295 0 411.5 -162t116.5 -535h-723q37 -193 230 -192q145 0 325 90l105 -240q-188 -84 -449 -84q-145 0 -255.5 54.5t-145.5 128.5 q-182 -182 -371 -183q-426 1 -426 312zM424 291q0 -80 162 -80q14 0 26.5 2t25.5 7t23.5 9t21.5 13.5t18.5 15.5t18.5 17.5t14 16.5t16 17l14 15v125h-49q-291 0 -291 -158zM1081 627h410q-20 221 -213 221q-27 0 -52.5 -6t-61.5 -25.5t-58.5 -68.5t-24.5 -121z" />
<glyph unicode="&#xe7;" horiz-adv-x="1103" d="M94 520q0 266 140.5 419t418.5 153q66 0 188 -28t189 -54l-119 -252q-14 4 -77.5 33.5t-106.5 44t-76 14.5q-121 0 -176 -68.5t-55 -261.5q0 -311 227 -311q84 0 275 90l118 -250q-98 -51 -335 -80l-11 -26q78 0 119 -54.5t41 -117.5q0 -150 -106.5 -228t-233.5 -78 q-123 0 -258 19l76 203q166 -20 170 -21q47 0 83 25.5t36 75t-37 68t-156 18.5l35 135q-180 49 -274.5 190t-94.5 342z" />
<glyph unicode="&#xe8;" horiz-adv-x="1251" d="M94 518q0 80 15.5 155t52.5 152.5t95 135t151.5 93.5t212.5 36q295 0 413.5 -162t118.5 -535h-727q37 -193 229 -192q145 0 326 90l104 -240q-188 -84 -448 -84q-256 0 -399.5 159t-143.5 392zM285 1497h305l223 -270h-209zM428 627h408q-20 221 -213 221q-25 0 -49.5 -6 t-60.5 -25.5t-59.5 -68.5t-25.5 -121z" />
<glyph unicode="&#xe9;" horiz-adv-x="1251" d="M94 518q0 80 15.5 155t52.5 152.5t95 135t151.5 93.5t212.5 36q295 0 413.5 -162t118.5 -535h-727q37 -193 229 -192q145 0 326 90l104 -240q-188 -84 -448 -84q-256 0 -399.5 159t-143.5 392zM428 627h408q-20 221 -213 221q-25 0 -49.5 -6t-60.5 -25.5t-59.5 -68.5 t-25.5 -121zM446 1227l224 270h305l-318 -270h-211z" />
<glyph unicode="&#xea;" horiz-adv-x="1251" d="M94 518q0 80 15.5 155t52.5 152.5t95 135t151.5 93.5t212.5 36q295 0 413.5 -162t118.5 -535h-727q37 -193 229 -192q145 0 326 90l104 -240q-188 -84 -448 -84q-256 0 -399.5 159t-143.5 392zM317 1221l240 276h205l231 -276h-221l-113 137l-120 -137h-222zM428 627h408 q-20 221 -213 221q-25 0 -49.5 -6t-60.5 -25.5t-59.5 -68.5t-25.5 -121z" />
<glyph unicode="&#xeb;" horiz-adv-x="1251" d="M94 518q0 80 15.5 155t52.5 152.5t95 135t151.5 93.5t212.5 36q295 0 413.5 -162t118.5 -535h-727q37 -193 229 -192q145 0 326 90l104 -240q-188 -84 -448 -84q-256 0 -399.5 159t-143.5 392zM324 1212v240h278v-240h-278zM428 627h408q-20 221 -213 221q-25 0 -49.5 -6 t-60.5 -25.5t-59.5 -68.5t-25.5 -121zM700 1212v240h279v-240h-279z" />
<glyph unicode="&#xec;" horiz-adv-x="614" d="M49 1497h305l221 -270h-206zM197 0v1057h315v-1057h-315z" />
<glyph unicode="&#xed;" horiz-adv-x="614" d="M39 1227l223 270h305l-317 -270h-211zM150 0v1057h315v-1057h-315z" />
<glyph unicode="&#xee;" horiz-adv-x="614" d="M-31 1221l242 276h203l231 -276h-219l-113 137l-120 -137h-224zM150 0v1057h315v-1057h-315z" />
<glyph unicode="&#xef;" horiz-adv-x="614" d="M-18 1276v237h278v-237h-278zM150 0v1057h315v-1057h-315zM358 1276v237h279v-237h-279z" />
<glyph unicode="&#xf0;" d="M109 416q0 528 497 528q31 0 74 -8t103.5 -43t90.5 -90q0 143 -61 242.5t-168 144.5l-170 -115l-213 125l107 74h-17q-68 0 -141 -14l-98 278h61q287 0 483 -63l127 92l207 -125l-114 -78q330 -207 329 -709q0 -696 -565 -696q-213 0 -372.5 126t-159.5 331zM457 479 q0 -14 1 -35.5t1 -27.5q0 -102 52 -149.5t128 -47.5q104 0 159.5 62.5t55.5 257.5q-29 70 -77 106.5t-140 36.5q-180 0 -180 -203z" />
<glyph unicode="&#xf1;" horiz-adv-x="1269" d="M119 1057h293l47 -129q4 4 30.5 32.5t46 45t52.5 40t69.5 35t75.5 11.5q225 0 307 -110t82 -316v-666h-317v688q0 37 -2 57.5t-13.5 49t-39 43t-74.5 14.5q-63 0 -111.5 -55.5t-99.5 -155.5v-641h-318v834q1 43 -28 223zM213 1257q47 102 111.5 143.5t173.5 41.5 q57 0 127.5 -56.5t105.5 -56.5q47 0 80 36t45 73l158 -78q-31 -94 -108 -148.5t-171 -54.5q-78 0 -145.5 55.5t-93.5 55.5q-92 0 -123 -86z" />
<glyph unicode="&#xf2;" horiz-adv-x="1288" d="M94 535q0 242 137.5 399.5t413.5 157.5q283 0 416 -154t133 -403q0 -248 -135 -409t-414 -161t-415 160t-136 410zM336 1497h305l221 -270h-207zM420 535q0 -328 225 -328t225 328q0 184 -53 250.5t-172 66.5q-113 0 -169 -67.5t-56 -249.5z" />
<glyph unicode="&#xf3;" horiz-adv-x="1288" d="M94 535q0 242 137.5 399.5t413.5 157.5q283 0 416 -154t133 -403q0 -248 -135 -409t-414 -161t-415 160t-136 410zM420 535q0 -328 225 -328t225 328q0 184 -53 250.5t-172 66.5q-113 0 -169 -67.5t-56 -249.5zM428 1227l223 270h305l-317 -270h-211z" />
<glyph unicode="&#xf4;" horiz-adv-x="1288" d="M94 535q0 242 137.5 399.5t413.5 157.5q283 0 416 -154t133 -403q0 -248 -135 -409t-414 -161t-415 160t-136 410zM307 1221l242 276h203l231 -276h-219l-113 137l-121 -137h-223zM420 535q0 -328 225 -328t225 328q0 184 -53 250.5t-172 66.5q-113 0 -169 -67.5 t-56 -249.5z" />
<glyph unicode="&#xf5;" horiz-adv-x="1288" d="M94 535q0 242 137.5 399.5t413.5 157.5q283 0 416 -154t133 -403q0 -248 -135 -409t-414 -161t-415 160t-136 410zM231 1257q47 102 112 143.5t173 41.5q57 0 128 -56.5t106 -56.5q47 0 79.5 36t44.5 73l158 -78q-31 -94 -107.5 -148.5t-170.5 -54.5q-78 0 -145.5 55.5 t-94.5 55.5q-92 0 -123 -86zM420 535q0 -328 225 -328t225 328q0 184 -53 250.5t-172 66.5q-113 0 -169 -67.5t-56 -249.5z" />
<glyph unicode="&#xf6;" horiz-adv-x="1288" d="M94 535q0 242 137.5 399.5t413.5 157.5q283 0 416 -154t133 -403q0 -248 -135 -409t-414 -161t-415 160t-136 410zM332 1212v240h276v-240h-276zM420 535q0 -328 225 -328t225 328q0 184 -53 250.5t-172 66.5q-113 0 -169 -67.5t-56 -249.5zM709 1212v240h276v-240h-276z " />
<glyph unicode="&#xf7;" d="M115 410v200h1079v-200h-1079zM492 10v287h325v-287h-325zM492 713v286h325v-286h-325z" />
<glyph unicode="&#xf8;" horiz-adv-x="1288" d="M39 96l119 135q-63 127 -64 304q0 242 137.5 399.5t413.5 157.5q162 0 266 -35l109 117l207 -201l-105 -117q72 -127 72 -321q0 -248 -135 -409t-414 -161q-162 0 -287 55l-110 -124zM412 504l321 354q-8 0 -28.5 -2t-34 -3t-25.5 -1q-113 0 -169 -67.5t-56 -249.5 q0 -13 -8 -31zM545 221q45 -14 100 -14q225 0 225 328q0 33 2 49z" />
<glyph unicode="&#xf9;" horiz-adv-x="1253" d="M147 391v666h318v-686q0 -49 5 -78t33.5 -57.5t84.5 -28.5q35 0 62.5 14.5t55 54t41 62t41.5 78.5v641h318v-832q0 -45 31 -225h-295l-45 129q-2 -2 -40 -41t-60.5 -58.5t-70.5 -42t-96 -22.5q-213 0 -298 111.5t-85 314.5zM291 1497h307l221 -270h-209z" />
<glyph unicode="&#xfa;" horiz-adv-x="1253" d="M147 391v666h318v-686q0 -49 5 -78t33.5 -57.5t84.5 -28.5q35 0 62.5 14.5t55 54t41 62t41.5 78.5v641h318v-832q0 -45 31 -225h-295l-45 129q-2 -2 -40 -41t-60.5 -58.5t-70.5 -42t-96 -22.5q-213 0 -298 111.5t-85 314.5zM403 1227l222 270h305l-318 -270h-209z" />
<glyph unicode="&#xfb;" horiz-adv-x="1253" d="M147 391v666h318v-686q0 -49 5 -78t33.5 -57.5t84.5 -28.5q35 0 62.5 14.5t55 54t41 62t41.5 78.5v641h318v-832q0 -45 31 -225h-295l-45 129q-2 -2 -40 -41t-60.5 -58.5t-70.5 -42t-96 -22.5q-213 0 -298 111.5t-85 314.5zM274 1221l242 276h203l231 -276h-219l-113 137 l-120 -137h-224z" />
<glyph unicode="&#xfc;" horiz-adv-x="1253" d="M147 391v666h318v-686q0 -49 5 -78t33.5 -57.5t84.5 -28.5q35 0 62.5 14.5t55 54t41 62t41.5 78.5v641h318v-832q0 -45 31 -225h-295l-45 129q-2 -2 -40 -41t-60.5 -58.5t-70.5 -42t-96 -22.5q-213 0 -298 111.5t-85 314.5zM299 1212v240h276v-240h-276zM676 1212v240 h278v-240h-278z" />
<glyph unicode="&#xfd;" horiz-adv-x="1275" d="M78 1057h338l219 -658l231 658h332l-465 -1225q-125 -334 -442 -440l-109 256q166 45 205 151l92 244zM358 1227l224 270h305l-318 -270h-211z" />
<glyph unicode="&#xfe;" horiz-adv-x="1273" d="M111 -420q12 86 24 359.5t12 384.5v1196h318v-592q123 162 270 162q225 0 335 -157t110 -397.5t-129 -404.5t-359 -164q-88 0 -149.5 42t-83.5 87l-53 -516h-295zM461 375q68 -164 176 -164q219 0 219 319q0 184 -51 251t-139 67q-39 0 -78 -35t-60.5 -68.5t-66.5 -113.5 v-256z" />
<glyph unicode="&#xff;" d="M78 1057h338l219 -658l231 658h332l-465 -1225q-125 -334 -442 -440l-109 256q166 45 205 151l92 244zM344 1206v238h279v-238h-279zM723 1206v238h276v-238h-276z" />
<glyph unicode="&#x152;" horiz-adv-x="2439" d="M131 743q0 170 40 308.5t124 248t230.5 170t344.5 60.5q145 0 263 -33h1042v-270h-684q61 -176 78 -318h557v-270h-555q-10 -188 -78 -369h702v-270h-1021q-127 -47 -306 -47q-737 -1 -737 790zM496 743q0 -299 90 -408.5t282 -109.5q188 0 265 119t77 399 q0 291 -79.5 404t-262.5 113q-188 0 -280 -117t-92 -400z" />
<glyph unicode="&#x153;" horiz-adv-x="2013" d="M94 535q0 242 137.5 399.5t413.5 157.5q238 0 387 -109q139 106 350 107q295 0 414 -162t119 -535h-727q37 -193 229 -192q145 0 326 90l104 -240q-188 -84 -448 -84q-217 0 -367 117q-154 -119 -387 -119q-279 0 -415 160t-136 410zM420 535q0 -328 225 -328t225 328 q0 184 -53 250.5t-172 66.5q-113 0 -169 -67.5t-56 -249.5zM1190 627h407q-20 221 -213 221q-27 0 -50 -6t-59 -25.5t-59.5 -68.5t-25.5 -121z" />
<glyph unicode="&#x178;" horiz-adv-x="1499" d="M31 1497h399l328 -522l327 522h385l-550 -823v-674h-353v664zM449 1642v244h274v-244h-274zM819 1642v244h275v-244h-275z" />
<glyph unicode="&#x2c6;" horiz-adv-x="614" d="M-31 1221l242 276h203l231 -276h-219l-113 137l-120 -137h-224z" />
<glyph unicode="&#x2dc;" horiz-adv-x="614" d="M-92 1257q45 102 110.5 143.5t174.5 41.5q57 0 127.5 -56.5t105.5 -56.5q47 0 80 36t45 73l158 -78q-31 -94 -109 -148.5t-170 -54.5q-78 0 -145.5 55.5t-94.5 55.5q-94 0 -122 -86z" />
<glyph unicode="&#x2000;" horiz-adv-x="966" />
<glyph unicode="&#x2001;" horiz-adv-x="1933" />
<glyph unicode="&#x2002;" horiz-adv-x="966" />
<glyph unicode="&#x2003;" horiz-adv-x="1933" />
<glyph unicode="&#x2004;" horiz-adv-x="643" />
<glyph unicode="&#x2005;" horiz-adv-x="483" />
<glyph unicode="&#x2006;" horiz-adv-x="321" />
<glyph unicode="&#x2007;" horiz-adv-x="321" />
<glyph unicode="&#x2008;" horiz-adv-x="241" />
<glyph unicode="&#x2009;" horiz-adv-x="385" />
<glyph unicode="&#x200a;" horiz-adv-x="106" />
<glyph unicode="&#x2010;" horiz-adv-x="837" d="M59 371v258h719v-258h-719z" />
<glyph unicode="&#x2011;" horiz-adv-x="837" d="M59 371v258h719v-258h-719z" />
<glyph unicode="&#x2012;" horiz-adv-x="837" d="M59 371v258h719v-258h-719z" />
<glyph unicode="&#x2013;" horiz-adv-x="1157" d="M-2 432v232h1161v-232h-1161z" />
<glyph unicode="&#x2014;" horiz-adv-x="2314" d="M-2 410v254h2318v-254h-2318z" />
<glyph unicode="&#x2018;" horiz-adv-x="653" d="M104 1065l230 434h205l-197 -434h-238z" />
<glyph unicode="&#x2019;" horiz-adv-x="653" d="M100 1065l199 434h238l-230 -434h-207z" />
<glyph unicode="&#x201a;" horiz-adv-x="653" d="M100 -203l199 434h238l-230 -434h-207z" />
<glyph unicode="&#x201c;" horiz-adv-x="1001" d="M92 1065l230 434h206l-196 -434h-240zM475 1065l225 434h209l-196 -434h-238z" />
<glyph unicode="&#x201d;" horiz-adv-x="1001" d="M92 1065l197 434h239l-227 -434h-209zM477 1065l197 434h235l-229 -434h-203z" />
<glyph unicode="&#x201e;" horiz-adv-x="1001" d="M92 -203l197 434h239l-227 -434h-209zM477 -203l197 434h235l-229 -434h-203z" />
<glyph unicode="&#x2022;" d="M305 749.5q0 147.5 102.5 249t248 101.5t247 -102.5t101.5 -248t-101.5 -249t-247.5 -103.5q-150 0 -250 102.5t-100 250z" />
<glyph unicode="&#x2026;" horiz-adv-x="1966" d="M164 0v287h328v-287h-328zM819 0v287h326v-287h-326zM1475 0v287h327v-287h-327z" />
<glyph unicode="&#x202f;" horiz-adv-x="385" />
<glyph unicode="&#x2039;" horiz-adv-x="653" d="M96 625l217 422h287l-225 -418l223 -416h-285z" />
<glyph unicode="&#x203a;" horiz-adv-x="653" d="M90 1047h287l215 -422l-215 -412h-285l223 416z" />
<glyph unicode="&#x205f;" horiz-adv-x="483" />
<glyph unicode="&#x20ac;" horiz-adv-x="1249" d="M-72 453l88 272h150v66h-238l88 272h183q121 467 680 467q225 0 409 -60l-92 -282q-176 72 -317 72q-252 0 -316 -197h588l-88 -272h-533v-66h508l-88 -272h-395q31 -121 103.5 -174.5t207.5 -53.5q37 0 74 5.5t81 19.5t69.5 24.5t78 32t70.5 29.5v-326 q-147 -57 -367 -57q-575 0 -679 500h-265z" />
<glyph unicode="&#x2122;" horiz-adv-x="2166" d="M141 1352v145h688v-145h-241v-678h-207v678h-240zM930 674v823h350l197 -571l198 571h338v-823h-205v620l-225 -620h-229l-226 620v-620h-198z" />
<glyph unicode="&#xe000;" horiz-adv-x="1055" d="M0 1055h1055v-1055h-1055v1055z" />
<glyph unicode="&#xfb01;" horiz-adv-x="1355" d="M20 815v242h160v26q0 205 127 306.5t383 148.5l111 -256q-158 -18 -230.5 -64.5t-72.5 -146.5v-14h194v-242h-194v-815h-318v815h-160zM883 1247v250h329v-250h-329zM889 0v1057h317v-1057h-317z" />
<glyph unicode="&#xfb02;" horiz-adv-x="1355" d="M20 815v242h160v26q0 205 127 306.5t383 148.5l111 -256q-158 -18 -230.5 -64.5t-72.5 -146.5v-14h194v-242h-194v-815h-318v815h-160zM897 0v1520h317v-1520h-317z" />
<glyph unicode="&#xfb03;" horiz-adv-x="2160" d="M1689 1247v250h330v-250h-330zM1696 0v1057h315v-1057h-315zM792 815v242h160v26q0 205 127 306.5t383 148.5l111 -256q-158 -18 -230.5 -64.5t-72.5 -146.5v-14h194v-242h-194v-815h-318v815h-160zM20 815v242h160v26q0 205 127 306.5t383 148.5l111 -256 q-158 -18 -230.5 -64.5t-72.5 -146.5v-14h194v-242h-194v-815h-318v815h-160z" />
<glyph unicode="&#xfb04;" horiz-adv-x="2158" d="M1693 0v1520h318v-1520h-318zM792 815v242h160v26q0 205 127 306.5t383 148.5l111 -256q-158 -18 -230.5 -64.5t-72.5 -146.5v-14h194v-242h-194v-815h-318v815h-160zM20 815v242h160v26q0 205 127 306.5t383 148.5l111 -256q-158 -18 -230.5 -64.5t-72.5 -146.5v-14h194 v-242h-194v-815h-318v815h-160z" />
<glyph horiz-adv-x="577" />
</font>
</defs>
</svg>
