<?xml version="1.0" standalone="no"?>
<!DOCTYPE svg PUBLIC "-//W3C//DTD SVG 1.1//EN" "http://www.w3.org/Graphics/SVG/1.1/DTD/svg11.dtd" >
<svg xmlns="http://www.w3.org/2000/svg">
<metadata>
This is a custom SVG webfont generated by Font Squirrel.
Copyright   : Copyright c 2003 by This Font is designed by Ralph Oliver du Carrois All rights reserved
Foundry     : This Font is designed by Ralph Oliver du Carrois
</metadata>
<defs>
<font id="ColaborateMediumRegular" horiz-adv-x="1249" >
<font-face units-per-em="2048" ascent="1638" descent="-410" />
<missing-glyph horiz-adv-x="624" />
<glyph unicode=" "  horiz-adv-x="624" />
<glyph unicode="&#x09;" horiz-adv-x="624" />
<glyph unicode="&#xa0;" horiz-adv-x="624" />
<glyph unicode="!" horiz-adv-x="624" d="M174 0v254h277v-254h-277zM182 422v1075h260v-1075h-260z" />
<glyph unicode="&#x22;" horiz-adv-x="923" d="M174 1497h232l-19 -502h-194zM522 1497h230l-19 -502h-192z" />
<glyph unicode="#" d="M37 395v183h244l55 323h-209v182h244l71 414h217l-71 -414h188l72 414h217l-72 -414h219v-182h-254l-55 -323h219v-183h-252l-69 -395h-217l69 395h-188l-70 -395h-217l70 395h-211zM498 578h186l57 323h-188z" />
<glyph unicode="$" d="M88 1116q0 178 118 278.5t304 125.5v206h203v-200q197 -14 342 -64l-90 -245q-150 68 -252 81v-428q88 -33 149.5 -65.5t126 -87.5t98 -137t33.5 -191q0 -201 -107.5 -297t-299.5 -125v-194h-203v184q-162 2 -414 72l92 243q12 -4 59.5 -22.5t69 -26.5t58.5 -19 t69.5 -16.5t65.5 -7.5v479q-100 39 -155.5 67t-127 81t-105.5 130t-34 179zM375 1116q0 -96 139 -166v338q-139 -37 -139 -172zM709 207q125 45 125 178q0 106 -125 182v-360z" />
<glyph unicode="%" horiz-adv-x="1918" d="M100 1128q0 399 332 400q184 0 260 -101.5t76 -298.5q0 -199 -78 -306t-260 -107q-180 0 -255 106t-75 307zM287 1128q0 -150 27.5 -214t115.5 -64t120 69.5t32 210t-31 202t-119 61.5t-116.5 -67t-28.5 -198zM416 0l837 1456h228l-840 -1456h-225zM1155 385 q0 397 334 397q182 0 257 -100t75 -297q0 -201 -76 -308.5t-260 -107.5q-180 0 -255 106.5t-75 309.5zM1341 385q0 -152 29 -216.5t116 -64.5t118.5 70t31.5 211t-29.5 201.5t-117.5 60.5t-118 -66.5t-30 -195.5z" />
<glyph unicode="&#x26;" d="M106 420q0 299 250 428l-37 26q-35 27 -46 37.5t-41.5 41t-43 55t-23.5 61.5t-11 76q0 172 103 280.5t318 108.5q203 0 313.5 -96.5t110.5 -282.5q0 -207 -401 -379q-121 -51 -172 -134t-51 -218q0 -106 55 -184t182 -78q115 0 236 155v183h-205v184h463v-360 q0 -61 19.5 -186.5t19.5 -137.5h-244l-39 104q-39 -55 -123 -98t-153 -43q-201 0 -340.5 107.5t-139.5 349.5zM414 1147q0 -27 8 -51.5t24.5 -46t28.5 -36t34.5 -33.5t29.5 -26q90 39 144 85t54 118q0 178 -166 178q-157 0 -157 -188z" />
<glyph unicode="'" horiz-adv-x="624" d="M197 1497h231l-18 -502h-195z" />
<glyph unicode="(" horiz-adv-x="727" d="M125 588q0 301 52 488.5t181 420.5h240q-123 -223 -167 -417.5t-44 -491.5q0 -260 44 -450.5t177 -434.5h-237q-145 254 -195.5 437.5t-50.5 447.5z" />
<glyph unicode=")" horiz-adv-x="727" d="M125 -297q135 244 179 434.5t44 450.5q0 297 -44 491.5t-167 417.5h238q129 -233 181 -420.5t52 -488.5q0 -264 -49 -447.5t-197 -437.5h-237z" />
<glyph unicode="*" horiz-adv-x="993" d="M23 1098l53 164l344 -127l20 16l-16 352h162l-17 -360l19 -10l340 124l45 -163l-348 -82l-2 -21l227 -297l-135 -94l-197 305h-22l-205 -307l-133 100l229 293l-8 21z" />
<glyph unicode="+" d="M121 412v198h393v387h221v-387h393v-198h-393v-412h-221v412h-393z" />
<glyph unicode="," horiz-adv-x="624" d="M66 -238l108 412h277l-187 -412h-198z" />
<glyph unicode="-" horiz-adv-x="808" d="M63 412v217h685v-217h-685z" />
<glyph unicode="." horiz-adv-x="624" d="M174 0v254h277v-254h-277z" />
<glyph unicode="/" horiz-adv-x="692" d="M-10 -25l493 1545h222l-490 -1545h-225z" />
<glyph unicode="0" d="M88 713q0 354 125 539.5t410 185.5q301 0 419.5 -182.5t118.5 -542.5q0 -178 -25.5 -309.5t-84 -234.5t-166 -155.5t-264.5 -52.5q-299 0 -416 190.5t-117 561.5zM379 713q0 -113 4 -182.5t16.5 -145.5t38 -115t71.5 -65.5t110.5 -26.5t111.5 26.5t73.5 70.5t41 117 t19.5 144.5t5 176.5q0 272 -46 390t-201 118q-82 0 -132.5 -39t-74 -118t-30.5 -154.5t-7 -196.5z" />
<glyph unicode="1" d="M264 1126l361 279h282v-1407h-291v1128l-264 -211z" />
<glyph unicode="2" d="M111 238q16 12 82.5 59t99.5 72.5t101.5 77t109.5 87t98 87t91 92.5t69 88t51 89t16 83q0 250 -227 250q-141 0 -358 -117l-86 240q174 59 255 76.5t193 17.5q102 0 189.5 -22.5t163 -72t118.5 -142.5t43 -222q0 -104 -62.5 -220t-166 -218.5t-197.5 -180t-194 -145.5 h647v-217h-954z" />
<glyph unicode="3" d="M92 20l86 240q51 -27 156.5 -54.5t204.5 -27.5q119 0 187.5 62.5t68.5 154.5q0 63 -21.5 107.5t-56.5 70t-94.5 39t-119 16.5t-149.5 3v213q223 0 314.5 34.5t91.5 165.5q0 178 -207 179q-131 0 -350 -107l-84 238q72 35 210 60.5t234 25.5q487 0 488 -391 q0 -137 -90.5 -214t-227.5 -94q145 -25 248.5 -107.5t103.5 -240.5q0 -123 -50 -212t-133 -134t-174 -65.5t-196 -20.5q-266 0 -440 59z" />
<glyph unicode="4" d="M35 594l627 811h315v-813h221v-219h-221v-373h-287v373h-561zM270 592h420v543z" />
<glyph unicode="5" d="M109 16l86 238q190 -76 370 -76q279 0 279 281q0 233 -209 233q-35 0 -69 -5t-53 -9t-51 -18.5t-40 -18.5t-40 -22.5t-34 -20.5l-188 72v735h913v-217h-627v-309q90 35 209 34q219 0 348.5 -115.5t129.5 -344.5q0 -231 -164 -361.5t-406 -130.5q-284 0 -454 55z" />
<glyph unicode="6" d="M104 655q0 145 35 279.5t105.5 250t194.5 185.5t284 70q170 0 334 -45l-84 -238q-131 66 -240 66q-184 0 -270 -134.5t-86 -322.5q45 86 133 129t156 43q240 0 358.5 -132t118.5 -380q0 -205 -147.5 -335t-354.5 -130q-537 0 -537 694zM397 547q0 -215 62.5 -292 t183.5 -77q90 0 149.5 62.5t59.5 185.5v14q0 55 -5 91t-22.5 85.5t-62.5 76t-117 26.5q-180 0 -248 -172z" />
<glyph unicode="7" d="M123 1188v215h885l90 -186l-498 -1217h-311l549 1188h-715z" />
<glyph unicode="8" d="M88 358q0 305 338 383q-145 55 -205 113q-84 82 -84 201q0 184 125 284.5t369 100.5q262 0 378.5 -91.5t116.5 -291.5q0 -98 -59 -172t-121.5 -104.5t-122.5 -43.5q170 -43 254 -132t84 -247q0 -397 -540 -397q-533 0 -533 397zM373 367q0 -86 60.5 -138.5t187.5 -52.5 q256 0 256 191q0 109 -67 170t-183 100q-125 -43 -189.5 -99t-64.5 -171zM420 1047q0 -139 203 -209q221 72 221 209q0 86 -45 132t-168 46q-119 0 -165 -45t-46 -133z" />
<glyph unicode="9" d="M106 973q0 203 152 335t350 132q133 0 231.5 -41t155 -104.5t92 -159t47 -186.5t11.5 -204q0 -145 -35 -279t-104.5 -250t-193.5 -185.5t-284 -69.5q-172 0 -335 43l86 240q129 -66 237 -66q184 0 270 134t86 323q-43 -86 -131 -129t-157 -43q-240 0 -359 131t-119 379z M397 958q0 -43 3 -71.5t13.5 -71.5t31 -69.5t61.5 -46t98 -19.5q180 0 248 174q0 215 -62.5 292t-183.5 77q-90 0 -149.5 -64.5t-59.5 -185.5v-15z" />
<glyph unicode=":" horiz-adv-x="624" d="M174 0v254h277v-254h-277zM174 791v256h277v-256h-277z" />
<glyph unicode=";" horiz-adv-x="624" d="M66 -238l108 412h277l-187 -412h-198zM174 791v256h277v-256h-277z" />
<glyph unicode="&#x3c;" d="M104 426v279l1041 344v-252l-778 -232l778 -227v-252z" />
<glyph unicode="=" d="M104 160v198h1041v-198h-1041zM104 559v201h1041v-201h-1041z" />
<glyph unicode="&#x3e;" d="M104 86v252l781 231l-781 228v252l1041 -340v-279z" />
<glyph unicode="?" horiz-adv-x="1062" d="M119 1452q76 25 200.5 46.5t206.5 21.5q68 0 123.5 -5.5t123 -29t112.5 -62.5t76.5 -113.5t31.5 -174.5q0 -78 -40 -141.5t-96 -108.5t-111.5 -88t-95.5 -94.5t-40 -110.5v-184h-258v196q0 88 37 156.5t90 111.5t106.5 81t90.5 83t37 99q0 86 -41 123.5t-146 37.5 q-68 0 -187.5 -25.5t-178.5 -56.5zM342 0v254h279v-254h-279z" />
<glyph unicode="@" horiz-adv-x="2080" d="M184 741q0 262 129 444.5t334 262.5t469 80q100 0 203.5 -19.5t209 -67.5t186.5 -120t132 -185.5t51 -252.5q0 -168 -62 -287t-173 -182.5t-238 -93t-278 -29.5q-262 0 -401.5 117.5t-139.5 336.5q0 195 121 318t365 123q150 0 254 -33v-354h45l71 -191l-354 -30v397 q-18 10 -37 10q-209 0 -209 -240q0 -264 291 -264q115 0 191.5 12.5t149.5 52.5t107.5 122t34.5 212t-46 222t-126 138t-165 65.5t-183 19.5q-80 0 -155.5 -10t-173 -47t-169 -97.5t-122 -171t-50.5 -258.5q0 -152 51.5 -263t124 -171.5t173 -95.5t175 -44t154.5 -9 q205 0 494 73l90 -215q-272 -59 -590 -59q-422 0 -678 197.5t-256 586.5z" />
<glyph unicode="A" horiz-adv-x="1574" d="M68 0l608 1497h268l565 -1497h-321l-135 399h-535l-141 -399h-309zM600 621h379l-182 553z" />
<glyph unicode="B" horiz-adv-x="1445" d="M217 0v1497h531q504 0 503 -412q0 -113 -65.5 -191.5t-171.5 -109.5q143 -20 225 -107t82 -239q0 -438 -498 -438h-606zM510 225h301q211 0 211 213q0 221 -238 221h-274v-434zM510 883h270q78 0 127 51t49 149q0 190 -208 191h-238v-391z" />
<glyph unicode="C" horiz-adv-x="1329" d="M137 748q0 164 36 298t112.5 246.5t217 174t333.5 61.5q211 0 395 -62l-90 -243q-190 80 -305 80q-213 0 -305.5 -140.5t-92.5 -412.5q0 -287 89 -428.5t294 -141.5q27 0 50.5 2t50 8.5t45 11.5t49.5 15t43 15l49 21q37 15 49 19l90 -243q-203 -72 -422 -72 q-688 0 -688 791z" />
<glyph unicode="D" horiz-adv-x="1556" d="M217 0v1497h490q369 0 541.5 -171t172.5 -572q0 -406 -170 -580t-544 -174h-490zM510 225h217q195 0 294 110.5t99 416.5q0 172 -29.5 280.5t-92 158.5t-128 66.5t-163.5 16.5h-197v-1049z" />
<glyph unicode="E" horiz-adv-x="1343" d="M217 0v1497h889v-223h-596v-387h547v-225h-547v-437h616v-225h-909z" />
<glyph unicode="F" horiz-adv-x="1224" d="M217 0v1497h889v-227h-596v-393h569v-222h-569v-655h-293z" />
<glyph unicode="G" horiz-adv-x="1466" d="M137 750q0 365 173 571.5t538 206.5q145 0 377 -62l-90 -243q-186 80 -285 80q-199 0 -305.5 -123t-106.5 -430q0 -287 87 -428.5t309 -141.5q139 0 237 58v337h-330v226h590v-711q-123 -72 -234.5 -102.5t-271.5 -30.5q-688 0 -688 793z" />
<glyph unicode="H" horiz-adv-x="1599" d="M217 0v1497h293v-610h582v610h292v-1497h-292v659h-582v-659h-293z" />
<glyph unicode="I" horiz-adv-x="669" d="M190 0v1497h291v-1497h-291z" />
<glyph unicode="J" horiz-adv-x="1024" d="M33 0q16 2 63 11t67.5 14.5t63.5 16.5t65.5 21.5t58.5 29t55.5 41t44 53t36 67.5t20.5 87t9 108v1048h291v-1024q0 -106 -23.5 -197.5t-58.5 -155t-96.5 -117.5t-113.5 -88t-134 -66.5t-134 -49t-138 -41.5z" />
<glyph unicode="K" horiz-adv-x="1523" d="M217 0v1497h293v-631l553 631h328l-611 -702l713 -795h-377l-606 682v-682h-293z" />
<glyph unicode="L" horiz-adv-x="1144" d="M217 0v1497h293v-1266h623v-231h-916z" />
<glyph unicode="M" horiz-adv-x="2140" d="M217 0v1497h479l379 -1106l389 1106h459v-1497h-287v1188l-422 -1188h-299l-419 1188v-1188h-279z" />
<glyph unicode="N" horiz-adv-x="1681" d="M217 0v1497h434l527 -1153v1153h286v-1497h-436l-532 1153v-1153h-279z" />
<glyph unicode="O" horiz-adv-x="1677" d="M137 743q0 356 169 570.5t538 214.5q698 0 698 -785q0 -362 -166 -574t-534 -212q-705 0 -705 786zM438 743q0 -303 95.5 -433t308.5 -130q211 0 305 138.5t94 424.5q0 295 -96 427.5t-303 132.5t-305.5 -134.5t-98.5 -425.5z" />
<glyph unicode="P" horiz-adv-x="1386" d="M217 0v1497h526q530 0 531 -448q0 -463 -506 -463h-258v-586h-293zM510 811h240q227 0 227 238q0 139 -63.5 182t-176.5 43h-227v-463z" />
<glyph unicode="Q" horiz-adv-x="1677" d="M137 743q0 358 168 571.5t539 213.5q698 0 698 -785q0 -362 -166 -574t-534 -212q-705 0 -705 786zM438 743q0 -303 95.5 -433t308.5 -130q211 0 305 138.5t94 424.5q0 295 -96 427.5t-303 132.5t-305.5 -134.5t-98.5 -425.5zM748 -262l100 162l522 -47l-100 -193z" />
<glyph unicode="R" horiz-adv-x="1484" d="M217 0v1497h561q98 0 180 -18.5t160 -63.5t122 -134t44 -216q0 -168 -87 -285.5t-284 -148.5l473 -631h-356l-457 623h-63v-623h-293zM510 848h281q98 0 148 59.5t50 156.5t-50 153.5t-151 56.5h-278v-426z" />
<glyph unicode="S" horiz-adv-x="1374" d="M147 29l91 243q248 -92 362 -92q158 0 239 43t81 162q0 23 -6.5 44.5t-14.5 38.5t-26 35l-29 29q-12 12 -39 27.5t-42 24t-51 23t-51.5 19.5t-55.5 21.5t-54 22.5q-90 35 -149.5 65.5t-124 82.5t-97.5 126t-33 172q0 141 90.5 236.5t217.5 135.5t274 40q231 0 422 -66 l-90 -245q-201 86 -338 86q-150 0 -214.5 -54.5t-64.5 -132.5q0 -33 16.5 -61.5t36 -47t63.5 -40t71.5 -32.5t87.5 -32q16 -8 26 -10q104 -37 168 -66.5t144 -88t118.5 -146.5t38.5 -203q0 -432 -616 -432q-187 0 -451 72z" />
<glyph unicode="T" horiz-adv-x="1216" d="M51 1270v227h1116v-227h-413v-1270h-291v1270h-412z" />
<glyph unicode="U" horiz-adv-x="1671" d="M217 553v944h293v-922q0 -231 90 -313t252 -82q311 0 311 395v922h293v-948q0 -295 -155.5 -443.5t-448.5 -148.5q-635 0 -635 596z" />
<glyph unicode="V" horiz-adv-x="1507" d="M66 1497h321l383 -1139l365 1139h309l-547 -1497h-268z" />
<glyph unicode="W" horiz-adv-x="2236" d="M78 1497h309l250 -1143l328 1082h360l274 -1082l275 1143h285l-383 -1497h-363l-291 1047l-342 -1047h-360z" />
<glyph unicode="X" horiz-adv-x="1462" d="M70 0l499 772l-440 725h336l276 -469l293 469h314l-459 -713l489 -784h-344l-309 541l-344 -541h-311z" />
<glyph unicode="Y" horiz-adv-x="1431" d="M33 1497h329l365 -573l358 573h316l-541 -823v-674h-291v664z" />
<glyph unicode="Z" horiz-adv-x="1296" d="M100 236l785 1034h-701v227h938l76 -235l-782 -1035h764v-227h-1004z" />
<glyph unicode="[" horiz-adv-x="704" d="M193 -295v1860h405v-187h-184v-1480h184v-193h-405z" />
<glyph unicode="\" horiz-adv-x="692" d="M-10 1520h221l494 -1545h-226z" />
<glyph unicode="]" horiz-adv-x="704" d="M131 -102h184v1480h-184v187h406v-1860h-406v193z" />
<glyph unicode="^" d="M74 623l420 874h254l428 -874h-244l-309 675l-314 -675h-235z" />
<glyph unicode="_" horiz-adv-x="1157" d="M-2 -70h1161v-198h-1161v198z" />
<glyph unicode="`" horiz-adv-x="571" d="M43 1497h262l223 -270h-180z" />
<glyph unicode="a" horiz-adv-x="1206" d="M100 279q0 385 580 385h88v51q0 76 -29.5 124t-120.5 48q-193 0 -387 -92l-90 215q217 78 490 77q184 0 292.5 -86t108.5 -251v-426q0 -49 18.5 -171t22.5 -153h-248l-39 106q-141 -137 -274 -137q-203 0 -307.5 79t-104.5 231zM373 289q0 -117 186 -117q133 0 211 109 v206h-57q-180 0 -260 -49t-80 -149z" />
<glyph unicode="b" horiz-adv-x="1228" d="M125 0q29 215 29 324v1196h260v-600q123 168 278 167q223 0 329.5 -155.5t106.5 -396t-122.5 -403.5t-350.5 -163q-88 0 -151.5 43t-95.5 94l-41 -106h-242zM410 319q70 -147 202 -147q248 0 248 358q0 356 -217 357q-76 0 -128 -53.5t-105 -151.5v-363z" />
<glyph unicode="c" horiz-adv-x="1073" d="M100 520q0 264 134.5 415.5t394.5 151.5q68 0 181.5 -24.5t174.5 -48.5l-90 -215q-176 88 -268 88q-133 0 -195.5 -84t-62.5 -283q0 -348 256 -348q109 0 280 88l90 -217q-57 -27 -181 -50.5t-191 -23.5q-252 0 -387.5 150.5t-135.5 400.5z" />
<glyph unicode="d" horiz-adv-x="1228" d="M100 535q0 238 111 395t326 157q156 0 278 -167v600h260v-1196q0 -109 29 -324h-242l-41 106q-33 -51 -96 -94t-152 -43q-248 0 -360.5 158t-112.5 408zM369 530q0 -203 59 -280.5t188 -77.5q133 0 203 147v363q-53 98 -105 151.5t-128 53.5q-217 -1 -217 -357z" />
<glyph unicode="e" horiz-adv-x="1204" d="M100 518q0 100 23.5 193.5t78 181.5t158 141t242.5 53q270 0 385 -159.5t115 -499.5h-727q16 -127 80.5 -195.5t173.5 -68.5q152 0 332 90l86 -201q-184 -84 -437 -84q-244 0 -377 158t-133 391zM375 616h475q-16 270 -250 271q-84 0 -151.5 -62t-73.5 -209z" />
<glyph unicode="f" horiz-adv-x="772" d="M25 856v201h159v30q0 117 50.5 208t131 145.5t168 84t175.5 38.5l63 -215q-164 -16 -245 -71.5t-81 -168.5v-51h242v-201h-242v-856h-262v856h-159z" />
<glyph unicode="g" horiz-adv-x="1259" d="M88 -166q0 131 172 201q-135 59 -135 196q0 94 123 185q-106 135 -107 272q0 57 18.5 115.5t63.5 127t148.5 112.5t249.5 44q74 0 178 -20q285 23 397 27l-68 -174h-129q106 -106 107 -236q0 -74 -24.5 -140.5t-76 -128t-149.5 -98t-231 -36.5q-39 0 -117 11t-115 27 q-49 -25 -49 -75q0 -43 61.5 -61.5t256.5 -35.5q301 -23 409.5 -95t108.5 -212q0 -84 -46.5 -145.5t-126 -94t-171 -49t-197.5 -16.5q-299 0 -425 78t-126 221zM356 -158q0 -53 83 -83.5t200 -30.5q156 0 214 23.5t58 88.5q0 94 -479 107q-76 -37 -76 -105zM410 682 q0 -205 217 -205q111 0 161 63.5t50 151.5q0 94 -53.5 146.5t-159.5 52.5q-215 0 -215 -209z" />
<glyph unicode="h" horiz-adv-x="1222" d="M154 0v1520h260v-600q127 170 276 170q217 0 299 -110t82 -314v-666h-260v678q0 49 -5 78.5t-20.5 63.5t-50.5 51.5t-90 17.5q-129 0 -231 -199v-690h-260z" />
<glyph unicode="i" horiz-adv-x="571" d="M147 1270v227h277v-227h-277zM156 0v1057h260v-1057h-260z" />
<glyph unicode="j" horiz-adv-x="563" d="M-70 -238q121 25 168 76t47 156v1063h263v-1043q0 -188 -103.5 -296.5t-284.5 -170.5zM137 1270v227h279v-227h-279z" />
<glyph unicode="k" horiz-adv-x="1126" d="M154 0v1520h260v-879l348 416h282l-385 -457l441 -600h-301l-385 530v-530h-260z" />
<glyph unicode="l" horiz-adv-x="565" d="M154 0v1520h260v-1520h-260z" />
<glyph unicode="m" horiz-adv-x="1873" d="M125 1057h242l41 -142q39 59 117.5 117t162.5 58q131 0 198.5 -37t139.5 -133q106 170 324 170q373 0 372 -414v-676h-262v672q0 117 -34.5 167t-114.5 50q-88 0 -152.5 -60.5t-95.5 -150.5v-678h-262v672q0 127 -37 172t-125 45q-72 0 -132.5 -63.5t-92.5 -133.5v-692 h-260v815q0 51 -13.5 135t-15.5 107z" />
<glyph unicode="n" horiz-adv-x="1222" d="M125 1057h242l41 -137q4 4 24.5 28.5t34.5 36.5t42 35.5t52.5 36t59 23t69.5 10.5q217 0 299 -110t82 -314v-666h-260v678q0 49 -5 78.5t-20.5 63.5t-50.5 51.5t-90 17.5q-133 0 -231 -199v-690h-260v834q0 39 -5.5 75.5t-13.5 79.5t-10 68z" />
<glyph unicode="o" horiz-adv-x="1241" d="M100 535q0 244 128 399.5t395 155.5q270 0 395 -153t125 -402q0 -119 -29 -218.5t-88 -179.5t-162.5 -125t-240.5 -45q-268 0 -395.5 159t-127.5 409zM369 535q0 -367 254 -367q252 0 251 367q0 193 -58 273.5t-193 80.5q-129 0 -191.5 -82t-62.5 -272z" />
<glyph unicode="p" horiz-adv-x="1228" d="M125 1057h242l45 -137q123 170 264 170q233 0 342.5 -159t109.5 -409q0 -238 -110.5 -396.5t-325.5 -158.5q-76 0 -154.5 38t-123.5 99v-520h-260v1149q0 109 -29 324zM410 322q86 -154 233 -154q217 0 217 360q0 201 -59.5 281t-188.5 80q-111 0 -202 -197v-370z" />
<glyph unicode="q" horiz-adv-x="1228" d="M100 522q0 246 114 407t339 161q88 0 158.5 -54.5t105.5 -115.5l45 137h242q-29 -215 -29 -324v-1149h-260v520q-45 -61 -124 -99t-154 -38q-156 0 -257.5 80t-140.5 199.5t-39 275.5zM369 528q0 -360 217 -360q147 0 233 154v370q-92 197 -209 197q-125 0 -183 -80 t-58 -281z" />
<glyph unicode="r" horiz-adv-x="901" d="M125 1057h242l41 -180q39 70 114.5 141.5t149.5 71.5q104 0 200 -52l-90 -215q-86 66 -153 66q-20 0 -39 -6t-35 -19.5t-29.5 -27t-28 -35t-23.5 -35.5t-20.5 -41t-16.5 -36t-13 -32l-10 -26v-631h-260v821q0 47 -5.5 91t-13.5 89.5t-10 55.5z" />
<glyph unicode="s" horiz-adv-x="1042" d="M88 41l90 215q20 -6 78.5 -29.5t82 -31t69 -17.5t90.5 -10q111 0 146.5 31.5t35.5 87.5q0 33 -32 57.5t-66.5 36.5t-106.5 33q-82 25 -130 45t-110.5 59t-94 104.5t-31.5 153.5q0 313 448 314q154 0 365 -68l-91 -215q-8 6 -33.5 17.5t-31.5 13.5t-28.5 11t-31 11 t-25.5 9.5t-28.5 10.5t-28 5t-33 3t-32.5 1q-182 0 -182 -107q0 -47 48 -73.5t148 -55.5l105 -35q37 -12 97.5 -42.5t91 -65.5t56 -92.5t25.5 -128.5q0 -117 -68.5 -193t-166 -102.5t-219.5 -26.5q-199 0 -406 74z" />
<glyph unicode="t" horiz-adv-x="774" d="M31 856v205h176v280h260v-280h248v-205h-248v-600q0 -106 71.5 -163.5t215.5 -92.5l-70 -225q-207 53 -342 182t-135 322v577h-176z" />
<glyph unicode="u" horiz-adv-x="1206" d="M154 391v666h260v-678q0 -45 5 -77t18.5 -65.5t48 -51t85.5 -17.5q125 0 224 201v688h260v-832q0 -41 5 -77.5t13 -79.5t10 -68h-241l-41 139q-4 -4 -30 -34.5t-44 -48t-50 -42t-70 -36t-79 -11.5q-207 0 -290.5 111.5t-83.5 312.5z" />
<glyph unicode="v" horiz-adv-x="1241" d="M84 1057h278l267 -750l258 750h272l-409 -1057h-256z" />
<glyph unicode="w" horiz-adv-x="1843" d="M70 1057h278l234 -738l233 646h256l223 -646l213 738h269l-351 -1057h-272l-217 647l-242 -647h-274z" />
<glyph unicode="x" horiz-adv-x="1142" d="M53 0l381 535l-356 522h295l209 -330l217 330h272l-360 -506l379 -551h-293l-228 352l-241 -352h-275z" />
<glyph unicode="y" horiz-adv-x="1224" d="M84 1057h278l273 -719l235 719h273l-443 -1225q-53 -147 -146 -245.5t-255 -153.5l-88 215q164 45 203 151l92 244z" />
<glyph unicode="z" horiz-adv-x="1026" d="M59 215l615 641h-539v201h742l90 -215l-607 -641h570v-201h-780z" />
<glyph unicode="{" horiz-adv-x="901" d="M111 514v201q72 2 110.5 45t50 111.5t18.5 149.5t26.5 163t58.5 150.5t129 113.5t227 49v-201q-94 0 -140 -57t-57.5 -144t-19.5 -180.5t-49 -178.5t-127 -126q88 -33 131 -115.5t50 -176t17.5 -182.5t55.5 -148.5t139 -59.5v-200q-158 4 -252 63t-124.5 143t-48 183.5 t-22.5 185.5t-47 144.5t-126 66.5z" />
<glyph unicode="|" horiz-adv-x="624" d="M201 -385v2009h223v-2009h-223z" />
<glyph unicode="}" horiz-adv-x="901" d="M172 -72q94 0 139 59.5t55.5 148.5t17.5 182.5t50 176.5t131 115q-86 41 -128 126t-50 178.5t-18.5 180.5t-56.5 144t-140 57v201q135 -4 225 -49t130 -113.5t59.5 -150.5t27 -163t18.5 -149.5t49 -111.5t110 -45v-201q-82 -8 -124 -66.5t-48.5 -144.5t-23.5 -185.5 t-47 -183.5t-125 -143t-251 -63v200z" />
<glyph unicode="~" d="M68 475q0 123 82.5 206t230.5 83q100 0 196.5 -51t160 -102.5t81.5 -51.5q84 0 121 36t37 138l205 -110q0 -123 -84 -206t-236 -83q-90 0 -182 52t-157.5 103.5t-94.5 51.5q-80 0 -118 -38t-38 -141z" />
<glyph unicode="&#xa1;" horiz-adv-x="624" d="M174 1243v254h277v-254h-277zM182 0v1075h260v-1075h-260z" />
<glyph unicode="&#xa2;" horiz-adv-x="1060" d="M100 520q0 233 103.5 380t308.5 179v217h211v-217q133 -23 252 -65l-90 -215q-82 41 -162 69v-680q66 18 170 72l90 -217q-72 -33 -260 -63v-211h-211v211q-203 33 -307.5 177t-104.5 363zM369 520q0 -258 143 -325v673q-143 -57 -143 -348z" />
<glyph unicode="&#xa3;" d="M102 692v201h172v14q0 147 41 260t103.5 178.5t161 111.5t186.5 66.5t209 32.5l76 -239q-225 -12 -306 -47q-178 -76 -178 -363v-14h348v-201h-348v-461h631v-231h-1071v231h147v461h-172z" />
<glyph unicode="&#xa4;" d="M-2 483l72 226h159v98h-231l72 225h186q111 496 649 496q211 0 395 -62l-75 -237q-174 74 -320 74q-279 0 -348 -271h604l-71 -225h-560v-98h531l-72 -226h-438q27 -152 108.5 -227.5t231.5 -75.5q31 0 62.5 5t57 10.5t62.5 19.5l55 22q18 7 61.5 24.5t59.5 23.5v-273 q-162 -55 -354 -55q-551 0 -645 526h-252z" />
<glyph unicode="&#xa5;" d="M0 1497h324l311 -582l309 582h305l-430 -737h242v-201h-293v-117h293v-198h-293v-244h-291v244h-293v198h293v117h-293v201h240z" />
<glyph unicode="&#xa6;" horiz-adv-x="624" d="M201 -180v540h223v-540h-223zM201 831v541h223v-541h-223z" />
<glyph unicode="&#xa7;" horiz-adv-x="1042" d="M82 770q0 170 129 242q-92 80 -92 200q0 315 448 316q133 0 340 -68l-90 -213q-6 2 -54 25.5t-64.5 29t-54.5 14.5t-75 9q-182 0 -182 -104q0 -47 58.5 -79t144.5 -55.5t170 -58.5t143.5 -111.5t59.5 -189.5q0 -152 -113 -233q66 -80 65 -209q0 -119 -67.5 -194 t-163.5 -101.5t-219 -26.5q-162 0 -371 74l90 215q18 -6 64.5 -28.5t70 -32t65.5 -18.5t85 -9q113 0 145.5 30.5t32.5 88.5q0 49 -57.5 79.5t-142.5 53t-167.5 55.5t-140 108.5t-57.5 190.5zM344 772q0 -25 15.5 -44t51 -35.5t63.5 -27t83 -27.5t84 -28q57 35 57 115 q0 35 -18 60.5t-63.5 47t-79 34t-105.5 34.5q-88 -31 -88 -129z" />
<glyph unicode="&#xa8;" horiz-adv-x="571" d="M-16 1282v215h235v-215h-235zM352 1282v215h236v-215h-236z" />
<glyph unicode="&#xa9;" horiz-adv-x="1665" d="M57 749.5q0 325.5 224.5 550t552.5 224.5q330 0 552 -222.5t222 -551.5q0 -326 -224.5 -549.5t-551 -223.5t-551 223.5t-224.5 549zM217 750q0 -256 179 -441.5t436.5 -185.5t436.5 185.5t179 441.5q0 260 -178 443t-436 183q-262 0 -439.5 -182t-177.5 -444zM424 745 q0 209 98.5 338t319.5 129q139 0 239 -34l-55 -148q-113 49 -184 49q-127 0 -182.5 -84t-55.5 -247q0 -172 53.5 -257t178.5 -85q70 0 200 55l54 -148q-117 -43 -252 -43q-414 0 -414 475z" />
<glyph unicode="&#xaa;" d="M328 1057q0 219 350 219h51v27q0 39 -17.5 60t-72.5 21q-121 0 -231 -51l-54 127q137 43 293 43q113 0 183.5 -47t70.5 -137v-236l25 -178h-162l-23 60q-88 -76 -166 -76q-247 0 -247 168zM498 1065q0 -55 106 -55q76 0 127 63v88h-35q-111 0 -154.5 -21.5t-43.5 -74.5z " />
<glyph unicode="&#xab;" horiz-adv-x="948" d="M53 625l215 422h242l-225 -418l221 -416h-238zM442 625l215 422h240l-223 -418l221 -416h-238z" />
<glyph unicode="&#xac;" d="M70 606v199h1099v-602h-223v403h-876z" />
<glyph unicode="&#xad;" horiz-adv-x="808" d="M63 412v217h685v-217h-685z" />
<glyph unicode="&#xae;" horiz-adv-x="1665" d="M57 749.5q0 325.5 224.5 550t552.5 224.5q330 0 552 -222.5t222 -551.5q0 -326 -224.5 -549.5t-551 -223.5t-551 223.5t-224.5 549zM217 750q0 -256 179 -441.5t436.5 -185.5t436.5 185.5t179 441.5q0 260 -178 443t-436 183q-262 0 -439.5 -182t-177.5 -444zM510 299 v901h334q131 0 219 -58.5t88 -203.5q0 -227 -223 -260l282 -379h-213l-274 375h-39v-375h-174zM684 807h170q57 0 88 36t31 95q0 125 -121 125h-168v-256z" />
<glyph unicode="&#xaf;" horiz-adv-x="571" d="M-14 1260v192h600v-192h-600z" />
<glyph unicode="&#xb0;" horiz-adv-x="993" d="M104 1037q0 167 116 277.5t277.5 110.5t277.5 -110.5t116 -278.5q0 -164 -116 -272.5t-279 -108.5q-162 0 -277 107.5t-115 274.5zM272 1036q0 -90 67 -155.5t157 -65.5t156.5 65.5t66.5 155.5q0 100 -62.5 165t-160 65t-161 -65t-63.5 -165z" />
<glyph unicode="&#xb1;" d="M104 0v199h1041v-199h-1041zM121 551v199h393v247h221v-247h393v-199h-393v-272h-221v272h-393z" />
<glyph unicode="&#xb2;" horiz-adv-x="843" d="M104 877q18 12 94 60t122.5 81t105.5 80t90 91t31 81q0 76 -39 99.5t-105 23.5q-90 0 -219 -62l-49 144q168 53 271 53q135 0 232 -59.5t97 -192.5q0 -47 -30.5 -99.5t-66.5 -89t-104.5 -87t-99.5 -71t-96 -59.5h399v-135h-583z" />
<glyph unicode="&#xb3;" horiz-adv-x="843" d="M113 748l51 143q88 -43 217 -43q72 0 116 29.5t44 76.5q0 76 -65.5 100.5t-205.5 24.5v127q135 0 192.5 19.5t57.5 85.5q0 82 -129 82q-82 0 -211 -58l-51 146q100 47 266 47q150 0 232 -54.5t82 -160.5q0 -74 -54.5 -117t-138.5 -53q86 -10 149.5 -58.5t63.5 -134.5 q0 -88 -59.5 -143t-132 -73.5t-160.5 -18.5q-160 0 -264 33z" />
<glyph unicode="&#xb4;" horiz-adv-x="571" d="M43 1227l223 270h262l-303 -270h-182z" />
<glyph unicode="&#xb5;" d="M174 -416v1473h260v-678q0 -45 5 -77t19.5 -65.5t48.5 -51t85 -17.5q72 0 123 60.5t100 162.5v666h260v-832q0 -41 5 -77.5t13.5 -79.5t10.5 -68h-242l-41 139q-4 -4 -29.5 -34.5t-44 -48t-50 -42t-69.5 -36t-79 -11.5q-70 0 -115 27v-410h-260z" />
<glyph unicode="&#x3bc;" d="M174 -416v1473h260v-678q0 -45 5 -77t19.5 -65.5t48.5 -51t85 -17.5q72 0 123 60.5t100 162.5v666h260v-832q0 -41 5 -77.5t13.5 -79.5t10.5 -68h-242l-41 139q-4 -4 -29.5 -34.5t-44 -48t-50 -42t-69.5 -36t-79 -11.5q-70 0 -115 27v-410h-260z" />
<glyph unicode="&#xb6;" d="M92 1049q0 55 8.5 108t37 117.5t75.5 111t130 79t192 32.5h659v-1931h-221v1730h-232q-113 0 -183.5 -72.5t-70.5 -205.5q0 -102 71 -180t157 -103v-1169h-221v1032q-205 31 -303.5 162t-98.5 289z" />
<glyph unicode="&#xb7;" horiz-adv-x="624" d="M184 500v258h256v-258h-256z" />
<glyph unicode="&#xb8;" horiz-adv-x="571" d="M0 -479l55 180q147 -18 174 -18q111 0 111 86q0 47 -35 65.5t-149 18.5l47 182h207l-23 -92q78 0 120 -53.5t42 -116.5q0 -127 -94.5 -199t-212.5 -72q-107 1 -242 19z" />
<glyph unicode="&#xb9;" horiz-adv-x="843" d="M180 1346l215 151h172v-772h-188v608l-146 -116z" />
<glyph unicode="&#xba;" d="M305 1223q0 131 81 218t241 87q164 0 242.5 -85t78.5 -220t-81 -224.5t-240 -89.5q-162 0 -242 88.5t-80 225.5zM475 1223q0 -193 152 -193t151 193q0 100 -39 142t-112 42q-152 0 -152 -184z" />
<glyph unicode="&#xbb;" horiz-adv-x="948" d="M53 1047h242l215 -422l-215 -412h-240l224 416zM442 1047h240l215 -422l-215 -412h-238l222 416z" />
<glyph unicode="&#xbc;" horiz-adv-x="1918" d="M147 1346l215 151h191l-18 -772h-187v608l-147 -116zM328 0l839 1456h226l-840 -1456h-225zM981 334l377 438h203v-438h125v-135h-125v-199h-187v199h-336zM1137 334h237v274z" />
<glyph unicode="&#xbd;" horiz-adv-x="1918" d="M139 1346l215 151h187l-15 -772h-188v608l-145 -116zM317 0l857 1456h208l-841 -1456h-224zM1124 141q18 12 95 60.5t122 81t105.5 80t90.5 91.5t30 81q0 74 -38 98t-106 24q-90 0 -217 -63l-51 143q168 53 270 54q137 0 234.5 -58.5t97.5 -193.5q0 -45 -31.5 -97.5 t-67.5 -89.5t-104.5 -87t-99.5 -70.5t-96 -59.5h401v-135h-585z" />
<glyph unicode="&#xbe;" horiz-adv-x="1918" d="M113 748l51 143q88 -43 217 -43q72 0 116 29.5t44 76.5q0 76 -65.5 100.5t-205.5 24.5v127q135 0 192.5 19.5t57.5 85.5q0 82 -129 82q-82 0 -211 -58l-51 146q100 47 266 47q150 0 232 -54.5t82 -160.5q0 -74 -54.5 -117t-138.5 -53q86 -10 149.5 -58.5t63.5 -134.5 q0 -88 -59.5 -143t-132 -73.5t-160.5 -18.5q-160 0 -264 33zM406 0l837 1456h227l-841 -1456h-223zM1026 334l377 438h201v-438h125v-135h-125v-199h-185v199h-336zM1180 334h239v274z" />
<glyph unicode="&#xbf;" horiz-adv-x="1062" d="M119 362q0 78 39 141.5t95 108.5t112.5 88t95.5 95.5t39 109.5v185h260v-197q0 -88 -38 -155.5t-91 -111.5t-105.5 -82t-90.5 -83t-38 -99q0 -84 41 -122.5t148 -38.5q68 0 186.5 25.5t177.5 56.5l43 -236q-78 -27 -202.5 -48.5t-204.5 -21.5q-70 0 -124 5.5t-123 29 t-114 62.5t-75.5 113.5t-30.5 174.5zM492 1243v254h276v-254h-276z" />
<glyph unicode="&#xc0;" horiz-adv-x="1574" d="M68 0l608 1497h268l565 -1497h-321l-135 399h-535l-141 -399h-309zM555 1872h262l221 -270h-180zM600 621h379l-182 553z" />
<glyph unicode="&#xc1;" horiz-adv-x="1574" d="M68 0l608 1497h268l565 -1497h-321l-135 399h-535l-141 -399h-309zM571 1602l226 270h258l-303 -270h-181zM600 621h379l-182 553z" />
<glyph unicode="&#xc2;" horiz-adv-x="1574" d="M68 0l608 1497h268l565 -1497h-321l-135 399h-535l-141 -399h-309zM485 1606l230 270h180l223 -270h-190l-123 149l-129 -149h-191zM600 621h379l-182 553z" />
<glyph unicode="&#xc3;" horiz-adv-x="1574" d="M68 0l608 1497h268l565 -1497h-321l-135 399h-535l-141 -399h-309zM440 1640q41 98 100.5 136.5t157.5 38.5q53 0 124 -52.5t104 -52.5q43 0 74.5 34t43.5 71l138 -66q-27 -86 -96.5 -136t-155.5 -50q-68 0 -135.5 52t-98.5 52q-88 0 -118 -90zM600 621h379l-182 553z " />
<glyph unicode="&#xc4;" horiz-adv-x="1574" d="M68 0l608 1497h268l565 -1497h-321l-135 399h-535l-141 -399h-309zM500 1565v215h235v-215h-235zM600 621h379l-182 553zM868 1565v215h236v-215h-236z" />
<glyph unicode="&#xc5;" horiz-adv-x="1574" d="M68 0l608 1497h268l565 -1497h-321l-135 399h-535l-141 -399h-309zM600 621h379l-182 553zM629 1742q0 79 56 135t137 56t136.5 -55t55.5 -135t-55.5 -135.5t-137.5 -55.5q-78 0 -135 55.5t-57 134.5zM725 1745q0 -35 27.5 -65.5t68.5 -30.5q47 0 70.5 27.5t23.5 68.5 t-24.5 68.5t-69.5 27.5q-41 0 -68.5 -29.5t-27.5 -66.5z" />
<glyph unicode="&#xc6;" horiz-adv-x="2285" d="M68 0l847 1497h1133v-223h-772l61 -387h662v-225h-623l78 -437h614v-225h-864l-61 399h-527l-217 -399h-331zM733 621h377l-80 555z" />
<glyph unicode="&#xc7;" horiz-adv-x="1329" d="M137 748q0 164 36 299t112.5 246.5t217 174t333.5 62.5q203 0 395 -64l-90 -243q-195 82 -305 82q-213 0 -305.5 -141.5t-92.5 -413.5q0 -287 89 -429.5t294 -142.5q37 0 69 3t73 17.5t56 18.5t71.5 28.5t66.5 26.5l90 -243q-199 -72 -409 -76l-2 -10q78 0 123 -54.5 t45 -115.5q0 -127 -95.5 -199t-218.5 -72q-106 0 -241 19l55 182q150 -18 174 -18q111 0 110 84q0 47 -34.5 65.5t-149.5 18.5l33 118q-500 103 -500 777z" />
<glyph unicode="&#xc8;" horiz-adv-x="1343" d="M217 0v1497h889v-223h-596v-387h547v-225h-547v-437h616v-225h-909zM393 1872h262l222 -270h-181z" />
<glyph unicode="&#xc9;" horiz-adv-x="1343" d="M217 0v1497h889v-223h-596v-387h547v-225h-547v-437h616v-225h-909zM375 1567l223 270h260l-303 -270h-180z" />
<glyph unicode="&#xca;" horiz-adv-x="1343" d="M217 0v1497h889v-223h-596v-387h547v-225h-547v-437h616v-225h-909zM342 1602l229 270h181l223 -270h-191l-122 147l-130 -147h-190z" />
<glyph unicode="&#xcb;" horiz-adv-x="1343" d="M217 0v1497h889v-223h-596v-387h547v-225h-547v-437h616v-225h-909zM385 1565v215h236v-215h-236zM752 1565v215h237v-215h-237z" />
<glyph unicode="&#xcc;" horiz-adv-x="669" d="M35 1872h262l221 -270h-180zM190 0v1497h291v-1497h-291z" />
<glyph unicode="&#xcd;" horiz-adv-x="669" d="M106 1602l222 270h262l-303 -270h-181zM190 0v1497h291v-1497h-291z" />
<glyph unicode="&#xce;" horiz-adv-x="669" d="M20 1591l230 273h180l223 -273h-190l-123 150l-129 -150h-191zM190 0v1497h291v-1497h-291z" />
<glyph unicode="&#xcf;" horiz-adv-x="669" d="M39 1657v215h235v-215h-235zM190 0v1497h291v-1497h-291zM408 1657v215h235v-215h-235z" />
<glyph unicode="&#xd0;" horiz-adv-x="1556" d="M68 737v203h149v557h490q369 0 541.5 -171t172.5 -572q0 -406 -170 -580t-544 -174h-490v737h-149zM510 225h217q195 0 294 110.5t99 416.5q0 172 -29.5 280.5t-92 158.5t-128 66.5t-163.5 16.5h-197v-334h233v-203h-233v-512z" />
<glyph unicode="&#xd1;" horiz-adv-x="1681" d="M217 0v1497h434l527 -1153v1153h286v-1497h-436l-532 1153v-1153h-279zM469 1638q43 98 101.5 136t158.5 38q53 0 124 -52t103 -52q43 0 75 34t42 70l139 -65q-27 -86 -96 -136t-155 -50q-68 0 -135.5 51t-98.5 51q-88 0 -119 -90z" />
<glyph unicode="&#xd2;" horiz-adv-x="1677" d="M137 743q0 356 169 570.5t538 214.5q698 0 698 -785q0 -362 -166 -574t-534 -212q-705 0 -705 786zM438 743q0 -303 95.5 -433t308.5 -130q211 0 305 138.5t94 424.5q0 295 -96 427.5t-303 132.5t-305.5 -134.5t-98.5 -425.5zM504 1872h262l223 -270h-182z" />
<glyph unicode="&#xd3;" horiz-adv-x="1677" d="M137 743q0 356 169 570.5t538 214.5q698 0 698 -785q0 -362 -166 -574t-534 -212q-705 0 -705 786zM438 743q0 -303 95.5 -433t308.5 -130q211 0 305 138.5t94 424.5q0 295 -96 427.5t-303 132.5t-305.5 -134.5t-98.5 -425.5zM612 1602l224 270h262l-303 -270h-183z" />
<glyph unicode="&#xd4;" horiz-adv-x="1677" d="M137 743q0 356 169 570.5t538 214.5q698 0 698 -785q0 -362 -166 -574t-534 -212q-705 0 -705 786zM438 743q0 -303 95.5 -433t308.5 -130q211 0 305 138.5t94 424.5q0 295 -96 427.5t-303 132.5t-305.5 -134.5t-98.5 -425.5zM518 1602l230 270h180l223 -270h-190 l-123 147l-129 -147h-191z" />
<glyph unicode="&#xd5;" horiz-adv-x="1677" d="M137 743q0 356 169 570.5t538 214.5q698 0 698 -785q0 -362 -166 -574t-534 -212q-705 0 -705 786zM438 743q0 -303 95.5 -433t308.5 -130q211 0 305 138.5t94 424.5q0 295 -96 427.5t-303 132.5t-305.5 -134.5t-98.5 -425.5zM483 1640q43 98 101.5 136.5t158.5 38.5 q53 0 124 -52.5t102 -52.5q45 0 75.5 34t42.5 71l140 -66q-29 -86 -97.5 -136t-154.5 -50q-68 0 -136.5 52t-97.5 52q-88 0 -118 -90z" />
<glyph unicode="&#xd6;" horiz-adv-x="1677" d="M137 743q0 356 169 570.5t538 214.5q698 0 698 -785q0 -362 -166 -574t-534 -212q-705 0 -705 786zM438 743q0 -303 95.5 -433t308.5 -130q211 0 305 138.5t94 424.5q0 295 -96 427.5t-303 132.5t-305.5 -134.5t-98.5 -425.5zM541 1565v215h237v-215h-237zM909 1565v215 h236v-215h-236z" />
<glyph unicode="&#xd7;" d="M104 217l365 367l-365 364l158 158l365 -365l366 365l158 -158l-367 -364l367 -367l-158 -158l-366 367l-365 -367z" />
<glyph unicode="&#xd8;" horiz-adv-x="1677" d="M37 -2l209 246q-109 184 -109 499q0 356 169 570.5t538 214.5q248 0 413 -103l170 201l191 -172l-182 -215q106 -184 106 -496q0 -362 -166 -574t-534 -212q-252 0 -416 100l-199 -233zM438 743q0 -145 21 -249l628 735q-90 74 -245 74q-207 0 -305.5 -134.5 t-98.5 -425.5zM590 250q90 -70 252 -70q211 0 305 138.5t94 424.5q0 139 -20 242z" />
<glyph unicode="&#xd9;" horiz-adv-x="1671" d="M217 553v944h293v-922q0 -231 90 -313t252 -82q311 0 311 395v922h293v-948q0 -295 -155.5 -443.5t-448.5 -148.5q-635 0 -635 596zM504 1872h262l223 -270h-182z" />
<glyph unicode="&#xda;" horiz-adv-x="1671" d="M217 553v944h293v-922q0 -231 90 -313t252 -82q311 0 311 395v922h293v-948q0 -295 -155.5 -443.5t-448.5 -148.5q-635 0 -635 596zM653 1567l221 270h263l-303 -270h-181z" />
<glyph unicode="&#xdb;" horiz-adv-x="1671" d="M217 553v944h293v-922q0 -231 90 -313t252 -82q311 0 311 395v922h293v-948q0 -295 -155.5 -443.5t-448.5 -148.5q-635 0 -635 596zM522 1602l230 270h180l223 -270h-190l-123 147l-129 -147h-191z" />
<glyph unicode="&#xdc;" horiz-adv-x="1671" d="M217 553v944h293v-922q0 -231 90 -313t252 -82q311 0 311 395v922h293v-948q0 -295 -155.5 -443.5t-448.5 -148.5q-635 0 -635 596zM549 1565v215h235v-215h-235zM915 1565v215h238v-215h-238z" />
<glyph unicode="&#xdd;" horiz-adv-x="1431" d="M33 1497h329l365 -573l358 573h316l-541 -823v-674h-291v664zM399 1602l224 270h262l-303 -270h-183z" />
<glyph unicode="&#xde;" horiz-adv-x="1386" d="M217 0v1497h293v-280h233q530 0 531 -449q0 -463 -506 -463h-258v-305h-293zM510 530h240q227 0 227 238q0 139 -63.5 182t-176.5 43h-227v-463z" />
<glyph unicode="&#xdf;" horiz-adv-x="1241" d="M154 0v1090q0 215 108.5 322.5t304.5 107.5q80 0 149.5 -15.5t137.5 -53.5t106.5 -112.5t38.5 -181.5q0 -74 -21.5 -134t-62.5 -102t-71.5 -66t-75.5 -48.5t-51 -28.5q8 -2 72.5 -26.5t94 -39t88 -55.5t87 -85t54.5 -118.5t26 -164.5q0 -111 -41 -200t-105.5 -145.5 t-153.5 -95t-180.5 -54t-191.5 -15.5l90 221q150 0 231.5 86t81.5 209q0 45 -7 86t-24.5 70.5t-32.5 54t-45 45t-47.5 32t-54 26t-51 18.5t-53.5 15t-45 13v205q125 82 168 141q53 74 53 162q0 72 -47 114t-117 42q-154 0 -153 -203v-1116h-260z" />
<glyph unicode="&#xe0;" horiz-adv-x="1206" d="M100 279q0 385 580 385h88v51q0 76 -29.5 124t-120.5 48q-193 0 -387 -92l-90 215q217 78 490 77q184 0 292.5 -86t108.5 -251v-426q0 -49 18.5 -171t22.5 -153h-248l-39 106q-141 -137 -274 -137q-203 0 -307.5 79t-104.5 231zM256 1497h262l223 -270h-182zM373 289 q0 -117 186 -117q133 0 211 109v206h-57q-180 0 -260 -49t-80 -149z" />
<glyph unicode="&#xe1;" horiz-adv-x="1206" d="M100 279q0 385 580 385h88v51q0 76 -29.5 124t-120.5 48q-193 0 -387 -92l-90 215q217 78 490 77q184 0 292.5 -86t108.5 -251v-426q0 -49 18.5 -171t22.5 -153h-248l-39 106q-141 -137 -274 -137q-203 0 -307.5 79t-104.5 231zM358 1227l224 270h260l-303 -270h-181z M373 289q0 -117 186 -117q133 0 211 109v206h-57q-180 0 -260 -49t-80 -149z" />
<glyph unicode="&#xe2;" horiz-adv-x="1206" d="M100 279q0 385 580 385h88v51q0 76 -29.5 124t-120.5 48q-193 0 -387 -92l-90 215q217 78 490 77q184 0 292.5 -86t108.5 -251v-426q0 -49 18.5 -171t22.5 -153h-248l-39 106q-141 -137 -274 -137q-203 0 -307.5 79t-104.5 231zM246 1227l229 270h180l222 -270h-189 l-123 147l-131 -147h-188zM373 289q0 -117 186 -117q133 0 211 109v206h-57q-180 0 -260 -49t-80 -149z" />
<glyph unicode="&#xe3;" horiz-adv-x="1206" d="M100 279q0 385 580 385h88v51q0 76 -29.5 124t-120.5 48q-193 0 -387 -92l-90 215q217 78 490 77q184 0 292.5 -86t108.5 -251v-426q0 -49 18.5 -171t22.5 -153h-248l-39 106q-141 -137 -274 -137q-203 0 -307.5 79t-104.5 231zM197 1266q41 98 100 136t160 38 q53 0 123.5 -52.5t101.5 -52.5q25 0 47.5 12.5t34.5 23.5t34.5 38t26.5 31l115 -66q-29 -86 -98.5 -136t-153.5 -50q-68 0 -136.5 52t-98.5 52q-86 0 -117 -92zM373 289q0 -117 186 -117q133 0 211 109v206h-57q-180 0 -260 -49t-80 -149z" />
<glyph unicode="&#xe4;" horiz-adv-x="1206" d="M100 279q0 385 580 385h88v51q0 76 -29.5 124t-120.5 48q-193 0 -387 -92l-90 215q217 78 490 77q184 0 292.5 -86t108.5 -251v-426q0 -49 18.5 -171t22.5 -153h-248l-39 106q-141 -137 -274 -137q-203 0 -307.5 79t-104.5 231zM287 1223v229h239v-229h-239zM373 289 q0 -117 186 -117q133 0 211 109v206h-57q-180 0 -260 -49t-80 -149zM659 1223v229h238v-229h-238z" />
<glyph unicode="&#xe5;" horiz-adv-x="1206" d="M100 279q0 385 580 385h88v51q0 76 -29.5 124t-120.5 48q-193 0 -387 -92l-90 215q217 78 490 77q184 0 292.5 -86t108.5 -251v-426q0 -49 18.5 -171t22.5 -153h-248l-39 106q-141 -137 -274 -137q-203 0 -307.5 79t-104.5 231zM373 289q0 -117 186 -117q133 0 211 109 v206h-57q-180 0 -260 -49t-80 -149zM385 1363q0 79 55.5 134t136 55t136 -54t55.5 -134t-55.5 -135t-137.5 -55q-78 0 -134 55t-56 134zM479 1366q0 -35 28 -66.5t68 -31.5q47 0 72 27.5t25 69.5t-25.5 69.5t-71.5 27.5q-41 0 -68.5 -29.5t-27.5 -66.5z" />
<glyph unicode="&#xe6;" horiz-adv-x="1861" d="M100 279q0 385 580 385h88v51q0 76 -29.5 124t-120.5 48q-193 0 -387 -92l-90 215q217 78 490 77q195 0 311 -120q133 121 311 120q283 0 394.5 -159.5t111.5 -505.5h-727q33 -258 254 -258q143 0 324 90l86 -201q-182 -84 -428 -84q-139 0 -243.5 56.5t-141.5 136.5 q-168 -193 -371 -193t-307.5 79t-104.5 231zM373 289q0 -117 186 -117q117 0 211 131v172h-57q-184 0 -262 -44t-78 -142zM1032 616h465q-16 270 -240 271q-84 0 -151.5 -62t-73.5 -209z" />
<glyph unicode="&#xe7;" horiz-adv-x="1060" d="M100 520q0 264 134.5 415.5t394.5 151.5q68 0 174 -24.5t172 -48.5l-90 -215q-176 88 -258 88q-133 0 -195.5 -84t-62.5 -283q0 -348 256 -348q98 0 268 88l90 -217q-109 -53 -307 -72l-10 -34q80 0 121.5 -51.5t41.5 -112.5q0 -127 -93 -199t-214 -72q-106 0 -239 19 l55 174q147 -18 174 -19q47 0 82 22.5t35 70t-37 66t-154 18.5l35 133q-184 43 -278.5 185t-94.5 349z" />
<glyph unicode="&#xe8;" horiz-adv-x="1204" d="M100 518q0 100 23.5 193.5t78 181.5t158 141t242.5 53q270 0 385 -159.5t115 -499.5h-727q16 -127 80.5 -195.5t173.5 -68.5q152 0 332 90l86 -201q-184 -84 -437 -84q-244 0 -377 158t-133 391zM285 1497h262l221 -270h-180zM375 616h475q-16 270 -250 271 q-84 0 -151.5 -62t-73.5 -209z" />
<glyph unicode="&#xe9;" horiz-adv-x="1204" d="M100 518q0 100 23.5 193.5t78 181.5t158 141t242.5 53q270 0 385 -159.5t115 -499.5h-727q16 -127 80.5 -195.5t173.5 -68.5q152 0 332 90l86 -201q-184 -84 -437 -84q-244 0 -377 158t-133 391zM375 616h475q-16 270 -250 271q-84 0 -151.5 -62t-73.5 -209zM428 1227 l223 270h260l-303 -270h-180z" />
<glyph unicode="&#xea;" horiz-adv-x="1204" d="M100 518q0 100 23.5 193.5t78 181.5t158 141t242.5 53q270 0 385 -159.5t115 -499.5h-727q16 -127 80.5 -195.5t173.5 -68.5q152 0 332 90l86 -201q-184 -84 -437 -84q-244 0 -377 158t-133 391zM305 1227l230 270h180l223 -270h-190l-123 147l-129 -147h-191zM375 616 h475q-16 270 -250 271q-84 0 -151.5 -62t-73.5 -209z" />
<glyph unicode="&#xeb;" horiz-adv-x="1204" d="M100 518q0 100 23.5 193.5t78 181.5t158 141t242.5 53q270 0 385 -159.5t115 -499.5h-727q16 -127 80.5 -195.5t173.5 -68.5q152 0 332 90l86 -201q-184 -84 -437 -84q-244 0 -377 158t-133 391zM322 1235v217h235v-217h-235zM375 616h475q-16 270 -250 271 q-84 0 -151.5 -62t-73.5 -209zM690 1235v217h236v-217h-236z" />
<glyph unicode="&#xec;" horiz-adv-x="571" d="M12 1497h260l224 -270h-181zM156 0v1057h260v-1057h-260z" />
<glyph unicode="&#xed;" horiz-adv-x="571" d="M41 1227l223 270h262l-305 -270h-180zM156 0v1057h260v-1057h-260z" />
<glyph unicode="&#xee;" horiz-adv-x="571" d="M-12 1227l229 270h180l224 -270h-191l-123 147l-129 -147h-190zM156 0v1057h260v-1057h-260z" />
<glyph unicode="&#xef;" horiz-adv-x="571" d="M-16 1288v215h235v-215h-235zM156 0v1057h260v-1057h-260zM352 1288v215h236v-215h-236z" />
<glyph unicode="&#xf0;" d="M106 426q0 248 119 380t359 132q70 0 157.5 -43t130.5 -129q0 336 -237 455l-182 -121l-183 106l133 90q-35 6 -118 7h-58l-86 239q291 -6 500 -82l143 103l179 -107l-134 -92q315 -209 316 -709q0 -694 -537 -694q-205 0 -353.5 130t-148.5 335zM397 426 q0 -123 59.5 -185.5t149.5 -62.5q121 0 183.5 77t62.5 292q-68 172 -248 172q-72 0 -117 -26.5t-62 -76t-22.5 -85t-5.5 -91.5v-14z" />
<glyph unicode="&#xf1;" horiz-adv-x="1083" d="M125 1057h242l41 -137q4 4 24.5 28.5t34.5 36.5t42 35.5t52.5 36t59 23t69.5 10.5q217 0 299 -110t82 -314v-666h-260v678q0 49 -5 78.5t-20.5 63.5t-50.5 51.5t-90 17.5q-133 0 -231 -199v-690h-260v834q0 39 -5.5 75.5t-13.5 79.5t-10 68zM229 1266q41 98 100.5 136 t157.5 38q53 0 124 -52.5t104 -52.5q43 0 70.5 29t27.5 61q0 2 -1 7.5t-1 7.5l162 -66q-29 -86 -98.5 -136t-155.5 -50q-66 0 -134.5 52t-99.5 52q-88 0 -116 -92z" />
<glyph unicode="&#xf2;" horiz-adv-x="1241" d="M100 535q0 244 128 399.5t395 155.5q270 0 395 -153t125 -402q0 -119 -29 -218.5t-88 -179.5t-162.5 -125t-240.5 -45q-268 0 -395.5 159t-127.5 409zM336 1497h262l221 -270h-180zM369 535q0 -367 254 -367q252 0 251 367q0 193 -58 273.5t-193 80.5q-129 0 -191.5 -82 t-62.5 -272z" />
<glyph unicode="&#xf3;" horiz-adv-x="1241" d="M100 535q0 244 128 399.5t395 155.5q270 0 395 -153t125 -402q0 -119 -29 -218.5t-88 -179.5t-162.5 -125t-240.5 -45q-268 0 -395.5 159t-127.5 409zM369 535q0 -367 254 -367q252 0 251 367q0 193 -58 273.5t-193 80.5q-129 0 -191.5 -82t-62.5 -272zM420 1227l221 270 h262l-303 -270h-180z" />
<glyph unicode="&#xf4;" horiz-adv-x="1241" d="M100 535q0 244 128 399.5t395 155.5q270 0 395 -153t125 -402q0 -119 -29 -218.5t-88 -179.5t-162.5 -125t-240.5 -45q-268 0 -395.5 159t-127.5 409zM307 1227l230 270h180l223 -270h-190l-123 147l-129 -147h-191zM369 535q0 -367 254 -367q252 0 251 367 q0 193 -58 273.5t-193 80.5q-129 0 -191.5 -82t-62.5 -272z" />
<glyph unicode="&#xf5;" horiz-adv-x="1241" d="M100 535q0 244 128 399.5t395 155.5q270 0 395 -153t125 -402q0 -119 -29 -218.5t-88 -179.5t-162.5 -125t-240.5 -45q-268 0 -395.5 159t-127.5 409zM233 1266q41 98 100.5 136t160.5 38q53 0 123.5 -52.5t101.5 -52.5q45 0 75.5 34t43.5 71l139 -66q-29 -86 -97.5 -136 t-154.5 -50q-68 0 -136.5 52t-96.5 52q-88 0 -119 -92zM369 535q0 -367 254 -367q252 0 251 367q0 193 -58 273.5t-193 80.5q-129 0 -191.5 -82t-62.5 -272z" />
<glyph unicode="&#xf6;" horiz-adv-x="1241" d="M100 535q0 244 128 399.5t395 155.5q270 0 395 -153t125 -402q0 -119 -29 -218.5t-88 -179.5t-162.5 -125t-240.5 -45q-268 0 -395.5 159t-127.5 409zM326 1235v217h237v-217h-237zM369 535q0 -367 254 -367q252 0 251 367q0 193 -58 273.5t-193 80.5q-129 0 -191.5 -82 t-62.5 -272zM694 1235v217h236v-217h-236z" />
<glyph unicode="&#xf7;" d="M104 422v176h1041v-176h-1041zM485 18v254h279v-254h-279zM485 745v254h279v-254h-279z" />
<glyph unicode="&#xf8;" horiz-adv-x="1241" d="M37 78l127 141q-63 129 -64 316q0 244 128 399.5t395 155.5q164 0 282 -62l115 125l174 -170l-119 -129q68 -131 68 -319q0 -119 -29 -218.5t-88 -179.5t-162.5 -125t-240.5 -45q-176 0 -295 72l-117 -129zM369 535q0 -35 4 -91l381 416q-49 29 -131 29 q-129 0 -191.5 -82t-62.5 -272zM483 209q57 -41 140 -41q252 0 251 367q0 35 -4 94z" />
<glyph unicode="&#xf9;" horiz-adv-x="1206" d="M154 391v666h260v-678q0 -45 5 -77t18.5 -65.5t48 -51t85.5 -17.5q125 0 224 201v688h260v-832q0 -41 5 -77.5t13 -79.5t10 -68h-241l-41 139q-4 -4 -30 -34.5t-44 -48t-50 -42t-70 -36t-79 -11.5q-207 0 -290.5 111.5t-83.5 312.5zM299 1497h260l223 -270h-180z" />
<glyph unicode="&#xfa;" horiz-adv-x="1206" d="M154 391v666h260v-678q0 -45 5 -77t18.5 -65.5t48 -51t85.5 -17.5q125 0 224 201v688h260v-832q0 -41 5 -77.5t13 -79.5t10 -68h-241l-41 139q-4 -4 -30 -34.5t-44 -48t-50 -42t-70 -36t-79 -11.5q-207 0 -290.5 111.5t-83.5 312.5zM395 1227l223 270h261l-304 -270h-180 z" />
<glyph unicode="&#xfb;" horiz-adv-x="1206" d="M154 391v666h260v-678q0 -45 5 -77t18.5 -65.5t48 -51t85.5 -17.5q125 0 224 201v688h260v-832q0 -41 5 -77.5t13 -79.5t10 -68h-241l-41 139q-4 -4 -30 -34.5t-44 -48t-50 -42t-70 -36t-79 -11.5q-207 0 -290.5 111.5t-83.5 312.5zM281 1227l229 270h180l221 -270h-188 l-123 147l-131 -147h-188z" />
<glyph unicode="&#xfc;" horiz-adv-x="1206" d="M154 391v666h260v-678q0 -45 5 -77t18.5 -65.5t48 -51t85.5 -17.5q125 0 224 201v688h260v-832q0 -41 5 -77.5t13 -79.5t10 -68h-241l-41 139q-4 -4 -30 -34.5t-44 -48t-50 -42t-70 -36t-79 -11.5q-207 0 -290.5 111.5t-83.5 312.5zM301 1235v217h236v-217h-236z M670 1235v217h235v-217h-235z" />
<glyph unicode="&#xfd;" horiz-adv-x="1224" d="M84 1057h278l273 -719l235 719h273l-443 -1225q-53 -147 -146 -245.5t-255 -153.5l-88 215q164 45 203 151l92 244zM371 1227l221 270h262l-303 -270h-180z" />
<glyph unicode="&#xfe;" horiz-adv-x="1228" d="M125 -465q12 84 20.5 368.5t8.5 420.5v1196h260v-600q123 168 278 167q223 0 329.5 -155.5t106.5 -396t-122.5 -403.5t-350.5 -163q-88 0 -151.5 43t-95.5 94l-41 -571h-242zM410 319q70 -147 202 -147q248 0 248 358q0 356 -217 357q-76 0 -128 -53.5t-105 -151.5v-363z " />
<glyph unicode="&#xff;" horiz-adv-x="1224" d="M84 1057h278l273 -719l235 719h273l-443 -1225q-53 -147 -146 -245.5t-255 -153.5l-88 215q164 45 203 151l92 244zM338 1235v217h235v-217h-235zM707 1235v217h235v-217h-235z" />
<glyph unicode="&#x152;" horiz-adv-x="2347" d="M137 743q0 356 169 570.5t538 214.5q145 0 243 -31h1024v-223h-710q94 -154 112 -387h549v-225h-546q-12 -268 -113 -437h729v-225h-1006q-125 -43 -284 -43q-705 0 -705 786zM438 743q0 -303 95.5 -433t308.5 -130q209 0 292 135.5t83 427.5q0 301 -85 430.5t-290 129.5 q-207 0 -305.5 -134.5t-98.5 -425.5z" />
<glyph unicode="&#x153;" horiz-adv-x="1968" d="M100 535q0 244 128 399.5t395 155.5q252 0 387 -150q127 147 350 147q283 0 394.5 -159.5t111.5 -505.5h-727q33 -258 254 -258q143 0 323 90l86 -201q-182 -84 -428 -84q-229 0 -364 156q-135 -158 -387 -158q-268 0 -395.5 159t-127.5 409zM369 535q0 -367 254 -367 q252 0 251 367q0 193 -58 273.5t-193 80.5q-129 0 -191.5 -82t-62.5 -272zM1139 616h465q-16 270 -240 271q-84 0 -151.5 -62t-73.5 -209z" />
<glyph unicode="&#x178;" horiz-adv-x="1431" d="M33 1497h329l365 -573l358 573h316l-541 -823v-674h-291v664zM440 1653v219h232v-219h-232zM801 1653v219h233v-219h-233z" />
<glyph unicode="&#x2c6;" horiz-adv-x="571" d="M-31 1227l230 270h180l223 -270h-190l-123 147l-129 -147h-191z" />
<glyph unicode="&#x2dc;" horiz-adv-x="571" d="M-86 1266q43 98 101.5 136t158.5 38q53 0 124 -52.5t101 -52.5q45 0 76 34t43 71l139 -66q-29 -86 -97 -136t-154 -50q-68 0 -136.5 52t-97.5 52q-88 0 -119 -92z" />
<glyph unicode="&#x2000;" horiz-adv-x="966" />
<glyph unicode="&#x2001;" horiz-adv-x="1933" />
<glyph unicode="&#x2002;" horiz-adv-x="966" />
<glyph unicode="&#x2003;" horiz-adv-x="1933" />
<glyph unicode="&#x2004;" horiz-adv-x="643" />
<glyph unicode="&#x2005;" horiz-adv-x="483" />
<glyph unicode="&#x2006;" horiz-adv-x="321" />
<glyph unicode="&#x2007;" horiz-adv-x="321" />
<glyph unicode="&#x2008;" horiz-adv-x="241" />
<glyph unicode="&#x2009;" horiz-adv-x="385" />
<glyph unicode="&#x200a;" horiz-adv-x="106" />
<glyph unicode="&#x2010;" horiz-adv-x="808" d="M63 412v217h685v-217h-685z" />
<glyph unicode="&#x2011;" horiz-adv-x="808" d="M63 412v217h685v-217h-685z" />
<glyph unicode="&#x2012;" horiz-adv-x="808" d="M63 412v217h685v-217h-685z" />
<glyph unicode="&#x2013;" horiz-adv-x="1157" d="M-2 451v200h1161v-200h-1161z" />
<glyph unicode="&#x2014;" horiz-adv-x="2314" d="M-2 432v219h2318v-219h-2318z" />
<glyph unicode="&#x2018;" horiz-adv-x="624" d="M104 1065l230 434h176l-197 -434h-209z" />
<glyph unicode="&#x2019;" horiz-adv-x="624" d="M104 1065l197 434h209l-227 -434h-179z" />
<glyph unicode="&#x201a;" horiz-adv-x="624" d="M104 -203l197 434h209l-227 -434h-179z" />
<glyph unicode="&#x201c;" horiz-adv-x="948" d="M92 1065l230 434h176l-197 -434h-209zM451 1065l227 434h178l-197 -434h-208z" />
<glyph unicode="&#x201d;" horiz-adv-x="948" d="M92 1065l197 434h209l-228 -434h-178zM451 1065l196 434h209l-229 -434h-176z" />
<glyph unicode="&#x201e;" horiz-adv-x="948" d="M92 -203l197 434h209l-228 -434h-178zM451 -203l196 434h209l-229 -434h-176z" />
<glyph unicode="&#x2022;" d="M295 750q0 139 95 235t234.5 96t235.5 -96t96 -235.5t-96 -236.5t-235 -97q-141 0 -235.5 96.5t-94.5 237.5z" />
<glyph unicode="&#x2026;" horiz-adv-x="1873" d="M174 0v254h277v-254h-277zM799 0v254h276v-254h-276zM1423 0v254h279v-254h-279z" />
<glyph unicode="&#x202f;" horiz-adv-x="385" />
<glyph unicode="&#x2039;" horiz-adv-x="624" d="M96 625l217 422h240l-225 -418l223 -416h-238z" />
<glyph unicode="&#x203a;" horiz-adv-x="624" d="M96 1047h242l215 -422l-215 -412h-238l222 416z" />
<glyph unicode="&#x205f;" horiz-adv-x="483" />
<glyph unicode="&#x2122;" horiz-adv-x="2140" d="M158 1372v125h667v-125h-247v-698h-172v698h-248zM932 674v823h289l227 -608l231 608h277v-823h-172v651l-252 -651h-180l-252 651v-651h-168z" />
<glyph unicode="&#xe000;" horiz-adv-x="1055" d="M0 1055h1055v-1055h-1055v1055z" />
<glyph unicode="&#xfb01;" d="M25 856v201h159v30q0 113 45 200t122 137.5t144.5 76t143.5 37.5l90 -215q-143 -23 -213 -69t-70 -146v-51h195v-201h-195v-856h-262v856h-159zM825 1270v227h277v-227h-277zM834 0v1057h260v-1057h-260z" />
<glyph unicode="&#xfb02;" d="M25 856v201h159v30q0 113 45 200t122 137.5t144.5 76t143.5 37.5l90 -215q-143 -23 -213 -69t-70 -146v-51h195v-201h-195v-856h-262v856h-159zM840 0v1520h262v-1520h-262z" />
<glyph unicode="&#xfb03;" horiz-adv-x="2115" d="M1693 1270v227h277v-227h-277zM1702 0v1057h260v-1057h-260zM797 856v201h159v30q0 117 50.5 208t131 145.5t168 84t175.5 38.5l63 -215q-164 -16 -245 -71.5t-81 -168.5v-51h242v-201h-242v-856h-262v856h-159zM25 856v201h159v30q0 117 50.5 208t131 145.5t168 84 t175.5 38.5l63 -215q-164 -16 -245 -71.5t-81 -168.5v-51h242v-201h-242v-856h-262v856h-159z" />
<glyph unicode="&#xfb04;" horiz-adv-x="2111" d="M1700 0v1520h260v-1520h-260zM797 856v201h159v30q0 117 50.5 208t131 145.5t168 84t175.5 38.5l63 -215q-164 -16 -245 -71.5t-81 -168.5v-51h242v-201h-242v-856h-262v856h-159zM25 856v201h159v30q0 117 50.5 208t131 145.5t168 84t175.5 38.5l63 -215 q-164 -16 -245 -71.5t-81 -168.5v-51h242v-201h-242v-856h-262v856h-159z" />
<glyph horiz-adv-x="563" />
</font>
</defs>
</svg>
